<?xml version="1.0" encoding="utf-8"?>
<!-- Generator: Adobe Illustrator 26.0.2, SVG Export Plug-In . SVG Version: 6.00 Build 0)  -->
<svg version="1.1" id="Layer_1" xmlns="http://www.w3.org/2000/svg" xmlns:xlink="http://www.w3.org/1999/xlink" x="0px" y="0px"
	 viewBox="0 0 1920 1000" style="enable-background:new 0 0 1920 1000;" xml:space="preserve">
<style type="text/css">
	.st0{clip-path:url(#SVGID_00000160893354857734000860000014074426521300693659_);}
	.st1{fill:none;stroke:#FFFFFF;stroke-width:0.5;stroke-linecap:round;stroke-linejoin:round;}
</style>
<g>
	<defs>
		<rect id="SVGID_1_" x="9" y="-34.9" width="1902" height="1069.9"/>
	</defs>
	<clipPath id="SVGID_00000092415298456335293060000013072087437376775858_">
		<use xlink:href="#SVGID_1_"  style="overflow:visible;"/>
	</clipPath>
	<g style="clip-path:url(#SVGID_00000092415298456335293060000013072087437376775858_);">
		<path class="st1" d="M-851.6,433.6c107.6,0,350.7-8.1,419.2-14C-64,382.6,70.2,77.4,373.8,446.7C532,648.2,583.5,799.9,793,930.3
			C1106.6,1106,1249,607.6,1486.4,412c90.4-65.1,267.2-78,387-71.4c171.2,11.9,293.4,49,483.7,63.3c109,7.1,156.1,1.2,306.4,9.6
			c248.5,15.4,140.9,20.1,354.7,20.1"/>
		<path class="st1" d="M-851.6,433.6c114.6-0.1,342.2-8.1,419.2-15.3C-65,378.5,69.5,84.4,373.8,447.1
			C528.9,640.5,582.7,788.9,793,917c313.6,172.7,456.8-298.8,693.4-486.5c86.8-60.4,266.3-82.8,387-81.1
			c172.3,5.1,293.8,40.6,483.7,56.6c114,8.5,172.3,2.9,338.6,12.2c227.9,13.8,128.8,15.5,322.5,15.3"/>
		<path class="st1" d="M-851.6,433.6c513.7-1,559.3-37.4,725.6-108.6c218.9-91.6,333.5-80.7,516,142.1
			c142,179.4,164.1,252.4,306.4,368.7c77.2,61.1,154.4,116.2,258,107c230.2-38.8,368.4-401.4,564.4-513.7
			c59.3-27.9,180.7-54.3,258-64.1c224.4-24.7,376,28.1,612.7,45.8c105,6.9,177.4,2.9,354.7,12.7c205.5,12.2,121.2,10.4,274.1,10.1"
			/>
		<path class="st1" d="M-851.6,433.6c211.9-0.4,428.7-7.9,564.3-47.1c257.4-81.2,402.1-247.8,677.2,80.5
			c118.9,146.8,221.8,337.6,435.4,439.7c309,130,457.5-327.4,693.3-458.4c47.8-22.1,220.1-76.8,387-82.4
			c273.6-4.6,302,69.6,1112.6,67.6"/>
		<path class="st1" d="M-851.6,433.6c493.1-0.5,553.2-41.5,725.6-110.7c214.8-84.2,331.7-71,516,144.1
			c142.5,171.8,165.3,239.6,306.4,346.4c79,58,155.8,109.3,258,105.6c220.8-23.7,361.7-326.7,548.2-442.6
			c59.6-32,212.1-72.2,274.1-85.3c325.8-63.6,308.9,44.7,1241.6,42.6"/>
		<path class="st1" d="M-851.6,433.6c168.6-0.3,406.1-5.1,564.3-51.5c271-85.6,405.7-224.8,677.2,84.8
			c135.7,159.7,203,294.3,419.2,405.3c304.5,142.1,445.6-212.2,677.2-367.3c57.3-34.2,290.1-117.5,467.6-127.1
			c271.8-9.7,188.7,57.4,1064.2,55.8"/>
		<path class="st1" d="M-851.6,433.6c481.2-1.1,550.1-46.1,725.6-112.4c212.9-78,330.8-61.3,516,144.4
			C520.4,615,557.2,689.7,680.2,778.1c79.4,55.4,158.2,107.4,258,115.5c229.9,4.3,372.3-270.8,564.3-380.8
			c44.3-22.3,236.3-88.2,322.5-109.1c92-20.6,161.6-25.5,258-20.1c319.9,22.6,91.5,52.1,935.2,50"/>
		<path class="st1" d="M-851.6,433.6c444.4-1.2,537.2-42.1,693.3-101.1c228.1-85.2,340.6-77.3,516,97.6
			c127.2,132.2,181.8,230,290.2,313.1c75.3,53.8,162.6,111.7,258,132.5c233.6,37.9,370.6-197.6,564.4-326.8
			c51.2-31.3,64.8-33.8,129-56.1c325.2-116.2,332.9-132.3,741.7-74.8c173.8,23.7,188.4,16.5,677.2,15.5"/>
		<path class="st1" d="M-851.6,433.6c712.3-0.9,657.5-151.6,919.1-152.8c110.1,4.8,181.4,51.1,258,118.3
			c192.1,177.8,181.9,253.3,419.2,394.2c311.6,178.9,415.7,2,677.2-195.1c83.1-59.7,72-47.3,322.5-145.4
			c356.5-135.9,478.2-11.9,854.6-13.8c127.6-1.3,312-5.2,419.2-5.5"/>
		<path class="st1" d="M-851.6,433.6c696.2-1.5,660.9-152.4,919.1-151.2c109.1,5.6,180.2,50.4,258,117
			c202.9,183.1,177.8,245.8,435.4,388.8c326,174,446.8-39.4,693.4-196.6c77.3-46.1,33.2-15.4,290.2-125.5
			c362.5-151.7,489.7-22.3,838.5-23.3c115.5-1.2,204.8-8.7,435.4-9.4"/>
		<path class="st1" d="M-851.6,433.6c656.6-1.6,633.6-131.3,886.8-149.3c302-9,388.7,300.8,693.3,472.1
			c307.1,169,396.9,71.3,677.2-118.4c119.8-78.5,122.8-58.7,258-120.5c72.6-33.8,100-48.1,161.2-72.3
			c287.2-107.9,440.9-6.5,709.5,1.4c134.9,2.1,230.2-12.2,483.7-13"/>
		<path class="st1" d="M-851.6,433.6c199.5-0.5,392.3-7.5,580.5-65.9c228.7-74,351-138.5,548.2-6.1c227,163.1,205.7,275,548.3,426.6
			c234.8,97.7,355,4.8,564.3-129c135.7-84.9,136.6-64.1,258-120.2c105.8-50.6,175.8-93,290.2-122.3c219.5-50.1,369,24.4,580.5,33.8
			c144.7,4,244.9-16,499.9-16.9"/>
		<path class="st1" d="M-851.6,433.6c227.6-0.7,400.4-11.3,580.5-66.8c236.2-75.6,359.9-136.4,564.4,6
			c213.3,158.4,217.7,276.1,564.4,411.5c224.7,81.5,346.8-8.2,548.2-124c140.4-78.7,128.7-48.8,274.1-123.5
			c109.3-57.4,187.8-101.9,306.4-124.9c210.7-34.6,349.7,41.6,564.4,43.6c143.2-0.9,237-21,467.6-21.9"/>
		<path class="st1" d="M-851.6,433.6c616.2-2,620.1-121.7,870.7-144C267.2,276.5,392.5,469,567.3,614.5
			c57.1,44.9,73.6,51.3,177.4,102.4c300.9,146.3,384.8,96.5,677.2-53.6c137.7-68.7,120.8-39.3,258-113
			c204.5-112.1,302.5-168.6,548.2-133.5c126.4,19.5,194.9,40.3,306.4,43c146.6,0.9,251.1-25,483.7-26.1"/>
		<path class="st1" d="M-851.6,433.6c141.1-0.5,296.8-5.9,435.4-31.7c283.2-56.7,431.5-189.6,677.2-50.2
			c178.2,109.1,237,232.5,419.2,318.8c179.2,83.9,284.4,140.6,451.5,115.3c114.9-21.3,190.8-65.3,306.4-118
			c131.8-58.4,120.6-34.6,258-113.4c195.6-114,296.9-171.6,548.2-132.2c132.3,22.1,192.7,41.7,306.4,42
			c152.3-2.4,244.2-29.7,467.6-30.6"/>
		<path class="st1" d="M-851.6,433.6c137.1-0.5,284.3-5.4,419.2-29.3C-142,349.1,9.3,213.6,261,352
			C386.2,426.1,457,511.1,567.3,593.5C625,633.9,643,639,728.6,677.2c154.6,69.6,263.8,123.6,435.4,97.5
			c115.3-21,187.6-60.7,306.4-107.4c159.3-60.3,89.8-19.8,306.4-149.1c362.7-211.9,497.6-38.7,806.2-50.7
			c147.1-8.1,233.3-33.1,435.4-33.9"/>
		<path class="st1" d="M-851.6,433.6c131.4-0.4,273.6-5.1,403.1-26.5C-156.2,355-3.7,221.6,244.8,342.6
			C438.9,444.8,475.6,555,696.3,646.2c288.5,120.3,376.1,178.5,693.4,60.7c196.8-73.9,187.3-56.8,306.4-130.2
			c191.9-120.2,294.5-185.8,532.1-150.7c121.5,19.7,188.8,42.3,290.2,46.7c160.1,2.8,265.3-37.9,499.9-39.1"/>
		<path class="st1" d="M-851.6,433.6c567.2-1.8,581.5-101.8,838.5-135.3C307,265.7,426.7,522.9,664.1,617
			c276.3,106.6,387.3,202,709.5,101.5c250.5-80.6,227.8-70.9,387-174.1c380.5-242.8,504.2-57.5,806.2-67.7
			c152.3-8.3,242.6-41.9,451.5-43"/>
		<path class="st1" d="M-851.6,433.6c561.6-1.9,581.8-101.3,838.5-133.8C306,268.2,426.3,514.2,664.1,601.2
			c260.5,93.3,387.6,201.9,693.3,127.1c323.1-83.8,269.7-100.7,483.7-226.1c286.1-160.2,447.4-29.3,677.2-20.5
			c163,1.6,267.2-46.7,499.9-48"/>
		<path class="st1" d="M-851.6,433.6c563.7-2,574-99.7,838.5-132.3C305,270.8,424.4,505,664.1,585.3
			c250.7,82.4,391.6,205,693.3,147.8c251.4-52,289.3-94.9,419.2-183.1c298.6-198.9,419.9-108.2,677.2-69.1
			c188.9,23.9,301.1-45.6,564.4-47.2"/>
		<path class="st1" d="M-851.6,433.6c564.1-2.1,567.7-98.3,838.5-130.7c317-29.8,436.5,193.2,677.2,266.5
			c246.5,74,398.6,207.9,693.3,168c240.9-37.4,292.2-91.2,419.2-179.9c300.2-205.8,422.8-111.7,677.2-72.2
			c190.2,24.5,302.2-49.8,564.4-51.7"/>
		<path class="st1" d="M-851.6,433.6c566.9-2.3,561.5-95.5,838.5-128.8C306.7,274.2,405.9,482,680.2,557.7
			c228.7,65,397.9,211,693.4,178c230.2-30.6,276.9-86.5,419.2-185.2C2091.9,348,2226.9,460,2470,491.3
			c182.6,17.8,293-55.8,548.2-57.7"/>
		<path class="st1" d="M-851.6,433.6c215.6-0.9,355.3-7.2,548.2-58.4C-85.3,315.8,51.3,263.8,261,344
			c127.4,52.5,196.9,111.2,306.4,161.6c99.8,42.2,107,20.7,274.1,92.4c196.2,85.5,344.1,160.2,564.4,135.1
			c300.7-40.6,312.8-174.1,548.2-268.3c214.2-77.2,367.1,21.8,548.2,33c170.1,4.6,278-62.3,516-64.2"/>
		<path class="st1" d="M-851.6,433.6c143.6-0.7,285.4-4.5,419.2-28.2C-163.9,354.7-3,248.1,261,342.3
			c128.6,49.5,196,103.7,306.4,150.3c61.9,23.9,74.5,21.6,145.1,39.9c222.9,63.6,416.3,230.2,709.5,201
			c214.5-26.2,229.6-84.9,419.2-207.6c289.7-179.2,452-29.3,677.2-23.9c170.2-1.8,266.2-66.5,499.9-68.5"/>
		<path class="st1" d="M-851.6,433.6c312-1.5,414.6-21.4,564.3-61.1c227-61.6,363.3-102.7,580.5-20.1
			c123.7,49.9,188,97.1,290.2,132.7c91.5,28.2,115.6,14.7,258,75.8c185.8,82.2,351.3,184.2,564.4,176.2
			c282.1-18,313-170.4,548.2-266.5c215.5-79.3,366.9,24.4,548.2,34.9c171.5,3.6,278.6-69.9,516-72"/>
		<path class="st1" d="M-851.6,433.6c182.8-1,307.6-6.4,435.4-30.1c267.9-52.9,428-152.5,709.5-53.7
			c121.9,45.5,189.6,90.5,290.2,121.9c56.5,15.4,67.6,13,129,26.4c228.3,56.8,434.6,248.1,709.5,240
			c203.7-11.9,235.4-83.9,419.2-205.3c290.6-183.5,453.1-27.1,677.2-23.1c170.8-3.4,266.8-73.8,499.9-76"/>
		<path class="st1" d="M-851.6,433.6c208.1-1.1,324.8-7.6,451.5-32.1c266.5-54.6,423.4-147.4,709.5-49.1
			c122,44.1,190.3,86.2,290.3,110.5c60.7,12.6,66.9,8.7,129,23.2c228.8,60.6,439.2,257.5,709.5,248.2
			c198.5-12.9,232.1-94.3,419.2-211.6c292-173.7,457.6,2,693.4-11.9c164.8-15,250.2-75,467.6-77.2"/>
		<path class="st1" d="M-851.6,433.6c249.9-1.4,344.4-10.6,451.5-30.9C-133,349,22.3,258.9,309.3,349.1
			c122.9,40.7,190.2,79.4,290.3,100.7c61.7,11,67.9,7.1,129,20.3c231.6,58,444.9,264.1,709.5,261.3
			c195.3-8.4,233.6-93.3,419.2-208.7c292.6-172.5,456.6,5.3,693.4-9.6c165.9-15.9,250.1-77.3,467.6-79.5"/>
		<path class="st1" d="M-851.6,433.6c258-1.5,352.4-10.2,467.6-32.9C-212.2,365-86.5,314.9,83.6,312
			c243.7,1.2,363,106.6,548.3,129.1c244.2,25.2,329.7,129.1,580.5,236.3c360.4,146.9,462.4-54.8,677.2-172.8
			c284.6-146,438.2,40.6,693.4,7.1c164.1-25.9,234.6-76,435.4-78"/>
		<path class="st1" d="M-851.6,433.6c403.3-2.5,419.6-20.4,693.3-85.4c445.6-102.9,524.9,58.3,822.3,81.3
			c305.1,26.9,534,338.7,854.6,290.1c197.1-38.8,296-243.8,548.2-268.9c218-13.4,324.9,104.1,564.4,54
			c155.8-35.4,214.7-69.3,387-71.1"/>
		<path class="st1" d="M-851.6,433.6c252.4-1.6,356.4-5.6,516-40.5C-25.9,322.7,83.1,274,389.9,360.3c320,92.3,271.9,23.5,451.5,98
			c163.4,71.9,304,181.3,467.6,238.7c333.7,106.7,399.9-148.7,677.2-231.3c154.1-39.4,258.7,7,419.2,42.9
			c232.5,48,335.1-72.1,612.7-75.1"/>
		<path class="st1" d="M-851.6,433.6c415.3-2.3,406.4-15.2,709.5-84.3c212.6-47.2,329.8-44,516,1.8c254,64.4,185,43.4,322.5,54
			c289.2,32.7,531,356.6,838.5,301.4c184.7-43.2,293.4-244.5,548.2-256c214.4-2,314.8,106.7,548.2,56.1
			c156.4-36.7,214.5-71.2,387-73"/>
		<path class="st1" d="M-851.6,433.6c270.8-1.5,363.6-3.3,532.1-40.1c359.3-80.8,414.7-111.5,774-28.3
			c231.7,52.4,224.2-4.8,403.1,71.5c169.8,76.8,307,187.2,467.6,244.4c324.2,104.7,391.4-156.1,677.2-222
			c155.2-29.5,261.5,22.2,419.2,54.2c217.1,39.2,325.9-77.1,596.6-79.7"/>
		<path class="st1" d="M-851.6,433.6c287.5-1.9,367.2-1.7,548.2-41.6c384.5-87.1,417.2-100.9,774-30.4c213.5,40.5,219-14.2,403.1,68
			c164.9,77.4,297.2,183.2,451.5,241c321.6,109.7,390.5-150.3,677.2-212.7c163.6-29.1,274.9,30.4,435.4,59
			c206.6,31,312.5-80.8,580.5-83.3"/>
		<path class="st1" d="M-851.6,433.6c283.1-1.9,362.5,0.6,548.2-39.5c422-93.9,419.4-97,790.1-37.2c195.3,29.7,208.2-20.6,387,58.2
			c172.9,80.4,309.5,193.9,467.6,250.7c314.4,101.7,381.7-162.9,677.2-211.9c165.2-20.9,279.6,42.9,435.4,66
			c196.1,22.3,303.2-84,564.4-86.3"/>
		<path class="st1" d="M-851.6,433.6c279.4-1.9,358.9,2.8,548.2-37.4c384.2-84,402.6-101.5,774-48.9c210.2,28.3,218-21.6,387,46.8
			c165.3,71.8,294.9,179.4,451.5,248.1c322.3,131.6,393-118.6,677.2-184.2c162.1-31.1,273.5,24.9,435.4,56.9
			c217.6,37.9,324.6-79.1,596.6-81.4"/>
		<path class="st1" d="M-851.6,433.6c270.7-1.6,352.3,4.5,532.1-31.7c394.6-82.3,391.5-108,790.1-59.5
			c210.3,24.1,218.8-25.3,387,40.8c172.1,72.5,307.3,186,467.6,252C1633.4,752,1705,514.8,1986.3,454.8
			c154.9-27.1,258.6,21.5,419.2,55.6c231.6,44.8,335.1-74.8,612.7-76.8"/>
		<path class="st1" d="M-851.6,433.6c415.2-3.2,339.6,12.3,741.7-76.2c246.5-53.3,348-44.9,564.4-21.6
			c251.6,25.6,256.6-48.1,516,89.9c237.1,129.6,380.9,258.9,580.5,221.3c172.2-42.4,284.3-206.2,532.1-202.2
			c215.8,10.2,316,109.7,548.2,59.5c159.3-37.2,212.9-69.6,387-70.7"/>
		<path class="st1" d="M-851.6,433.6c284.5-1.9,350.7,9.4,548.2-30.5c180.8-37.8,303.8-76.8,483.7-84.9
			c130.5-4.2,206.6,9,322.5,16.6c179.7,9.7,204.1-37.5,387,39.4c171.4,76.4,297.8,180.3,451.5,239.7
			c304.8,107.4,378.9-138.3,677.2-169.7c165-11.7,279.2,50.1,435.4,71.2c196.1,20.1,303.4-80.6,564.4-81.9"/>
		<path class="st1" d="M-851.6,433.6c277-1.7,345.3,10.5,532.1-25c182.6-36.2,311.3-79.2,499.9-90.2c131.1-6,208.2,5.6,322.5,10.8
			c179.7,6.1,204.9-40.7,387,33.6c177.7,77,310.7,187.3,467.6,243.3c295.5,94.7,373-148.5,677.2-165.5
			c165.3-3.8,284.2,59.9,435.4,75c186.7,11.9,294.8-81,548.2-81.9"/>
		<path class="st1" d="M-851.6,433.6c268.1-1.5,337.5,11.6,516-19.8c411.9-76.9,354.2-110.2,806.2-90.6
			c210.8,7.7,220.9-39.8,387,16.5c166.8,61.4,293.2,162.5,451.5,233.5c313.6,132.3,387.6-91.1,677.2-131.8
			c162.4-17.4,273.3,37.2,435.4,66c219.2,34,320.2-73.2,596.6-73.8"/>
		<path class="st1" d="M-851.6,433.6c269.3-1.2,336.7,13.2,516-17.9C52.2,343.9-4.8,305.6,470.6,321.1
			c210.3,5.4,220.1-42.2,387,11.3c166.8,58.3,293.1,156.4,451.5,226c311.9,129,386.3-86,677.2-121.1
			c263.8-23.4,367.4,122.3,677.2,52.4c151.5-35.6,200.7-56,354.7-56"/>
		<path class="st1" d="M-851.6,433.6c258.7-1,327.7,14.3,499.8-13.3C-5.2,360.8-7,305.1,454.5,318.6c228.2,5,226.7-42.2,387,1.5
			c161.2,48.6,296.5,146.4,451.5,216.4c317.8,136.7,389.7-63.9,677.2-101.9c270.3-27.3,375.8,121.1,693.4,52.4
			c153.6-34.7,200.4-53.7,354.7-53.4"/>
		<path class="st1" d="M-851.6,433.6c256.5-0.8,326.2,16,499.8-11.4C-44.3,370,3.3,307.8,438.3,316.4c245.5,4,233.2-41.7,387-7.5
			c169.4,43.1,300.5,139,467.6,212.9c309.7,130.3,382-50.6,661.1-89.9c267.6-29.7,391.8,114.8,693.4,55.9
			c157.4-32.6,205.4-54.8,370.9-54.1"/>
		<path class="st1" d="M-851.6,433.6c254.9-0.5,324.9,17.6,499.8-9.6C-35.9,371.1-7,310.3,438.3,314.6
			c244.3,1.4,232.4-44.2,387-12.5c162.7,38.4,288.2,124.6,451.5,198c323.6,139.6,389.7-39.1,677.2-73.1
			c276.6-24.8,383.9,119.2,709.5,54.8c155.5-32.2,199.6-49.1,354.7-48.1"/>
		<path class="st1" d="M-851.6,433.6c298.6-0.6,348.5,26.8,596.6-26.5C-1.1,351,93.9,313.7,373.8,313.2
			c212.1,0.4,192.4-4.6,306.3-22.4c301.4-37.5,555.9,259.9,838.5,245.8c180.6-16.4,290.1-134.5,548.2-113.6
			c220.5,22.7,325.5,101,564.4,61.8c164-29.1,208.9-52.7,387-51.1"/>
		<path class="st1" d="M-851.6,433.6c290.6-0.4,346.9,28.6,596.6-25.7c242.6-54.3,345.3-92.8,612.7-94
			c226.7,0.4,202.2-3.5,322.5-23.7C982.5,249,1236,534.8,1518.7,521c179.1-15.7,289.9-124.4,548.2-101
			c218.6,24.1,324.9,97.5,564.4,60.9c168.5-27.9,208.5-49.3,387-47.2"/>
		<path class="st1" d="M-851.6,433.6c239.5-0.1,304.7,19.4,467.6-1c249.8-35,381.8-116.8,741.7-117.9
			c362.7,0.8,287.2-45.4,451.5-26.7c167.6,24.2,300.1,103.9,467.6,170.8c325,124.8,387.4-38,693.4-46.6
			c280.3-1.5,364.7,115.7,709.5,56.8c148.4-26.1,191.5-37.6,338.6-35.4"/>
		<path class="st1" d="M-851.6,433.6c235.8,0.2,303.8,20.6,467.6,0.1c248.3-34.9,379.2-117.6,741.7-118.3
			c349.5,1,286.7-45.4,451.5-30c161.2,19.8,286.8,89.1,451.5,153.8c326.5,124.2,381.1-15.5,677.2-30.8
			c263.7-7.9,397.5,103.2,693.4,64.5c173.2-24.5,204.6-42.3,387-39.3"/>
		<path class="st1" d="M-851.6,433.6c225.1,0.1,293.1,20.5,451.5,3.3c162.5-20.3,290.1-70.2,483.7-101.8
			c267.4-40.8,358.9,5.6,580.5-42.9c203.3-40.9,374.2,49,580.5,127.9c336.3,125.5,377-1.7,677.2-16.3
			c269.8-7.6,404.2,101.7,709.5,65.2c174.3-22.6,203.9-39,387-35.4"/>
		<path class="st1" d="M-851.6,433.6c228.3,0.3,292.1,21.6,451.5,4.1c154.6-19.5,281.7-68.1,467.6-100
			c262.6-42.4,386.1,1,564.4-37.5c227.8-51.9,342.6,10.2,612.7,107.8c334.7,118.3,371.7-1.9,677.2-9.3
			c268.3-1.5,400.5,99.6,709.5,66.2c173.1-20.3,204.2-35.5,387-31.3"/>
		<path class="st1" d="M-851.6,433.6c226.6,0.5,291.5,22.3,451.5,4.1c243.5-31.9,378.9-122.7,741.8-118.4
			c354.7,5.8,285.8-37.7,451.5-37.1c167.3,5.3,297.1,64.9,467.6,121.3c326.6,105,371.5-18.4,693.4-8.2
			c281.2,13.5,368.5,101.5,725.6,59.9c164-20.1,195.7-25.5,338.6-21.6"/>
		<path class="st1" d="M-851.6,433.6c227.5,0.7,299.8,24.7,467.6,2c239.1-36.5,369.1-123,725.6-114.2
			c359.5,11.1,283.2-39.3,467.6-37.3c162.5,5.9,286.2,58.2,451.5,109.3c323.6,97.2,363.4-18,693.4-1.4
			c271.7,17.6,368.4,94.4,709.5,61.3c163.5-16.7,193.1-24.6,354.7-19.6"/>
		<path class="st1" d="M-851.6,433.6c226.2,0.9,299.3,25.4,467.6,1.9C-144.8,398-18,310.1,341.6,323.4
			c345.6,15,255.7-25.7,435.3-37.3c159.3-5.8,290.3,39.3,451.5,87.7c353.9,103.8,353.7-1.5,693.4,12.7
			c266.6,14.7,381.8,88.7,709.5,65.4c181.5-14.1,202.1-24.6,387-18.3"/>
		<path class="st1" d="M-851.6,433.6c224.2,1,299.3,26.2,467.6,1.9c239.3-38.8,363.5-128.2,725.6-110.1
			c346.6,19.3,244.2-21.4,435.3-37.3c168.4-9.6,301.5,35.6,467.6,80.6c336.3,89.2,342.7-11.6,693.4,14.9
			c278.2,24.3,364.4,86.8,725.6,61.8c174.1-12.7,191.1-17.9,354.7-11.8"/>
		<path class="st1" d="M-851.6,433.6c218.8,1.2,290.1,25.1,451.5,3.9c153.1-22.9,264-73.7,451.5-102.4
			c263.8-36.7,391.1,25.5,564.4-10.7c113.5-27.3,203.5-69.1,516,7.2c134.7,33.5,216.9,58.4,322.5,62.9c126.9,2,216.7-29.4,419.2-19
			c274.3,17.1,378.5,81.5,725.6,69.3c196.5-8.1,211.9-19.7,419.2-11.1"/>
		<path class="st1" d="M-851.6,433.6c217.2,1.3,290.4,25.2,451.5,2.6c230.8-36.7,367.4-134.4,709.5-108.4
			c349.8,29,249.7,4.7,435.4-27.2c281.4-40.9,493.5,82.8,725.6,84.6c118.7-2,207.6-28.9,419.2-11.4
			c286.8,26.4,355.6,78.9,741.7,65.3c191.1-7.4,201.3-14,387-5.6"/>
		<path class="st1" d="M-851.6,433.6c215.9,1.4,290.3,25.3,451.5,1.3c150.8-25.4,254.2-76.4,435.4-103
			c258.5-34,395.7,37.8,564.4,9.9c109.4-22.7,200-79.4,516-20c134.3,26.1,216,48.6,322.5,53.8c127.4,3.1,196.2-26.3,419.2-7.4
			c309.7,29.1,339.4,77.1,774,66.9c211.8-5.9,209.7-10.2,387-1.5"/>
		<path class="st1" d="M-851.6,433.6c213.7,1.5,290.4,25.4,451.5,0c151.3-26.8,253.8-79.6,435.4-104.5
			c247.2-29.9,384.4,41.5,548.2,22.4c117.2-19,202.9-86.2,532.1-32.5c133.6,22.6,215.4,43.6,322.5,47.6
			c127.1,1.9,181-25.2,403.1-3.2c183.2,19.7,310.2,52.7,499.9,65c221.2,12.3,397.9-9.5,677.2,5.3"/>
		<path class="st1" d="M-851.6,433.6c212.7,1.6,290.4,25.6,451.5-1.3c220.9-41.2,362.4-145.2,693.4-100.4
			c318.4,46.1,252.3,34.2,435.4-10.1c288.5-62.9,495,34.4,725.6,35.7c126.7-2.1,172.8-27.2,419.2,6.5
			c175.3,25,307.9,55.7,499.9,62.1c192.8,4.6,380.3-7.7,645,7.5"/>
		<path class="st1" d="M-851.6,433.6c249.3,1.7,330.6,37.7,564.3-31.2c217.1-65.8,334-105.7,564.4-71.3
			c129,20.7,195.6,41.9,290.3,36.6c94.9-9.8,118.6-40.4,274.1-58.7c228.8-22.9,391.7,33.5,580.5,40.5c118.2,2,137.6-15.2,274.1-8.2
			c124.7,8.1,219.2,28.9,370.9,53c353.6,54.6,444.5,8.3,951.3,39.4"/>
		<path class="st1" d="M-851.6,433.6c201.9,1.3,280.4,23.5,435.4-2.6C-195.2,389-53,277.3,261,329.4
			c264.8,47.5,250.1,72.5,435.3,16.4c291.2-83.5,498.1-6.8,725.6-0.8c149.9,1.1,162.6-28.9,403.1,8.8
			c561.2,91.3,290.7,55.6,983.6,69.5c96.5,2.6,105.8,3.6,209.6,10.3"/>
		<path class="st1" d="M-851.6,433.6c201.4,1.3,280.4,23,435.4-5c222.2-45.1,362.4-159.9,677.2-98.4
			c260.7,54.6,252.7,81.3,435.3,24.3c286.8-85.4,487.2-21.4,709.5-14.2c163.8,2.6,165.7-30.5,403.1,9.7
			c716.8,125.6,383.4,27.2,1209.3,83.6"/>
		<path class="st1" d="M-851.6,433.6c197.6,1.3,280.1,22.6,435.4-7.5c159.4-34.4,254.6-97.1,435.3-115.2
			c251.3-19.4,394.7,94,564.4,81.7c110.4-14.6,207.2-90.4,516-77.5c137.3,7,223.5,22.2,338.6,20.9c142.1-4.1,152.5-29.5,387,15.9
			c589.3,118.1,342.7,22.1,1193.2,81.7"/>
		<path class="st1" d="M-851.6,433.6c199.6,1.3,280.5,22,435.4-9.9c155.3-35.5,245.7-96.4,419.2-116
			c251.4-22.3,392.6,95.2,564.4,94.8c121.5-7.5,207.2-93.2,532.1-86.4c136.3,4,222.9,17.7,338.6,15.4
			c173.5-6.5,136.2-34.8,451.5,33.6c373.9,79.7,455.9,37.1,677.2,42.3c61.8,1.9,229.9,10.1,451.5,26.3"/>
		<path class="st1" d="M-851.6,433.6c204.3,1.6,290,22.6,451.5-16.5c221-58.3,355.2-176.5,677.2-80c262,81.8,251.2,99.1,435.4,38.3
			c298.1-94.4,488.2-43.8,709.5-46.8c193.5-5.6,134.6-39.5,467.6,37.2c361.1,81.4,461.8,32.5,677.2,38.2
			c97.8,3.5,307.2,18.6,451.5,29.6"/>
		<path class="st1" d="M-851.6,433.6c198.1,1.4,281.6,20.1,435.4-16.1c223.6-57.7,360-185.4,677.2-85.1
			c238.4,79.3,257.8,118.9,435.3,57.5c312-105.8,499.4-57.2,725.6-62c180.9-6.5,144.1-38.2,435.4,32.4c382,91.4,485,37.5,693.4,40.8
			c112,3.1,435.5,29.9,467.6,32.4"/>
		<path class="st1" d="M-851.6,433.6c201.8,1.2,289.7,20.4,451.5-23.9C-248.7,365-152.9,298,19.1,289.6
			C259.9,285,397,422.4,567.3,429.5c116.5-3.1,212.1-95.5,532.1-105.2c129.1-2.7,208.6,6.4,322.5,3.1c212.5-9,127.1-40.9,467.6,43
			c346.6,83.5,464.6,22.7,677.2,28.9c93,3.7,400.9,30.2,451.5,34.3"/>
		<path class="st1" d="M-851.6,433.6c202,1.1,290,19.2,451.5-27.6c217.5-67.6,351.8-191,661.1-73.1
			c218.5,87.1,261.8,137.6,419.2,81.3c316.6-114.6,473.7-83.4,709.5-86.6c191.6-4.6,174.6-40.1,403.1,19.5
			c427,113.4,508.2,53.2,725.6,49c100.8-0.1,156.3,9,499.9,37.3"/>
		<path class="st1" d="M-851.6,433.6c193.1,0.9,280.9,17.1,435.4-26.3c226.7-69.1,359.5-205.5,677.2-74
			c217.4,93.9,262.5,147.5,419.2,90.5c344.9-126.9,498.6-86.9,741.7-97.5c227.2-12.8,124.7-41.7,467.6,48.8
			c335.8,86,466.3,13,677.2,19.6c94.9,4.2,214.8,18.9,451.5,38.9"/>
		<path class="st1" d="M-851.6,433.6c200,0.7,289.8,16.8,451.5-35.1c152.1-52.1,248.4-125.1,419.2-126.4
			c238.8,6.5,377.1,169.4,548.3,184.4c114.5,1.1,215-98.1,532.1-122.1c129.1-8.4,205.8-2.2,322.5-7.9
			c214.5-13.3,132.7-41.9,451.5,47c339.5,92.3,472.3,16,677.2,18.9c106,3.3,198.6,18,467.6,41.1"/>
		<path class="st1" d="M-851.6,433.6c198.8,0.4,289.3,15.3,451.5-39.3C-247.4,339.6-151.3,265,19.1,266.1
			C257,276.3,396.3,447.3,567.3,464.8c114.3,2.4,215.4-99,532.1-126.2c128.6-9.7,204.7-3.9,322.5-10.2
			c200.1-13.1,138.9-42.1,435.4,44.3c342.2,97.7,484.5,20.7,677.2,19c110.1,1.3,205.1,17.9,483.7,41.9"/>
		<path class="st1" d="M-851.6,433.6c315,0.1,323.7,17.1,612.7-113.7C176.6,138,332.3,445.6,567.3,473c82.3,2.7,99.6-27,274.1-80.6
			c249.8-73.4,402-50,596.6-63.4c122.1-10,140.4-26.6,258,0.2c108,27,180.3,59.1,306.4,82.3c242.5,40.4,378.3-21.8,548.2-20.3
			c110.2,3,185.7,17.9,467.6,42.3"/>
		<path class="st1" d="M-851.6,433.6c292.4-0.3,326.1,15.1,596.6-112.7c418.2-194,565.8,107.9,806.2,158.2
			c86.5,11.3,102.1-17.8,274.1-74.6c241.6-76.9,389.6-61.8,580.5-71.6c143-8.7,154.5-27.4,258-8.8c101,21.3,167.3,52.9,290.2,81.7
			c253.6,55.4,407.4-8.6,564.4-15c116.5-1.9,191.1,15.9,499.9,42.8"/>
		<path class="st1" d="M-851.6,433.6c203.2-0.5,295.8,11.5,467.6-58.3C-239.3,313.5-144,240,19.1,248
			C255.3,269.3,396,464.6,567.3,489.4c113.9,6.3,216.6-101.8,532.1-138.6c127.4-13.5,204.1-9.4,322.5-17
			c195.6-14.8,144.4-43.2,419.2,44.6c350.4,109.7,493.5,15.6,693.4,11.6c114.7,0.3,185.4,17.5,483.7,43.6"/>
		<path class="st1" d="M-851.6,433.6c192.5-1,287.1,9.8,451.5-55.9c228.9-96.5,353.7-228.9,661.1-44.8
			C475.4,465.8,526,535.2,680.2,474.5c335.1-137.5,411.2-119.4,725.6-137.6c200.5-13.4,159.1-46.5,419.2,39.9
			c343.5,112.3,478.7,30.2,677.2,14.5c121.1-6.2,194.3,14.3,516,42.3"/>
		<path class="st1" d="M-851.6,433.6c196.6-1,295.1,8.2,467.6-66.9c244.5-111.5,356.3-224.8,677.2-12.8
			c290.6,196.2,277.4,170,467.6,93.8c332.1-129.8,494.6-88.8,725.6-115.9c202.8-26.1,206.7,15.5,435.4,78.5
			c306.8,79.4,441.8-30,677.2-17.7c100.2,6.6,179.7,20.4,419.2,40.9"/>
		<path class="st1" d="M-851.6,433.6c153.1-1.3,226.6,2.9,338.6-24.4c303.8-82,410.6-326.1,806.2-54.6
			C636,594.8,554.5,513.6,889.8,407.2c242.6-73.9,390.9-51.4,580.5-71.1c103-12.1,128.9-24.8,258,15.4
			c110.7,36.1,184.4,69.1,306.4,86.1c242.4,28.4,344.5-51.3,548.2-44.8c110.7,5.4,162.1,17.9,435.4,40.9"/>
		<path class="st1" d="M-851.6,433.6c345.1-3.8,345-13.9,612.7-150.6c205.9-100.7,334-65.7,516,61c347.2,247,267.3,189,580.5,78.7
			c244.2-83,389.4-66.2,580.5-81.2c125.4-11.3,142.1-28.9,258,3.1c110.1,33,180.7,69.5,306.4,92.5c237.7,38.2,375-41.6,548.2-44.2
			c111.3,0.9,162.1,15.1,467.6,40.6"/>
		<path class="st1" d="M-851.6,433.6c151.8-1.6,227.7,0.6,338.6-29.3c304.8-90.2,409.5-340.7,806.2-48.2
			c331.2,249.1,263.7,176.3,580.5,66c245.2-82,390.4-62.7,580.5-79.8c113.5-11.7,134.9-27.7,258,10.1
			c110.8,36.2,183.1,71.9,306.4,91.7c238.1,32.7,360.6-50.9,548.2-50.2c109.5,2.7,153.7,15.2,451.5,39.6"/>
		<path class="st1" d="M-851.6,433.6c196.8-2.7,293.4,1.7,467.6-83.4c232.5-118.2,351.4-235.6,661.1-5.4
			C512.5,523.6,543,565.6,696.3,498.6c338.6-150.1,419.9-131.2,725.6-151.6c205.1-15.8,142.2-44.8,419.2,54.5
			c331.4,115.7,485.1,10.5,677.2-4.9c114.6-5.8,169.3,10.8,499.9,37.1"/>
		<path class="st1" d="M-851.6,433.6c196.9-3.1,292.6,0.6,467.6-86.7c238.4-123.4,354-234.6,661.1-1.2
			c236,182.9,266.9,224.1,419.2,156.6C1019.6,357,1103.7,366,1405.8,349.1c224.9-14.5,149.6-48.8,435.4,55.5
			c332.1,118.1,481.4,11,677.2-5.9c112.4-6.3,163.5,9.1,499.9,34.9"/>
		<path class="st1" d="M-851.6,433.6c185.9-3.3,284.4-0.4,451.5-81.8c229.1-116.3,351-251.7,661.1-17.7
			C476.8,501.7,529.2,578,680.2,513.4c333.3-149.5,383.8-144.9,725.6-163.2c225.9-13.9,149.5-48.7,435.4,57.6
			c331.4,120,482.3,11.1,677.2-6.8c109.5-6.8,155.2,7.3,499.9,32.7"/>
		<path class="st1" d="M-851.6,433.6c191.2-3.8,285.8-2.6,451.5-84.9c241.9-125.2,356.4-255.6,677.2-1.2
			c234,189,266.7,231.7,419.2,162.4c336.6-155.7,408.1-140.9,725.6-159.6c142.8-9.8,154.1-31.1,274.1,6.2
			c60.3,20.3,89,33.8,161.2,60.4c324.8,115.7,476.5-1.3,677.2-14.8c105.4-4.3,146.7,7.9,483.7,31.5"/>
		<path class="st1" d="M-851.6,433.6c342.4-7.6,346.2-34.5,612.7-179c207.4-106.6,338.1-50.2,516,93.7
			c338.2,278.6,274.9,216,580.5,93.9c247.1-95.7,388.4-79.3,580.5-91.9c131.6-10.2,146.1-30.1,274.1,13.8
			c106.9,38.9,174.5,74.8,290.2,97.5c235.5,40.2,373.7-50.2,548.2-58.2c101.7-2.2,138,8.1,467.6,30.2"/>
		<path class="st1" d="M-851.6,433.6c326.8-7.5,350.2-34.4,596.6-173.6C139.3,45.5,309.2,466.9,551.2,543.9
			c85,18.5,103.7-15.2,290.2-93.6c236-96.2,349-86.6,580.5-98.8c144.3-9,154.3-30.5,274.1,8.4c105.3,37,172.7,75.4,290.2,101.8
			c235.5,47.2,384.6-42.6,548.2-55.4c103.7-5.3,144.4,6,483.7,27.2"/>
		<path class="st1" d="M-851.6,433.6c323-7.7,346.5-34.5,596.6-175.6c208.4-113.1,337.8-63.4,516,80.3
			c350.4,289.9,285.2,238.8,580.5,112.1c223.9-93.2,335.7-90,564.4-99.3c158.5-7.6,163.8-29.5,274.1,3.8
			c107.4,35.8,169.2,74.7,290.2,105.7c244.7,56.6,395.4-37.8,564.4-51.7c103.8-5.7,144.4,5.4,483.7,24.8"/>
		<path class="st1" d="M-851.6,433.6c330.8-8.3,353.9-40.9,596.6-177.6c207.2-112.1,336.5-61.7,516,84.1
			c355.4,296.2,285.8,235.5,596.6,103.5c228.8-94.3,345.6-85.1,564.3-94.5c144.4-7.6,154.6-29.3,274.1,11.5
			c106.4,39.1,172.6,78.3,290.2,106.2c243.8,51.4,385.6-45.9,564.4-56.5c101.5-3.5,137.5,6.3,467.6,23.4"/>
		<path class="st1" d="M-851.6,433.6c183.6-4.8,276.4-7.2,435.4-87.3C-175,219.2-61.4,77.8,261,341.9
			c244,204.7,277.9,254.6,435.3,178.1c339.1-168.5,404.7-159.9,725.6-172.3c145.2-6.9,154.5-28.7,274.1,13c61.2,23,88,37,161.2,66.7
			c324.2,127,475.9,4.2,677.2-14c104-6.6,143.3,4.2,483.7,20"/>
		<path class="st1" d="M-851.6,433.6c173.5-4.4,267.9-7.3,419.2-80.8c233-118.4,353.9-274.7,661.1-35.3
			c209.2,168.6,284.4,283.3,435.3,219.4c104.8-49.1,232.5-127.4,419.2-166c120.7-22.8,199.8-20.3,322.5-23.6
			c230.9-7.8,149-46.1,435.4,75.4c328.8,135.8,480.4,19.4,677.2-5.1c106.7-10.1,149.1,1.7,499.9,16.1"/>
		<path class="st1" d="M-851.6,433.6c173.7-4.5,267.2-7.6,419.2-81.7c231.5-118.2,352.2-273.7,661.1-31.9
			c190.7,154.2,280.1,274.9,419.2,224.4c179.2-77.1,298.6-191.1,677.2-198.2c309.1-4.9,239.8-45.8,483.7,62.9
			c328.5,144.7,435.8,60.9,677.2,15.2c113.9-18,158.7-4,532.1,9.3"/>
		<path class="st1" d="M-851.6,433.6c173-4.4,266.8-7.6,419.2-81.9C-194,230.3-78.2,76,244.8,336.4C445.6,502,519.8,600,664.1,536.9
			c116.8-56.4,243.3-138.1,435.4-176.1c114.2-20.5,189.8-17.9,306.4-19.8c231.7-5.3,149-44.4,435.4,81.6c328,140.6,482,24,677.2-1
			c108.3-10.7,149.7,1.6,499.9,12.1"/>
		<path class="st1" d="M-851.6,433.6c173.8-4.3,267-8,419.2-82C-192.9,230-79.3,79.4,244.8,339.9
			c201.3,165.4,275.5,260.4,419.2,196.4c115.4-56.5,244.1-141.1,435.4-179.8c114-20.9,190.1-18.2,306.4-19.4
			c230.5-3.9,149-43.5,435.4,84.8c328.1,143.2,481.5,26.7,677.2,1.4c111.1-11.1,140.3,1.7,499.9,10.3"/>
		<path class="st1" d="M-851.6,433.6c167.5-3.7,259.7-8.4,403.1-74.3c240.4-116.6,355.7-279,677.2-28.8
			c208.4,167,285.3,273.3,435.3,205.4c115.8-57.6,245.1-144.2,435.4-183.5c113.9-21.3,189.9-18.4,306.4-19
			c230.8-2.6,149.2-42.5,435.4,87.9c328.5,146,480,29.6,677.2,3.9c112.2-11.3,136.9,1.9,499.9,8.4"/>
		<path class="st1" d="M-851.6,433.5c167.2-3.6,259.3-8.4,403.1-74.4C-206.2,241.8-93.6,83.7,228.7,334
			c208,166.2,285.5,270.3,435.3,201.3c258.9-130.8,341.2-206.2,677.2-206c287.9,1.1,225.3-39.8,467.6,76.2
			c330.8,156.4,448.1,70.2,677.2,26.2c118.6-19.2,159.4-2.8,532.1,1.9"/>
		<path class="st1" d="M-851.6,433.5c284.2-5.7,337.5-34.1,564.3-161.4C-82,160,41.4,193.8,228.7,338.4
			c131.1,104,205.5,181.5,306.3,213.8c89,20.5,113.1-12.2,290.3-105.6c193.7-100.1,311-123.3,516-122.3
			c235.6,1.9,223.8-19.5,322.5,13.7c104.3,39.2,168.2,85.2,290.2,126.7c238.4,74.8,393.3-9.5,548.2-34.4
			c116.9-15.2,150.7,0.8,516,3.4"/>
		<path class="st1" d="M-851.6,433.5c284.3-5,336.8-33.4,564.3-158.9c170.4-91.3,291.8-102,516,69
			c127.3,99.7,194.1,167.1,290.2,203.6c98.2,29.6,124.7-6.2,306.4-104.1c194.8-102.9,312.4-126.8,516-125
			c236.5,3.2,224.3-17.9,322.5,15.9c105.5,40.4,167.5,86.1,290.2,128.5c238.6,76.2,394.7-7.7,548.2-32c119.8-15.2,157.5,2.5,516,3"
			/>
		<path class="st1" d="M-851.6,433.6c166.7-2.6,258.6-7.2,403.1-71.5C-204.9,248.1-99,102,228.7,349
			c189.5,146.4,281,247.8,419.2,189.5c208.8-101.3,319-231.2,693.4-226.3c305.5,5.7,220.5-35.8,483.7,93.7
			c332.3,160.4,478.4,55.9,677.2,25.2c123.6-15.3,157.8,3.9,516,2.5"/>
		<path class="st1" d="M-851.6,433.6c287.3-3.9,337-33.2,564.3-153.7c167.6-86.1,287.4-95.8,516,74.5
			c365.6,278.7,318.5,235.5,612.7,73.2c223.1-120.1,337.4-125.3,564.4-119.8c164.3,3.2,165.7-17.9,274.1,25.2
			c104.8,44.9,171.7,91.9,290.2,131c237.9,72.1,392.3-15.5,548.2-34.3c126.9-11.6,148.2,7.3,499.9,4.1"/>
		<path class="st1" d="M-851.6,433.6c166.8-2,258.1-6.2,403.1-69c235.8-107.4,342.8-245.2,661.1-16.8
			C410,493.1,504.4,598.5,647.9,535.2c220.1-110.5,325.6-243,693.4-235.1c290.3,7.8,230.8-28.8,467.6,92.2
			c325.5,164,437.4,84.8,677.2,42.1c130.9-19.4,175.4,4.7,532.1-0.7"/>
		<path class="st1" d="M-851.6,433.6c166.4-1.5,257.6-5.4,403.1-67.3c169-75.6,245.6-150.2,403.1-132.9
			c285.5,45.1,460.7,387.2,677.2,307.3c186.1-83.8,319-253.8,693.3-247.2c285.4,7.3,261.3-18.3,435.4,70.5
			c144.7,74.5,248.3,129.1,419.2,124.8c119.7-6,200.4-34.1,290.2-52.1c141.2-24.5,179.4,4.5,548.2-2.9"/>
		<path class="st1" d="M-851.6,433.6c173.3-1.3,264.8-4.5,419.2-72c252.6-115,340.4-221.7,677.2,22.3
			c225.7,166.2,290.3,211.5,435.3,129.9c148.9-87.6,265.7-177,451.5-214.3c107.6-19,180.7-13.3,290.2-9.2
			c148.3,4.7,154.8-15.8,274.1,37.4c62.6,29.5,90.7,46.6,161.2,81c322.1,152.2,478.6,33.3,677.2,18.5
			c133.2-6.4,164.4,14.2,483.7,6.5"/>
		<path class="st1" d="M-851.6,433.6c173.3-0.7,264.5-3.4,419.2-69.5c257.6-114.6,340.1-212.8,677.2,26.2
			c224.4,161,290.2,204,435.3,121.1c150.8-90,266.3-180.6,451.5-218.6c114.4-20.7,189.7-12.5,306.4-8.1
			c133.6,3.9,144.2-15.4,274.1,46.2c68.9,33.9,92.1,48.5,161.2,81.3c317.7,144.9,467.1,21.6,677.2,13.2
			c147.4-2.6,157.4,17.4,467.6,8.3"/>
		<path class="st1" d="M-851.6,433.6c173-0.1,264-2.3,419.2-67C-173,254-94.4,161.3,244.8,396.7C447,538.3,527,592,664.1,518.4
			c264.8-153.4,352.2-259.1,693.3-243.8c316.3,16.2,185.6-28.1,499.9,125.9c321.9,152.9,479.9,36,677.2,24.4
			c139.6-4.5,177.3,19.1,483.7,8.8"/>
		<path class="st1" d="M-851.6,433.6c172.8,0.5,263.5-1.2,419.2-64.6c163.8-69.4,249.5-138.7,419.2-99.5
			c113.1,30.9,198,92.7,306.4,166.5c194.7,131.6,262.6,143.7,387,70.6c145.2-89.1,258.1-181,435.4-223.8
			c112.9-24.2,190.5-17.8,306.4-11.2c148.8,7.6,154.4-12.1,274.1,42.7c72.3,34.7,100.2,52.9,177.4,89.7
			c317.7,145.7,468,24.5,677.2,19.3c150.8-0.3,169.8,21.7,467.6,10.4"/>
		<path class="st1" d="M-851.6,433.6c172.4,1.1,262.8,0.1,419.2-61.8c163.4-67.3,248.9-134.7,419.2-94.3
			c110.4,30.7,192.3,88.5,306.4,164.2c194,127,263.2,136.4,387,62.7C952.8,335,1038.8,243,1373.5,263
			c298.7,18.8,167.2-25.8,483.7,128.9c321.5,152.4,481.9,37.8,677.2,29.8c149.5-2.2,182.5,24.6,483.7,12"/>
		<path class="st1" d="M-851.6,433.6c171,1.9,261.6,1.8,419.2-58.8c163.5-65.4,248.5-130.4,419.2-89c278,78.6,441.4,358.4,677.2,226
			c260.6-156.9,353.3-275.1,693.3-255.4c307.9,19.8,197.8-19,483.7,122.9c326.3,157.7,488.3,51.1,677.2,40
			c147.7-4.3,193.8,28.1,499.9,14.4"/>
		<path class="st1" d="M-851.6,433.6c176.7,2.5,265.8,3.7,435.4-62C-258.2,308-170.2,249.2,3,298.9
			c111.8,36.3,188.4,92.2,306.3,164.2c208.5,124.4,275.4,97.5,387,26.6c306.3-200.2,366.7-260.6,725.6-234.1
			c149,10.3,153.2-8.7,274.1,46.4c176.5,84.1,296.7,175,548.2,153.8c139.3-14.1,186.9-38.1,290.2-39.9
			c155,1.6,192.4,31.6,483.7,17.7"/>
		<path class="st1" d="M-851.6,433.6c179.9,3.3,267.1,4.4,435.4-58.8C-258.2,313.3-170.8,256.8,3,307.3
			c111.8,36.6,186.7,90.8,306.3,161.2c206,118.1,274.5,91.1,387,18.8c306.2-202.3,366.4-265.4,725.6-237
			c149.7,11.2,152.9-7.5,274.1,47.6c176.3,83.6,296.8,172.7,548.2,152.5c140.5-13.6,187.3-36.8,290.2-37.3
			c157.6,3.5,197.9,35.4,483.7,20.5"/>
		<path class="st1" d="M-851.6,433.6c174.7,4,264.2,6.6,435.4-55.5c159.6-60.2,250.8-118.1,435.3-57
			c106.3,38.6,175,87.6,290.2,152.9c204.2,112.4,274.9,83.9,387,11.1c150.2-100.3,269.4-201,451.5-238
			c107.7-18.8,181.1-9.4,290.2-0.6c134.8,9.9,140.9-7.8,274.1,55.1c196,95.3,304.4,164.5,548.2,142c145.8-15.6,182-36.5,290.2-32.7
			c154.6,8.9,203.1,37.4,467.6,22.8"/>
		<path class="st1" d="M-851.6,433.6c174.9,4.8,264.7,7.6,435.4-52.4C-261,324.6-178.7,275.4-13.2,319
			C205,384.1,363.2,562.1,551.2,547.5c160.5-24.7,310.3-238.4,580.5-301.6c106.9-21.9,180.8-14.2,290.2-4.4
			c149.4,12.9,151.6-5.4,274.1,49.4c181.6,84.5,296.5,166.2,548.2,147.8c133.4-11.8,182.2-31.5,274.1-32.4
			c161.8,3.5,208.1,44.2,499.9,27.4"/>
		<path class="st1" d="M-851.6,433.6c177,5.6,264.5,8.7,435.4-49.4C-258.2,328.5-173.1,278.4,3,331.5
			c113.3,37.9,187.7,90,306.3,152.3c202.4,102.8,276.4,70.3,387-2.5c151.9-102.9,269.7-204.8,451.5-242
			c107.6-18.9,181.1-8.8,290.2,1.2c135.4,11.4,139.3-5.8,274.1,55.6c199.8,93.5,304.8,154.9,548.2,134.2
			c145.1-14.3,185-33.5,290.2-26.7c157.2,13.7,211.4,45.4,467.6,30.3"/>
		<path class="st1" d="M-851.6,433.6c175.5,6.3,263.5,10.2,435.4-46.3C-260.1,334-173.7,285.4,3,339.2
			c113.9,38.3,187.1,89.1,306.3,149.4c201.5,98.1,277.2,63.7,387-9c152.2-103.7,269.8-206.5,451.5-243.6
			c107.6-18.8,181.1-8.5,290.2,2.1c136.2,12.2,138.3-5,274.1,55.6c205.5,94,308.3,152.1,564.4,127.9
			c152.9-16.1,179.5-31.9,290.2-20.5c154.8,18.9,214.9,47.3,451.5,32.7"/>
		<path class="st1" d="M-851.6,433.6c176.9,7.1,264,11.1,435.4-43.3c157.4-51.8,241.8-98,419.2-43.5
			c114.1,38.6,190.2,90.1,306.3,146.5c199.9,93.2,277.5,57.4,387-15.6c303.4-207.8,364.8-281.5,725.6-243.9
			c149.6,15.2,148.4-2.7,274.1,50.2c205.3,89.5,306.8,152.2,564.4,131.8c161.9-14.7,190.7-32.3,306.4-18.6
			c153,21,219,51.3,451.5,36.4"/>
		<path class="st1" d="M-851.6,433.6c176.7,7.9,263.4,12.3,435.4-40.3c156-49.6,241-94.1,419.2-38.8
			c114.1,38.8,190.3,89.5,306.3,143.5c197.4,87.9,276.8,51.7,387-22.1c273.6-188.5,360.7-283.8,693.4-248.2
			c187.3,20.7,177.7,3.1,290.2,47.4c181.6,74.9,296,152.1,564.4,134.8c159.5-12.2,198.7-30.6,306.4-18.7
			c159.7,21.4,223.9,58.4,467.6,42.4"/>
		<path class="st1" d="M-851.6,433.6c176.3,8.5,262.8,13.3,435.4-37.8C-259,347.4-175.4,305.2,3,361
			c114.7,39.1,190.7,89.1,306.3,140.9c196,83.7,276.9,46.4,387-27.3c273.2-188.4,360.6-284.3,693.4-247
			c296.2,34,127.5-13.6,451.5,114.2c325.5,124.2,502.2,24.2,693.4,42.9c160.9,20.3,228.8,65.7,483.7,49"/>
		<path class="st1" d="M-851.6,433.6c176.8,9,262.6,13.9,435.4-35.8c156.7-46.9,240.2-87.6,419.2-31.3
			c115,39.3,191.1,88.6,306.3,138.4c194.9,80,277.1,41.8,387-31.7C846.5,370,958.1,271.1,1131.7,231.4
			c107.3-21.2,181.7-11.5,290.2,1.4c150,17.4,143.7-0.5,274.1,49.2c205.6,80.8,300.8,128,548.2,112c174.4-12.9,207.5-28.8,322.5-9.6
			c155.4,29,226.1,63.7,451.5,49.3"/>
		<path class="st1" d="M-851.6,433.6c176.2,9.5,261.7,14.8,435.4-33.8C-260.9,354.7-176.9,315.2,3,372
			c115.6,39.6,190.8,87.8,306.3,135.9c193.5,76.3,276.5,37.7,387-36c150.5-103.2,262-201.5,435.4-240.4
			c107.2-20.7,181.4-10.6,290.2,2.7c150.1,18,141.4,0,274.1,48.3c216.1,80.9,306.4,120.8,564.4,101.8
			c168.1-13.4,200.1-24.5,306.4-4.9c158.1,32.2,227.6,68,451.5,54.1"/>
		<path class="st1" d="M-851.6,433.6c176.8,10,261.3,15.4,435.4-31.8c154.4-43.5,238.6-81.6,419.2-24.3
			C118.9,417.2,194.8,465,309.3,511c190.5,72.1,274.7,34.5,387-40.3c151-103.2,269.9-207.8,451.5-242c107.8-17,181.7-4.3,290.2,9.2
			c133,15.6,126.3-0.3,258,45.4c79,28.1,109.1,40.5,177.4,60.8c331,93.1,473.2-21.4,725.6,38c169.8,41.8,230.7,62.9,419.2,51.5"/>
		<path class="st1" d="M-851.6,433.6c180.7,10.7,262.2,15.7,435.4-29.8c162.9-44.5,245.3-80.6,435.3-15.3
			c119.3,43.6,191.5,89.7,306.4,131.3c177.7,59.9,261,24.5,387-61.4C866.6,351.1,983.7,254,1163.9,226.5
			c108.6-13.3,180.7,1.6,290.2,14.9c120.3,13.3,113.4-0.8,258,48c67.7,23.2,101.8,35.2,161.2,51.5c326.9,84.4,475.9-26,725.6,37
			c168.9,44.4,231.3,66.8,419.2,55.7"/>
		<path class="st1" d="M-851.6,433.6c180.8,11,261.2,16.1,435.4-28.8c163.5-43.7,245.1-78,435.3-12.7c117,42.6,194,89.7,306.4,129
			c184.2,59.7,269.5,15.5,387-63.8c153.1-105.4,271.2-201.7,451.5-227.9c108.7-12.5,180.2,2.8,290.2,16.6
			c141.9,16.1,97-4.9,306.4,61.1c432.7,134,555.7-12.6,854.6,70.8c163.1,46.8,230.4,65.4,403.1,55.7"/>
		<path class="st1" d="M-851.6,433.6c181.1,11.1,260.7,15.9,435.4-28.5C-262.3,364.7-179,330.9,3,389
			c278.3,95.4,420.8,254.7,693.3,78c146.8-97.6,261.7-194.1,435.4-228.1c107.4-17.7,182.3-5.8,290.2,9.3
			c142.2,19.2,129.1,2.8,258,38.2c251.7,71,302,85.2,612.7,62.2c130.1-9.3,178.6-12.8,274.1,11.2c158.7,43,233.8,85.2,451.5,73.9"/>
		<path class="st1" d="M-851.6,433.6c181.4,11.2,260.3,15.7,435.4-28.1c153.9-39.8,236.6-72.4,419.2-14.1
			c277.6,94.9,419.7,249.3,693.3,74.5c148.8-97.5,262.1-190.6,435.4-222.6c107.6-16.6,182.8-4.1,290.2,11.3
			c140.7,19.4,124.1,2.8,258,36.4c286.5,74,330.8,68.8,628.9,47.9c367.1-24.1,347.3,112.1,709.5,94.7"/>
		<path class="st1" d="M-851.6,433.6c181.9,11.3,260.1,15.5,435.4-27.8C-263.7,367-180.4,335.2,3,393.7
			c281.3,95.9,419.4,243.5,693.3,70.9c148.9-96.1,262.1-187,435.4-217.1c107.1-15.4,181.9-2.6,290.2,13.3
			c144.9,20.4,115.4,2.3,258,34.7c315.9,72.9,354.1,51.7,645,33.9c335.7-18.2,340.3,119.8,693.4,104.2"/>
		<path class="st1" d="M-851.6,433.6c182.1,11.4,259.1,15.4,435.4-27.5c156-39.1,236.5-68.4,419.2-10.1
			c277.3,94.4,417.5,238.5,693.3,67.4c309.9-196.9,370.9-249.8,725.6-196.3c174.7,25.1,53.5-7.4,322.5,46
			c416,80.2,572.4-53.1,854.6,41.4c165.6,57.1,235,86.4,419.2,79"/>
		<path class="st1" d="M-851.6,433.6c181.5,11.1,258.3,14.6,435.4-28.3c151.4-37.7,235-67.5,419.2-9C279.6,490,419.1,630,696.3,462
			c148.3-91.9,262.2-177.8,435.4-203.4c115-13.7,192,3.3,306.4,20c76.5,10.4,79.8,7.1,145.1,13.2c124.1,14.6,229.9,50.6,435.4,44.2
			c172.1-7.2,331.6-38.3,467.6-17.8c169.8,32.3,261.3,125,532.1,115.5"/>
		<path class="st1" d="M-851.6,433.6c176.8,10.4,255.3,14,435.4-29.8c163.1-41.1,245.1-66.9,435.3-3
			c117.2,41.4,194.8,84.5,306.4,116.9c173.1,46,260.7,8.9,387-66.9c152.5-93.2,272.5-173.3,451.5-186.8
			c110.3-5.4,180.4,12.5,290.2,27.5c73.5,8.9,75.7,5,145.1,12c127.6,15.2,223,40,419.2,28.1c168.3-11.7,328.5-42.9,467.6-19.8
			c169.1,34.7,263.5,129.7,532.1,121.9"/>
		<path class="st1" d="M-851.6,433.6C-325.8,463.8-326.7,291,3,394.4c277.4,92.4,412.8,224.5,693.3,64.5
			c341.3-198.2,401.2-211.6,725.6-161.4c34.8,5.1,331.7,34.2,419.2,36.8c187.1,3.2,296.9-27.2,467.6-37.1
			c333.8-15.2,361,144.5,709.5,136.4"/>
		<path class="st1" d="M-851.6,433.6c513.8,28.3,519.9-137.8,838.5-45.2c264.3,82.3,418.3,225.8,693.3,77.9
			c313.1-172.8,374.8-217.4,725.6-160.6c90,14.1,335.9,30.5,419.2,30.6c179.6-1.8,288.1-32,451.5-45.2
			c377.9-26,367.2,149.1,741.7,142.6"/>
		<path class="st1" d="M-851.6,433.6c507.5,26.8,519.2-138.4,838.5-46.2c118.8,36.7,189,75.9,306.4,112.9
			c378.6,111.7,455-178,838.5-208.9c116.3-6.4,191.5,12.6,306.4,29.7c622.4,84.8,802.4-136.2,1161,10
			c160.6,67,238.5,104.6,419.2,102.5"/>
		<path class="st1" d="M-851.6,433.6c503.1,24.7,516.3-141.1,838.5-48.9c264.7,81,414.3,216.7,693.3,77.4
			c329.3-168,391-188.1,725.6-133.5c411.4,64.5,643-37.7,886.8-54.4c339.8-17.7,370.8,161.2,725.6,159.5"/>
		<path class="st1" d="M-851.6,433.6C-356,456.3-338.1,289.2-13.2,381c266.5,80.4,411.8,212.2,693.3,78.6
			c329.2-159.2,391.5-171.8,725.6-117.7c404.3,62.5,639.7-62.3,903-75.7c314.7-10,368.2,166.8,709.5,167.4"/>
		<path class="st1" d="M-851.6,433.6c492.9,20.4,508.8-148.2,838.5-56.3c124.3,37,201.3,78.5,322.5,112.7
			c203.3,52.9,292.3,3.2,435.4-62.6C1064.6,282,1158,320.2,1438,359.9c377.7,47.9,598.2-87.4,870.7-100.8
			c309.4-8.8,370.8,171.7,709.5,174.6"/>
		<path class="st1" d="M-851.6,433.6c474.4,17.6,505.9-145.1,822.3-64.5c270.1,74.3,414.5,210.6,709.5,85.4
			c319.1-137.7,400.2-139.8,709.5-88.7C1751,423.4,1974,296,2228.1,259.1c387.2-49.5,408.2,168.7,790.1,174.6"/>
		<path class="st1" d="M-851.6,433.6c313.2,10.3,382-46.2,564.3-81.4c225.6-37.8,370.9,61.4,580.5,122.6
			c253.7,69.5,331.5-11.5,548.2-83.9c226.7-72.2,342.1-44.4,564.4-9.2C1872.2,451,2142,157.2,2502.2,270
			c165.4,57.8,274.9,158.3,516,163.6"/>
		<path class="st1" d="M-851.6,433.6c306.8,9,383-50.6,564.3-85.8c224.4-37.6,370.4,59.9,580.5,120.4
			c253.6,68.6,328.5-9.4,548.2-74.3c243-68,368.3-27.1,580.5,3.2c448.2,58.2,723.3-259.7,1096.5-125.8
			c163.3,63.7,271.6,155.6,499.9,162.1"/>
		<path class="st1" d="M-851.6,433.6c300.8,7.2,385.6-55.8,564.3-90.5c222.9-37.5,369.4,58,580.5,118.1
			c254.3,68,327.4-7.5,548.2-63.8c229.3-54.9,348.5-20.8,564.4,10.8c452.3,61.3,715.2-273,1096.5-146.3
			c165.4,60.7,280.7,163.5,516,171.7"/>
		<path class="st1" d="M-851.6,433.6c282,5.3,375.6-54.4,548.2-92.1c223.4-43.6,367.7,44.9,580.5,108.1
			c253.7,71.3,331.6,6.6,532.1-41.6c235.5-53.6,357.7-21.7,580.5,11.4c471.4,65.9,714.7-296.9,1112.6-161.2
			c164.5,61.7,283.7,165.9,516,175.5"/>
		<path class="st1" d="M-851.6,433.6c277.2,3.7,377-59.2,548.2-96.8C-88.5,294.6,54,374.7,261,437.8
			c265.8,77.8,340.8,13.7,548.2-27.8c234-43.8,356.4-9.3,580.5,22.7c468,62.3,705.2-321,1112.6-178.4
			c163.5,62.7,287,168.3,516,179.3"/>
		<path class="st1" d="M-851.6,433.6c284.8,2.3,388.8-70.1,564.3-104.8C-75.5,293,71.8,376.3,277.1,435.5
			c256.7,70.3,332.7,8.5,532.1-23.4c235.6-34.5,367.2,4.8,580.5,34c461.8,58.3,686.4-334,1096.5-201.4
			c167,59.9,297.4,176.2,532.1,188.9"/>
		<path class="st1" d="M-851.6,433.6c417.9,1.3,482.2-175.3,822.3-99.3c277.5,66.9,379.1,171.2,709.5,101.5
			c316.7-64.6,494.5-2.8,725.6,23.7c368.6,37.3,538.2-204.3,854.6-242.8c313.3-28.8,420,196.8,757.8,216.9"/>
		<path class="st1" d="M-851.6,433.6c261.4-0.6,379.8-73.8,548.2-111.5c210.3-41.7,360,34.6,564.4,94.3c270.4,76,343,17.4,548.2,1.5
			c240.1-15.6,403.5,32.7,596.6,52.1c451.1,39.2,667.8-381.9,1096.5-223.7c161.3,64.4,297.8,173.3,516,187.3"/>
		<path class="st1" d="M-851.6,433.6c400.9-3,474.8-184.5,822.3-110.3c117.3,27,201.7,62.5,322.5,94.5
			c195.9,49.3,287.1,26.8,403.1,11.7c294.8-34.6,514.2,40.2,741.7,53.1c354.2,13.3,531.2-256.5,854.6-274.5
			c279.4-6.5,416,204.1,725.6,225.5"/>
		<path class="st1" d="M-851.6,433.6c390.2-4.9,472.8-188.7,822.3-115.8c116.5,26.2,201.8,61.1,322.5,92.6
			c196.7,49.1,287.4,28.4,403.1,17.5c284.5-22.6,523.2,59.6,757.9,65c340.5,0.9,518.7-271.2,838.5-287.9
			c275.6-5.4,420.8,205.9,725.6,228.5"/>
		<path class="st1" d="M-851.6,433.6c380.2-6.7,469.1-193.2,822.3-121.3c117.6,25.8,198.7,58.7,322.5,90.8
			c207.9,51.5,299.3,27.7,419.2,22.7c266.9-6.6,520.1,79.6,757.8,76.9c332.6-11.1,514.8-295.8,838.5-300.8
			c258.8,4.7,418.8,208.9,709.5,231.8"/>
		<path class="st1" d="M-851.6,433.6c373.8-8.3,464.1-197.4,822.3-126.2c117.1,25.2,197.6,57,322.5,89.1
			c198,48.7,287.7,32,403.1,29.6c251.6-1,515.7,89.5,774,82.1c329.8-16.2,504.3-293.2,822.3-307.3
			c268.3-2.8,431.5,208.6,725.6,232.7"/>
		<path class="st1" d="M-851.6,433.6c365.3-9.6,460.2-201.2,822.3-130.7c116.2,24.5,197.3,55.6,322.5,87.5
			c198.9,48.7,288.8,34.2,403.1,36c231.2,7.7,479,94.8,757.9,86.8c347.8-16.4,514.5-300,838.5-312.6
			c265.1-1.3,437.9,208.8,725.6,233.1"/>
		<path class="st1" d="M-851.6,433.6c172-5.2,278.4-51.9,435.4-106.8c290.1-99.3,428.5-11,725.6,61.3c209,48.6,289.7,29.5,419.2,41
			c154.3,16.3,291.7,57.3,483.7,79.6c388.9,41.9,476.8-41,709.5-178.3c272.9-158.8,419.2-164.5,645-60.9
			c146.2,68.7,286.9,149.7,451.5,164"/>
		<path class="st1" d="M-851.6,433.6c352.1-12.1,450.4-209.2,822.3-139.8c119.7,24.1,207.5,56.3,338.6,88.1
			c199.7,46.3,284.7,33.8,403.1,46.6c210.5,26.6,415.6,111.2,725.6,94.6c161.2-11,225.1-37.2,387-134.9
			c148.9-90.7,273.8-171.7,435.4-187c282.4-17.3,460.6,205.9,757.8,232.5"/>
		<path class="st1" d="M-851.6,433.6c347.3-13.3,444.8-213.1,822.3-144.3c120.1,23.6,202.4,53.6,338.6,86.4
			c214.3,49.6,286.3,34.4,419.2,56.2c210.9,38.2,404.3,122.7,725.6,94.4c188.1-19.3,230.5-53.2,451.5-188
			c123.6-74.5,239.1-135.9,387-139c255.6,3.2,456.1,209.5,725.6,234.3"/>
		<path class="st1" d="M-851.6,433.6c344-14.1,438.6-216.2,822.3-147.4c113.2,21.9,194.2,49.6,322.5,81.4
			c214.6,51.6,293.4,42,419.2,64.4c212.7,42,383.2,129.6,725.6,95.7c192.7-21.3,232.5-47.3,451.5-181.5
			c123.8-74.8,239.3-138.1,387-145.1c263.9-3.7,470.7,207.5,741.7,232.6"/>
		<path class="st1" d="M-851.6,433.6c166.9-7.2,280.5-64.7,435.4-121.3c275.7-97.7,437.9-11.8,741.7,59.2
			C544.4,421,605,406.7,760.8,447c252.3,67.8,385.2,121.2,709.5,74.5c197.7-30.2,221.5-62.2,451.5-196.9
			c262.8-151.1,406.9-153.8,645-50.9c148.1,65.4,302.1,146.2,451.5,160"/>
		<path class="st1" d="M-851.6,433.6c331.7-15.1,429.7-221,822.3-152.7c117.1,22,199,49.4,338.6,83.1
			c222.8,52.3,290.5,43.1,435.4,83.1c276.1,79.8,381.6,126.4,709.5,74.6c193-31.9,207-45.7,435.4-180.6
			c124.4-72.7,238.9-131.6,387-136c262.4,0.7,480.4,204.4,741.7,228.5"/>
		<path class="st1" d="M-851.6,433.6c232.7-11.1,385.7-136.4,580.5-165.9c200.5-23.8,372.7,44.7,612.7,100
			c150.6,33.8,224.3,40.1,322.5,61.5c262.7,62.2,356.9,172.4,822.3,84.3c280.3-54,352.3-177.8,596.6-269.8
			c378.8-132.8,603.3,159.1,935.2,189.8"/>
		<path class="st1" d="M-851.6,433.6c163.2-8.2,277.9-71.5,435.4-130.2c262.5-94.3,436-14.1,757.9,60.7
			c340.1,77.4,189.2,18.8,516,131.4c193.1,65,343,93.3,725.6-6.1c155.2-45.4,271.1-148.5,451.5-227c290.9-120,442-15.4,725.6,98.2
			c81.3,32,169.5,64.8,258,73"/>
		<path class="st1" d="M-851.6,433.6c162.4-8.3,276.9-72.9,435.4-131.9c259.7-93,434-14,774,64.9c473.9,107.9,227.9,43.3,516,142.4
			c139.1,46,241,60.3,387,40.8c499.5-74.6,488.5-170.2,774-288.1c286.9-112.1,439-12.4,725.6,99.7c80.4,30.9,170,64.1,258,72.1"/>
		<path class="st1" d="M-851.6,433.6c162-8.3,274.1-73.3,435.4-133.2C-149,205.2-14,284,535.1,406.2
			c340.6,78.1,421.6,216.7,806.2,125.1c276.9-68,263.5-61.5,338.6-94.3c157.9-72.5,274.9-162.5,451.5-205.3
			c340.1-73.3,594.9,176,886.8,201.9"/>
		<path class="st1" d="M-851.6,433.6c167.8-8.7,288.5-82.4,451.5-140.2c241.2-80.8,394.4-14.2,919.1,110.5
			c235.6,57.4,256.4,97.3,419.2,141.3c229,56.9,358.3-12.2,564.3-63.4c67.6-15.9,85.4-17.8,145.1-40
			c155.8-62.2,272.2-152.2,451.5-200.9c355.8-87.8,632.4,167.8,919.1,192.7"/>
		<path class="st1" d="M-851.6,433.6c160.6-8.4,274.1-76.4,435.4-135.8C-204,223-80.9,248.4,535.1,409.5
			c214.4,57.4,259.1,109.5,419.2,147.7c229.5,48.6,360.5-38.3,564.4-88.4c261.8-61,330.8-159.2,564.4-222.8
			c274.2-68.3,430.8,38,757.8,146.5c103.6,33.6,126.5,36.9,177.4,41.2"/>
		<path class="st1" d="M-851.6,433.6c160.2-8.4,272.3-77.1,435.4-137.1c203.2-71.3,344.2-50.5,935.2,110.1
			c344.3,96.2,416.6,253.4,806.2,116.8c264.2-94.3,184.5-53.9,306.4-93.6c153.4-54,271.3-138.4,451.5-183.3
			c360-81.5,663.5,164.6,935.2,187.1"/>
		<path class="st1" d="M-851.6,433.6c159.8-8.3,273.2-78,435.4-136.9c200.5-69.4,348.5-47.8,903,104.7
			c361.6,101.7,437.2,266,806.2,127.2c243-93.9,138.3-57.4,306.4-101.2c155.5-44.3,268.6-124.3,451.5-172.4
			c280.7-67.9,443.9,28.4,790.1,138.6c105.7,33,125.7,35.8,177.4,39.9"/>
		<path class="st1" d="M-851.6,433.6c212.8-10.8,365.9-139.9,564.3-168.6c192.9-21.3,436.8,48.2,725.6,126.9
			c325.5,90.5,356,170.2,548.2,192.6c226.2,18.4,345.8-108.7,564.4-158.8c217.7-49,336.1-148.1,564.4-182
			c338.3-42.9,662,171.5,903,189.9"/>
		<path class="st1" d="M-851.6,433.6c218.9-10.9,373.4-147.3,580.5-168.9c190.5-13.7,426.2,52.5,677.2,121.7
			c351.3,98.8,360.2,170.8,548.2,201.3c224.7,28.1,358.9-104.6,548.2-163.4c114.1-31.6,61.6-2.1,322.5-101.3
			c324.6-121,463.5-99.1,790.1,1.7c297.2,93.8,321.9,102.9,403.1,108.9"/>
		<path class="st1" d="M-851.6,433.6c211.9-10.3,363.5-139.4,564.3-165.8c184.9-18,416.5,46.9,596.6,95
			c430.3,117.1,394.8,166.3,580.5,219.8c234.5,59.3,372.3-72.6,564.4-154.2c103.8-40.9,98.4-19.1,274.1-79.1
			c367.4-128.4,472.6-141.5,870.7-25.6c308,91.3,327.8,103.5,419.2,109.9"/>
		<path class="st1" d="M-851.6,433.6c159.7-7.6,270.4-77.9,435.4-134.5C-234,240-73,263.2,277.1,356.6
			c267.9,72.9,317.8,99.1,451.5,168.1c136,69.3,234.1,104.5,387,59.9c110.2-36.1,176.3-85.8,290.2-145.8
			c122.6-61.9,127-42.3,274.1-85.2c356.9-107.6,447.1-153.1,870.7-39.4c327,89.5,361.9,112.3,467.6,119.3"/>
		<path class="st1" d="M-851.6,433.6c160.3-7.3,268.8-76.6,435.4-132.3c89.3-28.2,172.7-48.1,387-12
			C749.4,427.8,763.5,654.5,1051,603.1c115-25.4,193.1-80.7,306.4-149.4c129.8-77.2,156.2-74.7,258-96.7
			c265.6-61.2,419.1-162.1,838.5-62c357.9,87.1,441.5,130.9,564.4,138.6"/>
		<path class="st1" d="M-851.6,433.6c160.8-7,268-75.2,435.4-129.8c202.4-62.1,417.1-11.5,645,49c134.6,36.3,266.2,75,387,133.1
			c150.9,75.2,250.4,154.1,419.2,123.9c110.1-24.6,189.4-80.2,290.2-146.9c176.3-115.8,150.4-85,467.6-163.4
			c226.8-54.8,375.9-63.1,645-2.3c391.9,90.5,458.2,129,580.5,136.3"/>
		<path class="st1" d="M-851.6,433.6c161.2-6.7,267.8-74.2,435.4-127.3c201.5-60.1,430.2-6.4,645,51.2
			c136.3,37.2,265.5,76.7,387,137.3c260.3,134.3,349.1,210.8,661.1-8.1c220.5-156.1,183.4-125.1,499.9-193.1
			c223.5-47,370.8-52.8,645,6.3c448.9,98.8,475.1,126.8,596.6,133.6"/>
		<path class="st1" d="M-851.6,433.6c166.4-6.6,282.8-80.7,451.5-129.4c130.1-34.7,238.8-24.8,387,1.7
			C755.4,449.8,757.2,704.5,1051,612.6c115.2-41.4,190-109.5,306.4-194.2c113.6-80.4,144.2-85.9,258-104.9
			c405-69.9,428.2-92.2,1015.8,38.4c293.9,67,287.1,76.5,387,81.7"/>
		<path class="st1" d="M-851.6,433.6c166.9-6.2,282.4-79.4,451.5-126.8c97.7-25.2,182.5-33,387,3.6
			C758.1,455,754.8,721.6,1051,615.8c107.4-43.5,176-107.2,290.2-196.7c127.4-97.7,164.1-103.5,274.1-120
			c88.6-13.6,117.9-19.7,193.5-29.5c462.3-56.1,996.6,153.7,1209.3,164.1"/>
		<path class="st1" d="M-851.6,433.6c161.5-5.7,270-70.8,435.4-118.3c283.2-76,803.7,82.3,1032,207.7
			c142.7,80.6,241.6,156.1,403.1,107.7c109-38.3,188.1-109.4,290.2-195.9c153.8-128.6,174.6-140.4,483.7-171.9
			c256.3-23.9,405.5,7.3,903,109.7c236.3,50,230.9,56.9,322.5,61"/>
		<path class="st1" d="M-851.6,433.6c162-5.3,270.4-68.8,435.4-114.2c282.9-72.4,789.7,77.2,1032,213.7
			c151.6,87.7,250.7,161.8,419.2,95.1c115.3-51.7,191-132,306.4-231.3c127.8-107.2,158.2-120.8,435.4-141.6
			c415-27.6,1051.4,170.3,1241.6,178.2"/>
		<path class="st1" d="M-851.6,433.6c163-5,269.6-66.5,435.4-110c283.4-69.2,784,76.5,1032,219.8C767,633,866.6,705.7,1034.9,631.6
			c107.5-53.1,178.1-128.4,290.2-231.1c142.2-127.7,173.7-136.7,403.1-151.9c305.3-17.8,469.8,45.2,790.1,99.6
			c427.4,71.2,379.7,80.8,499.9,85.5"/>
		<path class="st1" d="M-851.6,433.6c348-9.9,384.1-241.1,1080.3-42.7c501.7,147.3,539.4,359,790.1,251.8
			c107.5-52,181.6-131.8,290.2-237.3C1467.7,253.8,1507,249,1696,239.1c317.4-14,479.8,58.7,806.2,111.7c466.8,74,403,78.8,516,82.8
			"/>
		<path class="st1" d="M-851.6,433.6c353.1-9.2,386.4-236.4,1080.3-36.6c320.8,95.3,398.7,187.6,532.1,250.9
			c237.9,102.4,375.3-79.9,564.4-268.2c122.4-119.1,176.5-173.5,516-148.1c229.3,19.8,387.7,81.8,645,122.2
			c498.5,75.8,427.7,76.5,532.1,79.9"/>
		<path class="st1" d="M-851.6,433.6C-514,425.5-444,208.1,228.7,403c484.6,145.3,535.7,377.2,790.1,247.6
			c114.2-64.9,188.5-158.4,306.4-279.7c137.3-138,180.7-155.2,387-153.1c285.7,6.1,460.5,92.2,757.8,138.5
			c119.2,17.8,181.9,21.5,354.7,51.8c111.5,20.1,123.7,23.5,193.5,25.6"/>
		<path class="st1" d="M-851.6,433.6c335.1-7.4,422.7-216.3,1080.3-24.6c486.7,147.2,538.6,398.4,806.2,235.6
			c115.9-77.3,189-177.5,306.4-299c121.1-121.4,165.9-146.6,387-136.2c274.7,16.4,447.3,108.1,741.7,151.8
			c121.4,17.1,180.4,19,370.9,50.9c94.5,16.3,109,19.7,177.4,21.5"/>
		<path class="st1" d="M-851.6,433.6c175-3.5,278.3-58.1,451.5-88.6c188.8-29.7,466.2,20.5,645,75
			c451.4,142.6,523.9,400.3,790.1,227.9c108.5-76.7,177.3-170.4,290.2-294c133-141.8,180.7-166.2,387-154.2
			c280.4,20.3,455.2,124,757.8,166.6c116.4,15.4,182.5,17.6,354.7,44.5c106.4,17,118.1,21,193.5,22.8"/>
		<path class="st1" d="M-851.6,433.6c177-3.2,277.3-54.8,451.5-83c187.4-26.9,465.3,20.2,645,75.5
			C690,568.2,766.5,835.6,1034.9,651.1c108.7-81.3,177.2-178.3,290.2-305.7c131.1-143.8,180.8-171.8,387-154.7
			c271.8,26.6,449.7,136.5,741.7,178.4c117.2,15.6,183.3,16.2,354.7,40.7c130,19.1,129.4,22.1,209.6,23.8"/>
		<path class="st1" d="M-851.6,433.6c179.8-2.9,275.4-51.5,451.5-77.5c185.5-24.1,469.4,21.5,645,76
			C680,572.7,765.7,849.9,1034.9,654.3c116.3-91.7,189.1-203.5,306.4-335.6c117-127.3,168-162.1,387-135.1
			c264.2,36.9,436.9,151,725.6,190.6c115.3,14.5,184.2,14.4,354.7,37.1c120.7,16.6,126.9,20.7,209.6,22.3"/>
		<path class="st1" d="M-851.6,433.6c181.4-2.6,275.2-48.1,451.5-71.3c175.3-20.2,460.9,17.6,645,74.9
			c433,140.8,523.7,439,806.2,207.3c118.1-103.9,190.9-221.6,306.4-349.8c113.9-120.9,170.5-148.9,387-114.5
			c260.9,45.9,431.3,164.9,725.6,200.2c111.4,12.2,178,12.2,338.6,32.3c117.4,15.2,125.7,19.5,209.6,20.9"/>
		<path class="st1" d="M-851.6,433.6c175-2.3,263.5-40.9,435.4-63.3c180.6-21,469.9,14.9,645,66.8
			c445.1,139.1,528.5,443,806.2,223.9c116.7-99.4,189.4-217.1,306.4-354.4c115.3-130.5,168.9-169.5,387-134.8
			c267.2,47.4,440.1,178,741.7,212.5c110.3,11.4,177.5,10.8,338.6,29.7c116.7,14.2,124.2,18.3,209.6,19.6"/>
		<path class="st1" d="M-851.6,433.6c182.3-2.1,275.1-41.3,451.5-59c155.3-13.2,452.7,12.2,645,72.5
			c418.8,138,513,444.4,790.1,217.3c116.9-103.2,189.5-223.8,306.4-363.6c116.2-133.9,171.2-172.8,387-134.6
			c260.7,51,435.9,185.1,725.6,220.5c108.9,11.9,177.4,10.1,338.6,27c140,15.3,134.4,18.8,225.7,20"/>
		<path class="st1" d="M-851.6,433.6c183.6-1.8,275.5-38,451.5-52.8c103.6-7.3,452.8-0.5,693.4,88.2
			c390.5,151.7,489,462.6,790.1,151.7c122.5-133.1,192.8-259.4,306.4-379.8c81.7-81.1,142.4-130.7,387-69.2
			c255.8,68.9,412.9,195.2,709.5,222.2c108.1,8.7,177.5,7.5,338.6,24.5c99.8,10.9,111.2,14.3,193.5,15.3"/>
		<path class="st1" d="M-851.6,433.6c234.6-2,341.8-57.2,580.5-47.6c212.7,10.6,405,21.8,596.6,101.1
			c291.3,126.6,367.6,292.7,548.2,272.1c235.1-45.6,380.2-430.7,580.5-582.4c136-89.7,362.5-3.9,516,60.9
			c299.7,128.1,340.1,152.6,661.1,167.7c248.5,12.7,245.9,26.7,387,28.1"/>
		<path class="st1" d="M-851.6,433.6c190.7-1.5,287.8-33.8,467.6-41.1c110.8-3.1,369.5,12.6,499.9,35.5
			C709,541,744,1087.7,1180,504.1c250.1-340.3,288.3-460.6,693.4-306.7c173.8,68.2,292.5,139.8,467.6,181.8
			c116.1,25.7,180.7,22.8,338.6,30.7c192.9,10.5,209.1,22.5,338.6,23.7"/>
		<path class="st1" d="M-851.6,433.6c184.2-1.2,276.8-27.8,451.5-34.3c105.9-2.7,407.6,10.8,548.3,38.6
			c367.6,79.2,484.7,318.1,677.2,337c292,5.8,455-557.3,693.3-638.8c236.1-55.5,553.3,186.3,838.5,249.7
			c112.5,22.8,173.9,18.7,338.6,26.7c177.6,9.4,194.3,20.1,322.5,21.1"/>
		<path class="st1" d="M-851.6,433.6c192-1.1,285.5-26.3,467.6-28.3c55.2-0.1,400.6,11.1,532.1,36.1
			c560.8,117,592.7,679.9,1048.1,40.7c86.9-123.9,191.4-292.1,306.4-344.6c109.9-37.7,280.6,19.5,387,63.9
			c170.9,73.2,293.4,148.3,467.6,187.3c106,21.5,162.3,18.5,322.5,24.6c186.1,7.9,204.6,19.2,338.6,20.1"/>
		<path class="st1" d="M-851.6,433.6c296.7-1.4,213.5-33.8,661.1-13.8c248.5,10.3,386.4,3.8,596.6,123
			c210,124.4,276.6,234.9,419.2,246.1c291.6-0.6,454.9-578.7,693.3-660.8c242-56.5,559,207,854.6,267.2
			c105,19.1,167.2,15,322.5,20.7c178.6,7.3,185.4,16.9,322.5,17.7"/>
		<path class="st1" d="M-851.6,433.6c203.8-0.8,297.5-21.2,499.8-14.4c410.9,16.4,536-0.7,757.9,127.9
			c206.6,125.2,275.8,239,419.2,248.7c291.4-3.9,454.6-589.4,693.3-671.8c242.7-56.5,558.2,213.8,854.6,274.3
			c104.1,19,165.7,14.5,322.5,19.3c173.4,6.1,184.4,15.4,322.5,16"/>
		<path class="st1" d="M-851.6,433.6c183.7-0.9,270.4-13.4,435.4-10.2c172.2,4.6,72.5,8.9,370.9,12.2
			c221.6,3.8,340.3,34.9,516,156.3c219.8,156,337.2,326.9,564.4,100.6c171.8-182.9,282-441,435.4-547.3c45.6-26.5,68.6-31,129-28.2
			c314.4,24.9,515,261.6,854.6,294.5c101.2,8,169.2,2.9,322.5,10.6c129.3,7.1,123.7,11,241.9,11.5"/>
		<path class="st1" d="M-851.6,433.6c158.8-0.6,265.6-9.7,419.2-5.1c182.1,6.5,123.6,13.3,387,11.8c223.1,0.1,339.9,30.6,516,155
			c214,155.5,329.8,321.7,548.2,117.1c170.3-171.8,281.8-433.6,435.4-556.9c48.6-33.9,72.7-40.6,129-40.1
			c313.1,15,522.5,257.9,854.6,296.5c100.4,9.6,181.9,3.9,338.6,11.1c123.1,6.2,123.4,10.2,241.9,10.6"/>
		<path class="st1" d="M-851.6,433.6c152-0.5,261.3-7.1,419.2,0.3c138.2,7.2,167.5,14.7,306.4,12.7c256.9-5.3,374.5-3.4,580.5,140.5
			c217.8,157.5,333.1,332.3,548.2,144.4c227.6-215.8,350.6-608.3,564.4-617.3c308.9,3.4,529.7,252.8,854.6,297.6
			c102,11.8,181.2,5.4,338.6,11.3c141.2,5.9,120.2,9.8,258,10.4"/>
		<path class="st1" d="M-851.6,433.6c392-1.1,286.2-2.6,564.3,16.6C-1.5,467.9,148.3,394.4,406.1,557
			c202.2,133.7,281.8,266.7,435.3,260.8c288.6-35.7,451.9-646.7,693.4-702c274-32.3,549.6,236.8,854.6,293.2
			c105.6,17,176.1,10.2,338.6,14.1c153,4.4,138.1,9.9,290.2,10.4"/>
		<path class="st1" d="M-851.6,433.6c349.8-1.1,354.4,6.9,548.2,22.5c289.4,21.1,438.5-63.2,693.3,93
			c201.4,129.7,282,268.8,435.4,275c290.4-12.9,455.4-622.2,693.3-705.6c116.6-26.5,281.7,37.6,387,87.8
			c175.8,85.8,294.2,165.3,467.6,201.7c107.5,19.9,173.7,13.2,338.6,15.9c165.3,3.4,140,9.2,306.4,9.7"/>
		<path class="st1" d="M-851.6,433.6c312.5-0.5,349.8,10.7,532.1,27.7C-130.2,477.6-52.4,449,99.7,455
			C450.9,476.6,571.5,765,776.9,823.3c295.5,60.3,457-512.3,693.3-681.4c48.2-28.9,70.2-30.8,129-27.7
			c372.3,30.9,496.2,307.2,967.5,310c335.8,0.1,233.1,8.9,451.5,9.3"/>
		<path class="st1" d="M-851.6,433.6c273.4-0.5,315.1,11,516,32.7c191.7,19.3,264-10.6,419.2-10.2c354,8.6,472.5,293.8,677.2,367.7
			c297.3,84,457.6-474.5,693.4-669.8c52.4-37.7,74.3-41.1,129-39.9c371,19.7,517.4,307,967.5,311.3c404.4,1.7,237.5,7.6,467.6,8.2"
			/>
		<path class="st1" d="M-851.6,433.6c271.4-0.8,350.2,19.7,516,39.1C-37,505.2,104.8,387,357.7,532.1
			c322.4,196.9,433.1,570.6,806.2,14.6c127-192.6,201.5-327.8,306.4-403.7c46.5-28.2,64.8-30.7,129-27.3
			c361.7,29.3,513.4,310,967.5,311c327.8-1.3,218.5,6.5,451.5,6.9"/>
		<path class="st1" d="M-851.6,433.6c382-0.6,459.4,59.7,661.1,51.4c216.2-12.6,351-74.7,564.4,57.9
			c236.2,156.1,349.1,391.5,564.4,264.6c224.4-151.9,367.1-585.8,564.3-681.8c70.1-24.9,186.3,0.1,258,22.3
			c115.4,38.4,199.3,87.2,322.5,151.6c273.6,141.5,351.8,128.3,596.6,127.7c159,0.3,142.2,6,338.6,6.3"/>
		<path class="st1" d="M-851.6,433.6c370.3,0,458.3,68,661.1,57.6c212.9-14.9,349.9-83,564.4,52.6
			C606.2,700.2,721.6,940.9,938.2,812c224.6-153.4,367.1-589.3,564.3-685.8c69.6-24.9,188.8,1,258,22.3
			c111.2,36.8,188.9,81.3,322.5,151.7c257.8,134,338.9,130.2,564.4,128.2c193.2-1,162.4,5.2,370.9,5.2"/>
	</g>
</g>
</svg>
