<?xml version="1.0" encoding="utf-8"?>
<!-- Generator: Adobe Illustrator 26.0.2, SVG Export Plug-In . SVG Version: 6.00 Build 0)  -->
<svg version="1.1" id="圖層_1" xmlns="http://www.w3.org/2000/svg" xmlns:xlink="http://www.w3.org/1999/xlink" x="0px" y="0px"
	 viewBox="0 0 60 60" style="enable-background:new 0 0 60 60;" xml:space="preserve">
<style type="text/css">
	.st0{fill:#FFFFFF;}
</style>
<g>
	<g>
		<g>
			<path class="st0" d="M10.8,8.5c-5.8,5.5-10,13.3-10,22.1C0.6,44.9,9.5,58.1,28.7,60V41.5L10.8,30.8l0-21.5V8.5z"/>
		</g>
		<g>
			<path class="st0" d="M49.4,8.5c5.8,5.5,9.7,13.3,9.8,22c0.1,14.4-8.6,27.6-27.8,29.4V41.5l17.9-10.7V9.4L49.4,8.5z"/>
		</g>
	</g>
	<g>
		<g>
			<path class="st0" d="M30.1,0L13.8,9.7v19.4l16.3,9.7l16.3-9.7V9.7L30.1,0z M30.1,29.8c-5.5,0-10-4.7-10-10.4S24.6,9,30.1,9
				s10,4.7,10,10.4S35.6,29.8,30.1,29.8z"/>
		</g>
	</g>
</g>
</svg>
