<?xml version="1.0" encoding="UTF-8"?>
<svg xmlns="http://www.w3.org/2000/svg" xmlns:xlink="http://www.w3.org/1999/xlink" width="252pt" height="252pt" viewBox="0 0 252 252" version="1.1">
<g id="surface1">
<path style=" stroke:none;fill-rule:nonzero;fill:rgb(11.372549%,12.54902%,53.333333%);fill-opacity:1;" d="M 245.699219 126 C 245.699219 192.109375 192.109375 245.699219 126 245.699219 C 59.890625 245.699219 6.300781 192.109375 6.300781 126 C 6.300781 59.890625 59.890625 6.300781 126 6.300781 C 192.109375 6.300781 245.699219 59.890625 245.699219 126 Z M 245.699219 126 "/>
<path style=" stroke:none;fill-rule:nonzero;fill:rgb(0%,62.745098%,91.372549%);fill-opacity:1;" d="M 214.199219 126 C 214.199219 174.710938 174.710938 214.199219 126 214.199219 C 77.289062 214.199219 37.800781 174.710938 37.800781 126 C 37.800781 77.289062 77.289062 37.800781 126 37.800781 C 174.710938 37.800781 214.199219 77.289062 214.199219 126 Z M 214.199219 126 "/>
<path style="fill-rule:nonzero;fill:rgb(100%,100%,100%);fill-opacity:1;stroke-width:5;stroke-linecap:butt;stroke-linejoin:miter;stroke:rgb(11.372549%,12.54902%,53.333333%);stroke-opacity:1;stroke-miterlimit:10;" d="M 720.00558 339.99876 L 720.00558 259.99814 L 279.99442 259.99814 L 279.99442 339.99876 L 460.00744 339.99876 L 460.00744 660.00124 L 279.99442 660.00124 L 279.99442 740.00186 L 720.00558 740.00186 L 720.00558 660.00124 L 539.99256 660.00124 L 539.99256 339.99876 Z M 720.00558 339.99876 " transform="matrix(0.252,0,0,0.252,0,0)"/>
<path style="fill-rule:nonzero;fill:rgb(100%,100%,100%);fill-opacity:1;stroke-width:5;stroke-linecap:butt;stroke-linejoin:miter;stroke:rgb(11.372549%,12.54902%,53.333333%);stroke-opacity:1;stroke-miterlimit:10;" d="M 439.99566 425.0062 L 439.99566 404.99442 L 369.99318 404.99442 L 369.99318 384.99814 L 349.9969 384.99814 L 349.9969 404.99442 L 279.99442 404.99442 L 279.99442 425.0062 L 349.9969 425.0062 L 349.9969 455.00062 L 279.99442 455.00062 L 279.99442 615.00186 L 300.0062 615.00186 L 300.0062 474.9969 L 419.99938 474.9969 L 419.99938 615.00186 L 439.99566 615.00186 L 439.99566 455.00062 L 369.99318 455.00062 L 369.99318 425.0062 Z M 439.99566 425.0062 " transform="matrix(0.252,0,0,0.252,0,0)"/>
<path style="fill-rule:nonzero;fill:rgb(100%,100%,100%);fill-opacity:1;stroke-width:5;stroke-linecap:butt;stroke-linejoin:miter;stroke:rgb(11.372549%,12.54902%,53.333333%);stroke-opacity:1;stroke-miterlimit:10;" d="M 392.50062 480.00372 L 372.50434 480.00372 L 372.50434 494.99318 L 345.00558 494.99318 L 345.00558 480.00372 L 324.9938 480.00372 L 324.9938 494.99318 L 310.00434 494.99318 L 310.00434 515.00496 L 349.9969 515.00496 L 349.9969 545.696925 L 310.00434 545.696925 L 310.00434 565.693204 L 349.9969 565.693204 L 349.9969 615.00186 L 369.99318 615.00186 L 369.99318 565.693204 L 410.00124 565.693204 L 410.00124 545.696925 L 369.99318 545.696925 L 369.99318 515.00496 L 410.00124 515.00496 L 410.00124 494.99318 L 392.50062 494.99318 Z M 392.50062 480.00372 " transform="matrix(0.252,0,0,0.252,0,0)"/>
<path style="fill-rule:nonzero;fill:rgb(100%,100%,100%);fill-opacity:1;stroke-width:5;stroke-linecap:butt;stroke-linejoin:miter;stroke:rgb(11.372549%,12.54902%,53.333333%);stroke-opacity:1;stroke-miterlimit:10;" d="M 720.00558 414.99256 L 720.00558 394.99628 L 699.9938 394.99628 L 699.9938 384.99814 L 679.99752 384.99814 L 679.99752 394.99628 L 640.00496 394.99628 L 640.00496 384.99814 L 619.99318 384.99814 L 619.99318 394.99628 L 599.9969 394.99628 L 599.9969 414.99256 L 619.99318 414.99256 L 619.99318 445.00248 L 599.9969 445.00248 L 599.9969 464.99876 L 619.99318 464.99876 L 619.99318 490.00186 L 599.9969 490.00186 L 599.9969 509.99814 L 640.00496 509.99814 L 640.00496 464.99876 L 679.99752 464.99876 L 679.99752 509.99814 L 720.00558 509.99814 L 720.00558 490.00186 L 699.9938 490.00186 L 699.9938 464.99876 L 720.00558 464.99876 L 720.00558 445.00248 L 699.9938 445.00248 L 699.9938 414.99256 Z M 679.99752 445.00248 L 640.00496 445.00248 L 640.00496 414.99256 L 679.99752 414.99256 Z M 679.99752 445.00248 " transform="matrix(0.252,0,0,0.252,0,0)"/>
<path style="fill-rule:nonzero;fill:rgb(100%,100%,100%);fill-opacity:1;stroke-width:5;stroke-linecap:butt;stroke-linejoin:miter;stroke:rgb(11.372549%,12.54902%,53.333333%);stroke-opacity:1;stroke-miterlimit:10;" d="M 599.9969 525.0031 L 599.9969 615.00186 L 720.00558 615.00186 L 720.00558 595.00558 L 619.99318 595.00558 L 619.99318 583.193824 L 720.00558 583.193824 L 720.00558 525.0031 Z M 699.9938 563.197545 L 619.99318 563.197545 L 619.99318 544.99938 L 699.9938 544.99938 Z M 699.9938 563.197545 " transform="matrix(0.252,0,0,0.252,0,0)"/>
<path style="fill-rule:nonzero;fill:rgb(100%,100%,100%);fill-opacity:1;stroke-width:5;stroke-linecap:butt;stroke-linejoin:miter;stroke:rgb(11.372549%,12.54902%,53.333333%);stroke-opacity:1;stroke-miterlimit:10;" d="M 560.00434 384.99814 L 580.00062 384.99814 L 580.00062 455.00062 L 560.00434 455.00062 Z M 560.00434 384.99814 " transform="matrix(0.252,0,0,0.252,0,0)"/>
<path style="fill-rule:nonzero;fill:rgb(100%,100%,100%);fill-opacity:1;stroke-width:5;stroke-linecap:butt;stroke-linejoin:miter;stroke:rgb(11.372549%,12.54902%,53.333333%);stroke-opacity:1;stroke-miterlimit:10;" d="M 560.00434 464.99876 L 580.00062 464.99876 L 580.00062 535.00124 L 560.00434 535.00124 Z M 560.00434 464.99876 " transform="matrix(0.252,0,0,0.252,0,0)"/>
<path style="fill-rule:nonzero;fill:rgb(100%,100%,100%);fill-opacity:1;stroke-width:5;stroke-linecap:butt;stroke-linejoin:miter;stroke:rgb(11.372549%,12.54902%,53.333333%);stroke-opacity:1;stroke-miterlimit:10;" d="M 560.00434 544.99938 L 580.00062 544.99938 L 580.00062 615.00186 L 560.00434 615.00186 Z M 560.00434 544.99938 " transform="matrix(0.252,0,0,0.252,0,0)"/>
<path style=" stroke:none;fill-rule:nonzero;fill:rgb(100%,100%,100%);fill-opacity:1;" d="M 13.660156 123.707031 C 13.707031 121.4375 14.566406 119.5 16.230469 117.9375 C 17.917969 116.375 19.832031 115.59375 22.023438 115.644531 C 24.367188 115.691406 26.335938 116.523438 27.921875 118.136719 C 29.507812 119.75 30.289062 121.742188 30.238281 124.109375 C 30.191406 126.402344 29.332031 128.34375 27.667969 129.929688 C 26.007812 131.519531 24.015625 132.273438 21.722656 132.222656 C 19.453125 132.175781 17.515625 131.34375 15.925781 129.703125 C 14.339844 128.066406 13.632812 126.050781 13.660156 123.707031 Z M 13.660156 123.707031 "/>
<path style=" stroke:none;fill-rule:nonzero;fill:rgb(100%,100%,100%);fill-opacity:1;" d="M 19.480469 92.054688 L 17.640625 100.09375 L 18.421875 100.269531 L 20.035156 93.191406 L 21.144531 93.441406 L 17.488281 109.394531 L 16.378906 109.140625 L 17.992188 102.136719 L 17.210938 101.960938 L 15.398438 109.871094 L 14.210938 109.59375 L 16.027344 101.65625 L 15.195312 101.457031 L 15.625 99.589844 L 16.457031 99.792969 L 18.296875 91.777344 Z M 24.671875 95.457031 L 21.570312 108.988281 L 18.496094 108.285156 L 21.597656 94.753906 Z M 23.132812 97.019531 L 22.328125 96.84375 L 20.058594 106.722656 L 20.867188 106.898438 Z M 28.90625 94.476562 L 28.5 96.289062 L 26.710938 95.886719 L 23.585938 109.519531 L 25.453125 109.949219 L 25.023438 111.8125 L 21.925781 111.082031 L 25.878906 93.769531 Z M 35.40625 95.632812 L 31.296875 113.527344 L 30.0625 113.25 L 31.902344 105.261719 L 31.019531 105.058594 L 29.484375 111.761719 L 28.351562 111.511719 L 29.886719 104.808594 L 29.132812 104.628906 C 28.929688 105.714844 28.675781 106.875 28.402344 108.082031 C 28.222656 108.839844 28.046875 109.644531 27.820312 110.476562 L 26.636719 110.476562 C 26.660156 109.292969 26.511719 108.183594 26.15625 107.152344 L 25.679688 109.242188 L 24.519531 108.964844 L 27.316406 96.792969 L 28.476562 97.070312 L 28.25 98.078125 C 28.90625 97.574219 29.660156 97.070312 30.492188 96.589844 L 31.070312 98.203125 C 30.667969 98.429688 30.390625 98.582031 30.238281 98.65625 L 29.507812 102.714844 L 30.316406 102.890625 L 31.878906 96.0625 L 33.011719 96.3125 L 31.449219 103.144531 L 32.332031 103.34375 L 34.171875 95.332031 Z M 28.074219 98.984375 L 26.8125 104.453125 C 27.113281 105.058594 27.34375 105.863281 27.519531 106.875 L 29.03125 99.566406 C 28.828125 99.691406 28.628906 99.867188 28.351562 100.09375 Z M 28.074219 98.984375 "/>
<path style=" stroke:none;fill-rule:nonzero;fill:rgb(100%,100%,100%);fill-opacity:1;" d="M 37.472656 84.671875 C 37.320312 87.972656 36.917969 91.222656 36.289062 94.398438 L 34.371094 94.121094 C 34.800781 91.953125 35.105469 90.039062 35.28125 88.375 L 28.527344 85.25 L 26.359375 89.964844 L 24.59375 89.15625 L 26.761719 84.445312 L 21.371094 81.949219 L 22.203125 80.160156 L 35.507812 86.308594 C 35.582031 85.679688 35.632812 84.875 35.707031 83.867188 Z M 38.859375 75.398438 C 39.890625 75.925781 40.796875 76.480469 41.554688 77.0625 C 42.335938 77.640625 42.738281 78.195312 42.816406 78.699219 C 42.890625 79.230469 42.613281 80.136719 42.007812 81.472656 C 41.628906 82.304688 41.304688 82.933594 41.027344 83.363281 C 40.75 83.789062 40.394531 84.066406 39.992188 84.191406 C 39.5625 84.292969 39.085938 84.21875 38.503906 83.964844 L 23.613281 77.085938 L 24.445312 75.296875 L 29.835938 77.792969 L 32.15625 72.753906 L 33.917969 73.558594 L 31.601562 78.597656 L 39.109375 82.078125 C 39.261719 82.152344 39.386719 82.125 39.539062 82 C 39.691406 81.875 39.941406 81.394531 40.34375 80.539062 C 40.597656 79.984375 40.773438 79.554688 40.824219 79.253906 C 40.875 78.953125 40.496094 78.574219 39.640625 78.070312 C 38.78125 77.566406 38.078125 77.1875 37.496094 76.9375 Z M 38.859375 75.398438 "/>
<path style=" stroke:none;fill-rule:nonzero;fill:rgb(100%,100%,100%);fill-opacity:1;" d="M 43.796875 53.324219 L 38.808594 60.050781 L 40.898438 61.613281 L 45.160156 55.894531 L 51.359375 60.503906 C 52.691406 61.511719 52.96875 62.546875 52.140625 63.65625 C 51.40625 64.636719 50.878906 65.320312 50.578125 65.695312 L 48.636719 65.015625 C 49.265625 64.285156 49.820312 63.578125 50.324219 62.898438 C 50.398438 62.796875 50.425781 62.671875 50.425781 62.519531 C 50.425781 62.371094 50.375 62.242188 50.273438 62.167969 L 45.484375 58.613281 L 42.410156 62.746094 L 50.449219 68.71875 L 49.292969 70.28125 L 41.253906 64.308594 L 38.203125 68.417969 L 44.855469 73.355469 L 43.695312 74.917969 L 35.53125 68.847656 L 39.742188 63.175781 L 37.648438 61.613281 L 32.683594 68.292969 L 31.199219 67.183594 L 36.1875 60.480469 C 35.507812 60.328125 34.777344 60.277344 33.96875 60.277344 L 34.800781 58.3125 C 35.632812 58.363281 36.539062 58.515625 37.523438 58.714844 L 42.335938 52.238281 Z M 43.796875 53.324219 "/>
<path style=" stroke:none;fill-rule:nonzero;fill:rgb(100%,100%,100%);fill-opacity:1;" d="M 69.628906 48.535156 L 55.71875 60.910156 L 54.457031 59.496094 L 58.515625 55.894531 C 55.464844 53.472656 52.617188 51.609375 49.945312 50.300781 L 50.375 48.535156 L 47.753906 50.855469 L 46.46875 49.417969 L 52.265625 44.25 C 51.332031 43.746094 50.324219 43.320312 49.242188 42.964844 L 50.324219 41.074219 C 51.585938 41.53125 52.792969 42.085938 53.976562 42.738281 L 59.421875 37.902344 L 60.707031 39.335938 L 57.859375 41.882812 L 59.699219 41.605469 C 61.3125 44.023438 62.875 47.074219 64.359375 50.703125 L 68.367188 47.148438 Z M 57.65625 42.035156 L 50.601562 48.308594 C 53.675781 49.921875 56.800781 52.011719 59.976562 54.558594 L 62.796875 52.039062 C 61.210938 48.105469 59.496094 44.753906 57.65625 42.035156 Z M 57.65625 42.035156 "/>
<path style=" stroke:none;fill-rule:nonzero;fill:rgb(100%,100%,100%);fill-opacity:1;" d="M 79.554688 26.03125 L 72.296875 30.191406 L 73.15625 31.703125 L 79.507812 28.046875 L 85.152344 37.875 C 85.453125 38.40625 85.578125 38.910156 85.503906 39.335938 C 85.429688 39.789062 84.925781 40.292969 83.941406 40.847656 C 83.640625 41.027344 83.234375 41.226562 82.757812 41.503906 L 81.21875 40.269531 C 81.671875 40.042969 82.050781 39.839844 82.378906 39.640625 C 82.984375 39.285156 83.3125 39.085938 83.363281 38.984375 C 83.410156 38.882812 83.410156 38.757812 83.3125 38.605469 L 78.699219 30.59375 L 75.347656 32.507812 L 77.0625 32.40625 C 77.164062 32.960938 77.210938 33.617188 77.136719 34.398438 L 78.953125 33.339844 L 79.832031 34.875 L 76.15625 36.992188 L 76.886719 38.253906 L 80.941406 35.933594 L 81.824219 37.445312 L 77.765625 39.765625 L 79.480469 42.738281 L 77.816406 43.695312 L 76.105469 40.722656 L 72.023438 43.066406 L 71.140625 41.554688 L 75.222656 39.210938 L 74.492188 37.953125 L 70.835938 40.042969 L 69.957031 38.503906 L 71.644531 37.546875 C 71.214844 37.195312 70.636719 36.84375 69.878906 36.4375 L 70.886719 35.054688 L 67.613281 36.941406 L 73.332031 46.898438 L 71.667969 47.855469 L 65.042969 36.339844 L 71.417969 32.683594 L 70.558594 31.171875 L 63.351562 35.304688 L 62.472656 33.769531 L 69.679688 29.636719 L 68.746094 28.023438 L 70.433594 27.066406 L 71.367188 28.675781 L 78.625 24.519531 Z M 75.195312 32.609375 L 71.191406 34.902344 C 71.972656 35.332031 72.777344 35.859375 73.585938 36.464844 L 75.449219 35.378906 C 75.449219 34.273438 75.375 33.339844 75.195312 32.609375 Z M 75.195312 32.609375 "/>
<path style=" stroke:none;fill-rule:nonzero;fill:rgb(100%,100%,100%);fill-opacity:1;" d="M 87.242188 22.25 L 86.460938 24.015625 C 85.203125 23.160156 83.941406 22.527344 82.679688 22.101562 L 83.511719 20.386719 C 85.074219 20.890625 86.335938 21.519531 87.242188 22.25 Z M 88.601562 26.914062 L 88 28.777344 C 86.738281 28.199219 85.429688 27.796875 84.09375 27.519531 L 84.570312 25.628906 C 86.03125 25.90625 87.367188 26.335938 88.601562 26.914062 Z M 90.015625 31.652344 C 89.988281 33.769531 89.761719 35.960938 89.335938 38.226562 L 87.367188 37.625 C 87.820312 35.457031 88.046875 33.265625 88.046875 31.046875 Z M 103.472656 25.578125 L 103.09375 27.417969 C 102.085938 27.265625 101.050781 26.9375 99.96875 26.484375 L 101.179688 30.191406 L 94.523438 32.355469 L 94.953125 33.640625 C 95.003906 33.792969 95.105469 33.894531 95.304688 33.996094 C 95.484375 34.070312 95.632812 34.09375 95.761719 34.070312 C 99.714844 32.785156 101.832031 32.078125 102.109375 31.929688 C 102.386719 31.777344 102.464844 31.199219 102.285156 30.140625 L 104.125 30.140625 C 104.304688 30.894531 104.304688 31.601562 104.125 32.28125 C 103.949219 32.9375 103.34375 33.441406 102.335938 33.769531 L 96.1875 35.757812 C 94.675781 36.238281 93.695312 35.757812 93.214844 34.324219 L 91.828125 30.011719 C 91.449219 30.515625 91.074219 30.996094 90.695312 31.449219 L 89.15625 30.214844 C 90.695312 28.652344 91.652344 27.140625 92.082031 25.703125 L 88.878906 26.738281 L 88.351562 25.097656 L 91.300781 24.140625 L 90.667969 22.226562 L 87.949219 23.132812 L 87.417969 21.519531 L 90.164062 20.640625 L 89.511719 18.597656 L 91.300781 18.019531 L 91.953125 20.058594 L 95.507812 18.898438 L 94.851562 16.859375 L 96.691406 16.253906 L 97.347656 18.296875 L 100.042969 17.414062 L 100.574219 19.027344 L 97.875 19.90625 L 98.507812 21.824219 L 101.378906 20.890625 L 101.910156 22.527344 L 98.609375 23.613281 C 100.019531 24.746094 101.65625 25.425781 103.472656 25.578125 Z M 96.667969 22.429688 L 96.039062 20.511719 L 92.457031 21.671875 L 93.089844 23.585938 Z M 98.40625 25.652344 C 97.800781 25.277344 97.222656 24.773438 96.691406 24.21875 L 94.097656 25.074219 C 93.945312 25.855469 93.71875 26.609375 93.441406 27.292969 Z M 98.886719 29.179688 L 98.332031 27.492188 L 93.46875 29.082031 L 94.019531 30.769531 Z M 98.886719 29.179688 "/>
<path style=" stroke:none;fill-rule:nonzero;fill:rgb(100%,100%,100%);fill-opacity:1;" d="M 123.203125 15.320312 L 105.183594 17.261719 L 105.007812 15.648438 L 113.222656 14.765625 C 113.046875 14.390625 112.796875 13.984375 112.441406 13.507812 L 114.28125 12.953125 C 114.683594 13.558594 114.960938 14.085938 115.164062 14.539062 L 123.050781 13.683594 Z M 123.910156 29.230469 C 123.957031 29.710938 123.808594 30.113281 123.453125 30.492188 C 123.101562 30.84375 122.167969 31.121094 120.65625 31.296875 L 119.777344 29.535156 C 120.253906 29.535156 120.65625 29.507812 120.984375 29.457031 C 121.4375 29.410156 121.714844 29.332031 121.816406 29.257812 C 121.917969 29.179688 121.96875 29.054688 121.96875 28.929688 L 121.386719 23.664062 L 108.5625 25.046875 L 109.367188 32.484375 L 107.527344 32.683594 L 106.546875 23.636719 L 123.101562 21.847656 Z M 120.933594 21.015625 L 108.484375 22.351562 L 108.007812 18.019531 L 120.457031 16.683594 Z M 118.816406 19.707031 L 118.691406 18.394531 L 110.175781 19.304688 L 110.324219 20.613281 Z M 120.054688 29.207031 L 111.183594 30.164062 L 110.730469 25.90625 L 119.597656 24.949219 Z M 118.035156 27.921875 L 117.886719 26.585938 L 112.769531 27.140625 L 112.921875 28.476562 Z M 118.035156 27.921875 "/>
<path style=" stroke:none;fill-rule:nonzero;fill:rgb(100%,100%,100%);fill-opacity:1;" d="M 129.023438 26.082031 C 128.722656 27.695312 128.242188 29.28125 127.585938 30.894531 L 126 30.039062 C 126.707031 28.351562 127.160156 26.8125 127.386719 25.425781 Z M 135.550781 16.078125 C 133.382812 19.175781 131.316406 21.546875 129.351562 23.109375 C 130.511719 23.058594 131.570312 22.90625 132.5 22.707031 C 132.476562 22.402344 132.375 22.023438 132.222656 21.570312 L 133.6875 21.117188 C 134.0625 22.101562 134.367188 23.359375 134.566406 24.949219 L 132.980469 25.375 C 132.957031 24.871094 132.90625 24.519531 132.828125 24.34375 C 130.433594 24.746094 128.46875 24.949219 127.007812 24.972656 L 126.628906 23.285156 C 127.941406 22.476562 129.375 21.117188 130.9375 19.203125 C 129.980469 19.304688 128.847656 19.402344 127.539062 19.480469 L 127.386719 17.867188 C 129.023438 16.101562 130.285156 14.238281 131.191406 12.273438 L 132.980469 13.003906 C 131.972656 14.816406 130.914062 16.355469 129.753906 17.613281 C 130.535156 17.589844 131.394531 17.515625 132.324219 17.363281 C 132.777344 16.78125 133.257812 16.027344 133.8125 15.144531 Z M 130.9375 30.164062 L 129.277344 30.316406 C 129.328125 30.011719 129.375 29.6875 129.402344 29.359375 C 129.503906 28.425781 129.527344 27.316406 129.476562 26.007812 L 130.988281 25.90625 C 131.089844 27.089844 131.066406 28.5 130.9375 30.164062 Z M 133.433594 28.703125 L 131.972656 29.03125 C 131.921875 27.894531 131.796875 26.863281 131.621094 25.90625 L 133.082031 25.804688 C 133.257812 26.738281 133.382812 27.695312 133.433594 28.703125 Z M 144.898438 31.121094 L 143.539062 32.558594 C 142.304688 31.523438 141.296875 30.492188 140.589844 29.457031 C 139.355469 30.441406 138.019531 31.246094 136.609375 31.902344 L 135.375 30.316406 C 137.011719 29.660156 138.421875 28.878906 139.582031 27.921875 C 138.75 26.15625 138.246094 24.140625 138.070312 21.898438 C 137.136719 26.285156 135.804688 29.535156 134.089844 31.675781 L 132.703125 30.367188 C 135.046875 27.265625 136.507812 22.277344 137.039062 15.371094 L 135.625 15.246094 L 135.804688 13.457031 L 145.253906 14.363281 C 144.722656 16.480469 144.167969 18.371094 143.589844 20.058594 L 145.480469 20.234375 C 144.847656 23.5625 143.691406 26.183594 141.976562 28.148438 C 142.757812 29.257812 143.714844 30.265625 144.898438 31.121094 Z M 142.882812 15.953125 L 138.925781 15.574219 C 138.800781 16.78125 138.652344 18.117188 138.449219 19.582031 L 141.648438 19.882812 C 142.078125 18.621094 142.507812 17.3125 142.882812 15.953125 Z M 143.1875 21.875 L 139.886719 21.546875 C 139.9375 23.285156 140.289062 24.949219 140.96875 26.535156 C 141.953125 25.25 142.707031 23.6875 143.1875 21.875 Z M 143.1875 21.875 "/>
<path style=" stroke:none;fill-rule:nonzero;fill:rgb(100%,100%,100%);fill-opacity:1;" d="M 163.523438 37.648438 L 145.679688 32.054688 L 146.261719 30.214844 L 154.222656 32.710938 L 158.179688 20.035156 L 151.074219 17.816406 L 151.679688 15.902344 L 167.832031 20.941406 L 167.226562 22.855469 L 160.121094 20.640625 L 156.164062 33.3125 L 164.078125 35.785156 Z M 163.523438 37.648438 "/>
<path style=" stroke:none;fill-rule:nonzero;fill:rgb(100%,100%,100%);fill-opacity:1;" d="M 171.710938 39.160156 C 169.292969 39.4375 167.175781 39.464844 165.285156 39.261719 L 164.933594 37.347656 C 166.722656 37.597656 168.765625 37.597656 171.03125 37.347656 Z M 182.953125 43.371094 L 175.617188 39.261719 L 173.097656 43.746094 L 171.4375 42.816406 L 173.957031 38.328125 L 166.648438 34.246094 L 167.429688 32.835938 L 174.738281 36.917969 L 175.265625 35.960938 L 168.839844 32.382812 L 169.621094 30.972656 L 176.046875 34.574219 L 176.550781 33.667969 L 169.644531 29.8125 L 170.425781 28.402344 L 174.6875 30.792969 C 174.660156 30.390625 174.585938 29.988281 174.484375 29.636719 L 176.121094 29.636719 L 170.855469 26.660156 L 171.636719 25.277344 L 177.359375 28.476562 L 178.921875 25.703125 L 180.53125 26.609375 L 178.96875 29.382812 L 180.660156 30.316406 L 182.222656 27.542969 L 183.859375 28.449219 L 182.296875 31.222656 L 187.941406 34.371094 L 187.160156 35.757812 L 181.996094 32.859375 L 182.777344 34.070312 C 182.296875 34.347656 181.917969 34.523438 181.640625 34.625 L 185.949219 37.019531 L 185.167969 38.429688 L 178.238281 34.550781 L 177.734375 35.457031 L 184.210938 39.085938 L 183.429688 40.496094 L 176.953125 36.867188 L 176.425781 37.824219 L 183.757812 41.933594 Z M 176.578125 26.660156 L 174.8125 26.863281 C 174.636719 25.90625 174.382812 25.046875 174.082031 24.292969 L 175.871094 24.015625 C 176.222656 24.949219 176.476562 25.828125 176.578125 26.660156 Z M 181.617188 46.542969 L 179.953125 47.375 C 178.742188 45.335938 177.433594 43.496094 176.023438 41.855469 L 177.734375 41.050781 C 179.070312 42.636719 180.355469 44.476562 181.617188 46.542969 Z M 181.441406 32.582031 L 176.527344 29.835938 C 176.652344 30.46875 176.703125 31.171875 176.726562 31.929688 L 179.550781 33.515625 C 180.230469 33.238281 180.835938 32.9375 181.441406 32.582031 Z M 187.640625 31.574219 C 187.007812 31.878906 186.152344 32.15625 185.070312 32.40625 L 184.085938 30.695312 C 184.917969 30.542969 185.773438 30.316406 186.632812 29.960938 Z M 187.640625 31.574219 "/>
<path style=" stroke:none;fill-rule:nonzero;fill:rgb(100%,100%,100%);fill-opacity:1;" d="M 196.761719 40.21875 L 196.207031 39.742188 L 185.445312 52.113281 L 184.136719 50.980469 L 186.152344 48.660156 C 184.992188 48.257812 183.882812 47.804688 182.777344 47.273438 L 183.457031 45.585938 C 183.632812 45.6875 183.984375 45.839844 184.488281 46.066406 L 192.679688 36.664062 L 191.972656 36.0625 L 193.132812 34.726562 L 197.921875 38.882812 Z M 187.414062 47.199219 L 189.050781 45.308594 L 188.117188 44.503906 L 186.152344 46.769531 C 186.503906 46.898438 186.933594 47.046875 187.414062 47.199219 Z M 192.351562 54.910156 L 188.167969 51.28125 L 193.234375 45.460938 L 197.417969 49.089844 Z M 190.210938 43.972656 L 192 41.90625 L 191.066406 41.101562 L 189.277344 43.167969 Z M 197.996094 57.910156 C 196.6875 59.09375 195.726562 59.773438 195.199219 59.925781 C 194.644531 60.101562 194.164062 60 193.761719 59.648438 C 193.460938 59.371094 193.308594 59.019531 193.308594 58.566406 C 193.308594 58.109375 193.484375 57.40625 193.839844 56.472656 C 192.730469 56.597656 191.570312 56.699219 190.335938 56.726562 L 190.132812 55.011719 C 191.773438 55.085938 193.359375 54.910156 194.847656 54.507812 C 195.855469 52.894531 197.164062 51.105469 198.828125 49.140625 L 193.207031 44.25 L 194.316406 42.964844 L 195.550781 44.050781 C 195.980469 43.445312 196.382812 42.6875 196.785156 41.78125 L 196.359375 41.402344 L 197.492188 40.117188 L 199.207031 41.605469 C 199.433594 41.152344 199.632812 40.648438 199.785156 40.09375 L 201.375 40.949219 C 201.144531 41.605469 200.894531 42.234375 200.617188 42.816406 L 202.332031 44.300781 L 201.195312 45.585938 L 200.742188 45.183594 C 200.011719 45.710938 199.308594 46.21875 198.601562 46.671875 L 199.886719 47.777344 C 201.726562 45.613281 203.011719 44.101562 203.71875 43.320312 L 205.027344 44.453125 C 203.515625 46.140625 202.230469 47.628906 201.195312 48.914062 L 203.617188 51.003906 L 202.507812 52.289062 L 200.164062 50.25 C 199.28125 51.28125 198.398438 52.390625 197.492188 53.574219 C 198.726562 52.996094 199.761719 52.367188 200.617188 51.683594 L 201.375 53.222656 C 199.535156 54.433594 197.746094 55.3125 196.003906 55.894531 C 195.679688 56.449219 195.453125 56.953125 195.300781 57.378906 C 195.148438 57.835938 195.097656 58.0625 195.125 58.085938 C 195.148438 58.109375 195.375 57.960938 195.777344 57.65625 C 196.183594 57.355469 196.710938 56.875 197.316406 56.195312 Z M 192.148438 52.515625 L 193.183594 51.332031 L 191.621094 49.972656 L 190.585938 51.15625 Z M 193.15625 40.597656 L 194.898438 38.605469 L 193.964844 37.800781 L 192.226562 39.789062 Z M 194.214844 50.121094 L 195.023438 49.191406 L 193.460938 47.828125 L 192.652344 48.761719 Z M 199.433594 44.023438 L 198.171875 42.914062 C 197.746094 43.746094 197.316406 44.476562 196.886719 45.160156 L 197.265625 45.484375 C 198.148438 44.929688 198.878906 44.453125 199.433594 44.023438 Z M 204.472656 50.023438 L 202.886719 49.46875 C 203.441406 48.585938 203.992188 47.375 204.597656 45.8125 L 206.136719 46.367188 C 205.734375 47.527344 205.179688 48.761719 204.472656 50.023438 Z M 204.472656 50.023438 "/>
<path style=" stroke:none;fill-rule:nonzero;fill:rgb(100%,100%,100%);fill-opacity:1;" d="M 202.683594 64.765625 C 200.363281 64.058594 198.398438 63.226562 196.761719 62.292969 L 197.191406 60.40625 C 198.726562 61.363281 200.59375 62.167969 202.785156 62.824219 Z M 211.277344 73.105469 L 206.1875 66.425781 L 202.105469 69.527344 L 200.945312 68.015625 L 205.027344 64.914062 L 199.960938 58.238281 L 201.246094 57.253906 L 206.3125 63.933594 L 207.167969 63.277344 L 202.707031 57.40625 L 203.992188 56.421875 L 208.453125 62.292969 L 209.285156 61.664062 L 204.496094 55.363281 L 205.78125 54.382812 L 208.730469 58.261719 C 208.859375 57.882812 208.957031 57.480469 209.007812 57.101562 L 210.519531 57.757812 L 206.839844 52.921875 L 208.125 51.960938 L 212.082031 57.179688 L 214.628906 55.238281 L 215.761719 56.726562 L 213.21875 58.664062 L 214.375 60.203125 L 216.921875 58.261719 L 218.054688 59.75 L 215.511719 61.691406 L 219.417969 66.832031 L 218.132812 67.789062 L 214.554688 63.074219 L 214.78125 64.488281 C 214.25 64.539062 213.820312 64.5625 213.519531 64.5625 L 216.492188 68.492188 L 215.207031 69.476562 L 210.421875 63.175781 L 209.589844 63.804688 L 214.074219 69.703125 L 212.789062 70.6875 L 208.304688 64.789062 L 207.445312 65.445312 L 212.535156 72.121094 Z M 208.78125 75.5 L 206.917969 75.601562 C 206.613281 73.230469 206.160156 71.039062 205.53125 68.972656 L 207.445312 68.921875 C 208.027344 70.886719 208.480469 73.078125 208.78125 75.5 Z M 214.199219 62.597656 L 210.796875 58.109375 C 210.648438 58.742188 210.421875 59.394531 210.144531 60.101562 L 212.109375 62.671875 C 212.8125 62.722656 213.519531 62.699219 214.199219 62.597656 Z M 212.109375 55.261719 L 210.421875 54.757812 C 210.621094 53.828125 210.746094 52.921875 210.773438 52.089844 L 212.511719 52.566406 C 212.460938 53.550781 212.335938 54.433594 212.109375 55.261719 Z M 220.273438 64.160156 C 219.566406 64.183594 218.6875 64.109375 217.578125 63.90625 L 217.351562 61.941406 C 218.15625 62.144531 219.039062 62.269531 219.972656 62.292969 Z M 220.273438 64.160156 "/>
<path style=" stroke:none;fill-rule:nonzero;fill:rgb(100%,100%,100%);fill-opacity:1;" d="M 218.585938 92.433594 L 215.058594 85 L 213.847656 85.578125 C 213.417969 85.78125 213.015625 85.855469 212.6875 85.78125 C 212.359375 85.707031 212.058594 85.527344 211.804688 85.277344 C 211.578125 85.023438 211.25 84.46875 210.847656 83.613281 C 210.671875 83.234375 210.46875 82.78125 210.242188 82.253906 L 211.554688 80.941406 C 211.753906 81.394531 212.160156 82.253906 212.738281 83.511719 C 212.839844 83.738281 213.015625 83.816406 213.21875 83.714844 L 214.199219 83.261719 L 210.570312 75.601562 L 211.933594 74.945312 L 215.585938 82.605469 L 216.417969 82.203125 C 217.074219 83.058594 217.753906 83.839844 218.433594 84.519531 L 215.03125 77.339844 L 216.265625 76.757812 L 221.15625 87.066406 L 219.921875 87.644531 C 218.914062 86.839844 217.804688 85.730469 216.542969 84.320312 L 216.441406 84.371094 L 219.972656 91.804688 Z M 221.28125 90.796875 L 220.5 89.183594 L 222.691406 88.125 L 216.542969 75.171875 L 214.351562 76.203125 L 213.542969 74.492188 L 217.097656 72.804688 L 217.675781 74.011719 L 224.457031 70.359375 C 225.113281 71.59375 225.941406 72.726562 226.976562 73.785156 L 226.019531 75.222656 C 225.3125 74.464844 224.65625 73.585938 224.054688 72.652344 L 223.046875 73.207031 L 224.253906 75.726562 L 222.996094 76.332031 L 221.835938 73.886719 L 220.753906 74.441406 L 221.910156 76.859375 L 220.675781 77.464844 L 219.566406 75.121094 L 218.484375 75.699219 L 223.550781 86.359375 L 224.683594 85.855469 L 223.449219 83.261719 L 224.683594 82.65625 L 225.941406 85.328125 L 227.078125 84.875 L 225.765625 82.152344 L 227.027344 81.546875 L 228.335938 84.320312 L 229.394531 83.890625 L 227.984375 80.941406 L 229.34375 80.3125 L 231.5625 84.949219 L 224.28125 87.949219 L 224.835938 89.105469 Z M 223.121094 82.832031 L 221.734375 82.226562 C 222.039062 81.496094 222.238281 80.867188 222.339844 80.335938 C 221.582031 79.859375 220.929688 79.378906 220.324219 78.875 L 221.003906 77.566406 C 221.433594 77.945312 221.988281 78.347656 222.691406 78.800781 C 222.820312 78.347656 222.917969 77.765625 222.945312 77.113281 L 224.332031 77.589844 C 224.28125 78.019531 224.179688 78.699219 224.003906 79.582031 C 224.707031 79.910156 225.210938 80.085938 225.539062 80.1875 L 225.414062 81.699219 C 224.835938 81.523438 224.253906 81.296875 223.699219 81.042969 C 223.574219 81.671875 223.347656 82.253906 223.121094 82.832031 Z M 229.167969 79.859375 C 228.613281 79.757812 228.035156 79.53125 227.378906 79.179688 C 227.253906 79.632812 227.101562 80.058594 226.953125 80.464844 L 225.566406 79.859375 C 225.792969 79.355469 225.96875 78.875 226.070312 78.449219 C 225.363281 77.96875 224.707031 77.464844 224.152344 76.960938 L 224.859375 75.625 C 225.3125 76.105469 225.84375 76.507812 226.421875 76.910156 C 226.496094 76.660156 226.597656 76.179688 226.699219 75.472656 L 228.085938 75.953125 L 227.78125 77.691406 C 228.285156 77.96875 228.742188 78.144531 229.167969 78.269531 Z M 229.167969 79.859375 "/>
<path style=" stroke:none;fill-rule:nonzero;fill:rgb(100%,100%,100%);fill-opacity:1;" d="M 226.546875 99.488281 L 224.960938 98.480469 C 225.640625 98.054688 226.21875 97.574219 226.75 97.070312 L 217.097656 99.390625 L 216.644531 97.550781 L 225.539062 95.40625 C 223.726562 95.179688 222.339844 94.800781 221.382812 94.222656 L 223.09375 92.8125 C 224.910156 93.71875 227.027344 94.273438 229.394531 94.449219 L 228.742188 91.726562 L 230.480469 91.300781 L 231.132812 94.046875 L 234.738281 93.191406 L 235.167969 95.027344 L 231.5625 95.886719 L 232.015625 97.726562 L 230.277344 98.152344 L 229.824219 96.3125 L 229.394531 96.414062 C 228.511719 97.648438 227.554688 98.683594 226.546875 99.488281 Z M 221.859375 112.519531 L 220.097656 111.835938 C 220.449219 109.820312 221.054688 108.03125 221.9375 106.445312 C 220.449219 105.386719 219.0625 103.925781 217.804688 102.085938 L 219.140625 100.699219 C 220.347656 102.589844 221.609375 103.976562 222.945312 104.882812 C 223.953125 103.597656 225.363281 102.363281 227.226562 101.179688 L 228.261719 102.640625 C 226.648438 103.648438 225.414062 104.679688 224.582031 105.738281 C 225.792969 106.292969 227.378906 106.621094 229.320312 106.695312 L 229.042969 108.484375 C 226.953125 108.410156 225.113281 108.03125 223.550781 107.351562 C 222.792969 108.6875 222.238281 110.402344 221.859375 112.519531 Z M 231.890625 103.09375 C 230.125 102.539062 228.511719 101.632812 227.027344 100.371094 L 228.035156 98.808594 C 229.144531 99.765625 230.628906 100.648438 232.496094 101.429688 Z M 230.605469 110.324219 L 229.117188 109.21875 C 230.152344 108.308594 231.183594 106.949219 232.21875 105.160156 L 233.605469 106.269531 C 232.746094 107.882812 231.738281 109.21875 230.605469 110.324219 Z M 234.738281 108.8125 L 232.21875 98.332031 L 233.980469 97.902344 L 235.039062 102.3125 C 235.34375 102.058594 235.796875 101.605469 236.375 100.976562 L 237.308594 102.789062 C 236.804688 103.371094 236.226562 103.925781 235.542969 104.429688 L 236.503906 108.359375 Z M 234.738281 108.8125 "/>
<path style=" stroke:none;fill-rule:nonzero;fill:rgb(100%,100%,100%);fill-opacity:1;" d="M 238.292969 122.546875 C 238.367188 124.816406 237.585938 126.78125 235.996094 128.445312 C 234.410156 130.109375 232.519531 130.964844 230.328125 131.015625 C 227.984375 131.089844 225.96875 130.359375 224.304688 128.796875 C 222.617188 127.261719 221.761719 125.320312 221.683594 122.949219 C 221.609375 120.65625 222.363281 118.667969 223.976562 117.003906 C 225.566406 115.339844 227.503906 114.484375 229.796875 114.40625 C 232.066406 114.332031 234.058594 115.089844 235.695312 116.652344 C 237.359375 118.238281 238.242188 120.203125 238.292969 122.546875 Z M 238.292969 122.546875 "/>
<path style=" stroke:none;fill-rule:nonzero;fill:rgb(100%,100%,100%);fill-opacity:1;" d="M 16.757812 141.144531 L 27.769531 139.558594 L 27.164062 135.449219 L 28.652344 135.25 L 30.089844 145.152344 L 28.601562 145.355469 L 27.996094 141.222656 L 16.984375 142.808594 Z M 16.757812 141.144531 "/>
<path style=" stroke:none;fill-rule:nonzero;fill:rgb(100%,100%,100%);fill-opacity:1;" d="M 19.65625 150.773438 C 19.050781 150.316406 18.597656 149.839844 18.296875 149.359375 C 17.992188 148.882812 17.765625 148.351562 17.640625 147.746094 C 17.4375 146.765625 17.515625 145.957031 17.890625 145.328125 C 18.269531 144.699219 18.824219 144.296875 19.554688 144.144531 C 19.984375 144.042969 20.410156 144.070312 20.816406 144.195312 C 21.21875 144.320312 21.570312 144.523438 21.847656 144.800781 C 22.125 145.078125 22.378906 145.402344 22.578125 145.78125 C 22.730469 146.058594 22.882812 146.488281 23.082031 147.09375 C 23.488281 148.277344 23.839844 149.160156 24.167969 149.6875 C 24.367188 149.636719 24.519531 149.613281 24.570312 149.613281 C 25.199219 149.488281 25.601562 149.257812 25.78125 148.90625 C 26.03125 148.453125 26.082031 147.824219 25.929688 147.066406 C 25.78125 146.363281 25.554688 145.859375 25.226562 145.554688 C 24.898438 145.277344 24.417969 145.101562 23.738281 145.078125 L 23.636719 143.539062 C 24.292969 143.539062 24.871094 143.664062 25.324219 143.890625 C 25.78125 144.117188 26.183594 144.496094 26.511719 145.050781 C 26.839844 145.582031 27.089844 146.234375 27.265625 147.015625 C 27.417969 147.773438 27.46875 148.429688 27.390625 148.933594 C 27.316406 149.4375 27.164062 149.839844 26.9375 150.117188 C 26.710938 150.394531 26.410156 150.621094 26.007812 150.796875 C 25.753906 150.898438 25.300781 151.023438 24.621094 151.175781 L 22.605469 151.601562 C 21.191406 151.90625 20.3125 152.132812 19.957031 152.257812 C 19.605469 152.410156 19.277344 152.609375 18.976562 152.863281 L 18.648438 151.277344 C 18.898438 151.074219 19.253906 150.898438 19.65625 150.773438 Z M 23.03125 149.941406 C 22.679688 149.4375 22.328125 148.65625 21.949219 147.570312 C 21.722656 146.964844 21.546875 146.539062 21.371094 146.3125 C 21.191406 146.085938 20.992188 145.90625 20.738281 145.808594 C 20.488281 145.707031 20.234375 145.679688 19.984375 145.757812 C 19.582031 145.832031 19.277344 146.058594 19.078125 146.4375 C 18.875 146.789062 18.824219 147.269531 18.949219 147.875 C 19.078125 148.453125 19.304688 148.957031 19.65625 149.359375 C 20.007812 149.761719 20.4375 150.015625 20.914062 150.140625 C 21.292969 150.242188 21.824219 150.21875 22.476562 150.066406 Z M 23.03125 149.941406 "/>
<path style=" stroke:none;fill-rule:nonzero;fill:rgb(100%,100%,100%);fill-opacity:1;" d="M 19.152344 153.34375 L 27.996094 151.023438 L 28.402344 152.535156 L 19.554688 154.855469 Z M 29.636719 150.570312 L 31.347656 150.117188 L 31.753906 151.628906 L 30.039062 152.082031 Z M 29.636719 150.570312 "/>
<path style=" stroke:none;fill-rule:nonzero;fill:rgb(100%,100%,100%);fill-opacity:1;" d="M 16.378906 156.769531 L 28.449219 152.964844 L 28.878906 154.300781 L 27.746094 154.652344 C 28.300781 154.828125 28.726562 155.082031 29.082031 155.410156 C 29.433594 155.734375 29.6875 156.191406 29.863281 156.769531 C 30.089844 157.523438 30.113281 158.230469 29.914062 158.910156 C 29.710938 159.589844 29.308594 160.195312 28.703125 160.726562 C 28.097656 161.230469 27.367188 161.632812 26.535156 161.886719 C 25.652344 162.160156 24.796875 162.261719 23.964844 162.160156 C 23.132812 162.0625 22.453125 161.785156 21.875 161.28125 C 21.292969 160.800781 20.914062 160.195312 20.6875 159.542969 C 20.539062 159.039062 20.488281 158.582031 20.589844 158.105469 C 20.664062 157.652344 20.839844 157.246094 21.066406 156.894531 L 16.859375 158.257812 Z M 24.46875 155.710938 C 23.335938 156.0625 22.578125 156.566406 22.203125 157.171875 C 21.796875 157.800781 21.722656 158.433594 21.925781 159.085938 C 22.125 159.742188 22.578125 160.222656 23.285156 160.523438 C 23.992188 160.828125 24.921875 160.777344 26.082031 160.398438 C 27.191406 160.046875 27.945312 159.566406 28.351562 158.910156 C 28.753906 158.28125 28.855469 157.652344 28.652344 157.019531 C 28.449219 156.390625 27.972656 155.9375 27.242188 155.636719 C 26.511719 155.308594 25.578125 155.332031 24.46875 155.710938 Z M 24.46875 155.710938 "/>
<path style=" stroke:none;fill-rule:nonzero;fill:rgb(100%,100%,100%);fill-opacity:1;" d="M 27.417969 168.5625 L 27.847656 170.125 C 26.886719 170.25 26.03125 170.074219 25.300781 169.644531 C 24.570312 169.21875 23.992188 168.488281 23.613281 167.503906 C 23.109375 166.269531 23.082031 165.136719 23.5625 164.101562 C 24.039062 163.070312 24.949219 162.261719 26.335938 161.707031 C 27.769531 161.128906 29.003906 161.054688 30.089844 161.457031 C 31.171875 161.859375 31.953125 162.664062 32.433594 163.824219 C 32.886719 164.960938 32.886719 166.042969 32.40625 167.074219 C 31.929688 168.109375 30.996094 168.914062 29.585938 169.46875 C 29.507812 169.496094 29.382812 169.546875 29.207031 169.621094 L 26.609375 163.296875 C 25.703125 163.722656 25.097656 164.277344 24.796875 164.960938 C 24.496094 165.640625 24.496094 166.320312 24.773438 167.027344 C 24.972656 167.554688 25.300781 167.957031 25.730469 168.210938 C 26.15625 168.460938 26.710938 168.589844 27.417969 168.5625 Z M 27.820312 162.894531 L 29.734375 167.628906 C 30.417969 167.277344 30.894531 166.875 31.121094 166.445312 C 31.5 165.765625 31.523438 165.058594 31.222656 164.328125 C 30.945312 163.675781 30.515625 163.195312 29.886719 162.941406 C 29.28125 162.640625 28.601562 162.640625 27.820312 162.894531 Z M 27.820312 162.894531 "/>
<path style=" stroke:none;fill-rule:nonzero;fill:rgb(100%,100%,100%);fill-opacity:1;" d="M 25.554688 171.585938 L 33.84375 167.730469 L 34.5 169.140625 L 26.207031 172.972656 Z M 35.40625 167.027344 L 37.019531 166.269531 L 37.675781 167.679688 L 36.0625 168.4375 Z M 35.40625 167.027344 "/>
<path style=" stroke:none;fill-rule:nonzero;fill:rgb(100%,100%,100%);fill-opacity:1;" d="M 28.097656 177.128906 L 38.960938 170.679688 L 40.246094 172.847656 L 34.09375 179.976562 C 33.515625 180.632812 33.085938 181.136719 32.785156 181.441406 C 33.265625 181.339844 33.945312 181.1875 34.875 180.988281 L 43.972656 179.097656 L 45.132812 181.035156 L 34.273438 187.488281 L 33.441406 186.101562 L 42.511719 180.710938 L 31.550781 182.953125 L 30.769531 181.667969 L 38.128906 173.023438 L 28.878906 178.515625 Z M 28.097656 177.128906 "/>
<path style=" stroke:none;fill-rule:nonzero;fill:rgb(100%,100%,100%);fill-opacity:1;" d="M 38.683594 193.386719 L 39.765625 192.578125 C 38.503906 192.628906 37.523438 192.148438 36.792969 191.167969 C 36.464844 190.738281 36.261719 190.261719 36.136719 189.757812 C 36.035156 189.253906 36.035156 188.824219 36.136719 188.445312 C 36.261719 188.066406 36.464844 187.714844 36.765625 187.386719 C 36.96875 187.160156 37.347656 186.832031 37.875 186.453125 L 42.4375 183.078125 L 43.371094 184.3125 L 39.285156 187.335938 C 38.632812 187.816406 38.226562 188.167969 38.027344 188.394531 C 37.75 188.722656 37.625 189.074219 37.625 189.453125 C 37.625 189.855469 37.773438 190.234375 38.050781 190.613281 C 38.328125 190.992188 38.683594 191.269531 39.109375 191.445312 C 39.539062 191.621094 39.96875 191.671875 40.394531 191.570312 C 40.824219 191.46875 41.351562 191.167969 41.984375 190.714844 L 45.914062 187.789062 L 46.847656 189.023438 L 39.488281 194.46875 Z M 38.683594 193.386719 "/>
<path style=" stroke:none;fill-rule:nonzero;fill:rgb(100%,100%,100%);fill-opacity:1;" d="M 40.21875 195.402344 L 47.125 189.402344 L 48.03125 190.460938 L 47.046875 191.320312 C 48.257812 191.167969 49.265625 191.570312 50.097656 192.527344 C 50.449219 192.957031 50.726562 193.386719 50.878906 193.863281 C 51.03125 194.34375 51.054688 194.769531 50.980469 195.148438 C 50.878906 195.527344 50.703125 195.90625 50.425781 196.257812 C 50.25 196.484375 49.894531 196.835938 49.339844 197.316406 L 45.082031 200.996094 L 44.074219 199.835938 L 48.28125 196.183594 C 48.761719 195.777344 49.089844 195.402344 49.242188 195.125 C 49.390625 194.820312 49.441406 194.492188 49.390625 194.140625 C 49.339844 193.789062 49.164062 193.460938 48.886719 193.132812 C 48.460938 192.628906 47.929688 192.351562 47.300781 192.25 C 46.671875 192.175781 45.914062 192.503906 45.03125 193.257812 L 41.253906 196.535156 Z M 40.21875 195.402344 "/>
<path style=" stroke:none;fill-rule:nonzero;fill:rgb(100%,100%,100%);fill-opacity:1;" d="M 45.761719 201.652344 L 52.367188 195.324219 L 53.449219 196.433594 L 46.847656 202.757812 Z M 53.601562 194.140625 L 54.886719 192.90625 L 55.96875 194.015625 L 54.683594 195.25 Z M 53.601562 194.140625 "/>
<path style=" stroke:none;fill-rule:nonzero;fill:rgb(100%,100%,100%);fill-opacity:1;" d="M 54.054688 205.128906 L 55.011719 206.335938 C 54.15625 206.992188 53.296875 207.269531 52.390625 207.246094 C 51.484375 207.195312 50.675781 206.839844 49.945312 206.136719 C 49.039062 205.277344 48.585938 204.269531 48.609375 203.164062 C 48.636719 202.054688 49.164062 200.945312 50.222656 199.835938 C 50.902344 199.128906 51.636719 198.601562 52.367188 198.296875 C 53.121094 197.996094 53.851562 197.921875 54.609375 198.121094 C 55.339844 198.324219 55.996094 198.675781 56.574219 199.230469 C 57.28125 199.910156 57.707031 200.667969 57.808594 201.449219 C 57.910156 202.253906 57.707031 203.035156 57.203125 203.84375 L 55.945312 202.960938 C 56.273438 202.40625 56.398438 201.902344 56.347656 201.421875 C 56.296875 200.945312 56.09375 200.542969 55.71875 200.164062 C 55.164062 199.632812 54.507812 199.382812 53.75 199.457031 C 53.019531 199.535156 52.214844 199.988281 51.382812 200.871094 C 50.527344 201.75 50.097656 202.558594 50.046875 203.289062 C 49.996094 204.019531 50.25 204.648438 50.804688 205.179688 C 51.230469 205.605469 51.734375 205.808594 52.289062 205.832031 C 52.84375 205.859375 53.449219 205.605469 54.054688 205.128906 Z M 54.054688 205.128906 "/>
<path style=" stroke:none;fill-rule:nonzero;fill:rgb(100%,100%,100%);fill-opacity:1;" d="M 52.769531 208.453125 L 58.792969 201.574219 L 59.949219 202.609375 L 53.929688 209.488281 Z M 59.925781 200.289062 L 61.109375 198.953125 L 62.269531 199.988281 L 61.085938 201.324219 Z M 59.925781 200.289062 "/>
<path style=" stroke:none;fill-rule:nonzero;fill:rgb(100%,100%,100%);fill-opacity:1;" d="M 52.414062 212.839844 L 60.277344 202.9375 L 61.386719 203.816406 L 60.65625 204.75 C 61.210938 204.597656 61.714844 204.546875 62.195312 204.625 C 62.671875 204.699219 63.125 204.925781 63.605469 205.304688 C 64.210938 205.78125 64.636719 206.386719 64.839844 207.070312 C 65.066406 207.75 65.066406 208.480469 64.839844 209.234375 C 64.613281 209.992188 64.234375 210.722656 63.707031 211.402344 C 63.125 212.132812 62.472656 212.6875 61.738281 213.066406 C 61.007812 213.445312 60.277344 213.59375 59.523438 213.496094 C 58.765625 213.417969 58.109375 213.140625 57.558594 212.714844 C 57.152344 212.386719 56.851562 212.007812 56.675781 211.605469 C 56.5 211.175781 56.398438 210.746094 56.398438 210.320312 L 53.625 213.796875 Z M 58.488281 207.445312 C 57.757812 208.378906 57.40625 209.210938 57.429688 209.941406 C 57.457031 210.671875 57.734375 211.25 58.261719 211.679688 C 58.792969 212.109375 59.445312 212.234375 60.203125 212.082031 C 60.957031 211.933594 61.714844 211.378906 62.472656 210.421875 C 63.203125 209.511719 63.554688 208.679688 63.527344 207.925781 C 63.503906 207.167969 63.253906 206.589844 62.722656 206.1875 C 62.195312 205.78125 61.5625 205.65625 60.78125 205.832031 C 60 205.960938 59.21875 206.515625 58.488281 207.445312 Z M 58.488281 207.445312 "/>
<path style=" stroke:none;fill-rule:nonzero;fill:rgb(100%,100%,100%);fill-opacity:1;" d="M 66.878906 217.777344 C 66.125 217.855469 65.46875 217.828125 64.941406 217.703125 C 64.410156 217.578125 63.855469 217.324219 63.351562 216.996094 C 62.519531 216.441406 62.015625 215.789062 61.839844 215.082031 C 61.664062 214.375 61.789062 213.695312 62.21875 213.066406 C 62.472656 212.6875 62.773438 212.410156 63.152344 212.210938 C 63.527344 212.007812 63.90625 211.90625 64.308594 211.90625 C 64.714844 211.90625 65.117188 211.980469 65.519531 212.109375 C 65.824219 212.210938 66.25 212.410156 66.78125 212.6875 C 67.890625 213.269531 68.769531 213.621094 69.375 213.796875 C 69.5 213.621094 69.578125 213.519531 69.601562 213.46875 C 69.957031 212.941406 70.082031 212.488281 69.980469 212.109375 C 69.855469 211.605469 69.453125 211.125 68.820312 210.695312 C 68.214844 210.292969 67.6875 210.09375 67.257812 210.117188 C 66.832031 210.144531 66.351562 210.371094 65.871094 210.824219 L 64.738281 209.816406 C 65.21875 209.363281 65.695312 209.058594 66.175781 208.882812 C 66.652344 208.730469 67.207031 208.730469 67.839844 208.882812 C 68.441406 209.035156 69.097656 209.335938 69.726562 209.765625 C 70.382812 210.191406 70.863281 210.621094 71.164062 211.050781 C 71.46875 211.476562 71.644531 211.855469 71.667969 212.234375 C 71.695312 212.585938 71.644531 212.964844 71.46875 213.367188 C 71.367188 213.621094 71.113281 214.023438 70.738281 214.601562 L 69.578125 216.316406 C 68.769531 217.5 68.292969 218.28125 68.140625 218.636719 C 67.988281 218.988281 67.890625 219.367188 67.863281 219.769531 L 66.527344 218.863281 C 66.554688 218.535156 66.679688 218.15625 66.878906 217.777344 Z M 68.71875 214.828125 C 68.117188 214.703125 67.308594 214.402344 66.300781 213.898438 C 65.722656 213.621094 65.292969 213.445312 65.015625 213.394531 C 64.738281 213.34375 64.460938 213.367188 64.234375 213.46875 C 63.984375 213.570312 63.804688 213.746094 63.65625 213.949219 C 63.429688 214.300781 63.351562 214.652344 63.480469 215.058594 C 63.578125 215.460938 63.882812 215.839844 64.386719 216.164062 C 64.890625 216.492188 65.394531 216.695312 65.921875 216.71875 C 66.453125 216.769531 66.929688 216.667969 67.386719 216.390625 C 67.710938 216.191406 68.066406 215.8125 68.46875 215.257812 Z M 68.71875 214.828125 "/>
<path style=" stroke:none;fill-rule:nonzero;fill:rgb(100%,100%,100%);fill-opacity:1;" d="M 68.265625 219.972656 L 74.820312 209.160156 L 76.15625 209.964844 L 69.601562 220.777344 Z M 68.265625 219.972656 "/>
<path style=" stroke:none;fill-rule:nonzero;fill:rgb(100%,100%,100%);fill-opacity:1;" d="M 73.484375 223.121094 L 78.976562 211.753906 L 80.515625 212.511719 L 82.152344 224.332031 L 86.460938 215.410156 L 87.898438 216.113281 L 82.402344 227.480469 L 80.867188 226.722656 L 79.230469 214.90625 L 74.894531 223.828125 Z M 73.484375 223.121094 "/>
<path style=" stroke:none;fill-rule:nonzero;fill:rgb(100%,100%,100%);fill-opacity:1;" d="M 89.761719 228.992188 C 89.058594 229.246094 88.425781 229.371094 87.847656 229.371094 C 87.269531 229.371094 86.714844 229.269531 86.132812 229.042969 C 85.203125 228.691406 84.546875 228.1875 84.21875 227.53125 C 83.890625 226.875 83.867188 226.195312 84.117188 225.488281 C 84.269531 225.0625 84.519531 224.734375 84.824219 224.457031 C 85.152344 224.179688 85.503906 224.003906 85.882812 223.902344 C 86.257812 223.800781 86.6875 223.777344 87.117188 223.828125 C 87.417969 223.851562 87.898438 223.953125 88.476562 224.105469 C 89.710938 224.40625 90.621094 224.558594 91.25 224.582031 C 91.324219 224.378906 91.375 224.253906 91.402344 224.203125 C 91.628906 223.625 91.652344 223.144531 91.449219 222.792969 C 91.199219 222.3125 90.71875 221.960938 89.988281 221.683594 C 89.308594 221.433594 88.753906 221.355469 88.351562 221.484375 C 87.949219 221.609375 87.542969 221.9375 87.140625 222.492188 L 85.804688 221.761719 C 86.160156 221.207031 86.5625 220.800781 86.992188 220.523438 C 87.417969 220.273438 87.972656 220.148438 88.601562 220.148438 C 89.234375 220.148438 89.914062 220.296875 90.667969 220.574219 C 91.402344 220.851562 91.953125 221.15625 92.359375 221.507812 C 92.761719 221.859375 93.011719 222.1875 93.113281 222.542969 C 93.238281 222.894531 93.265625 223.273438 93.191406 223.699219 C 93.140625 223.976562 93.011719 224.429688 92.761719 225.0625 L 92.03125 227 C 91.527344 228.363281 91.222656 229.21875 91.171875 229.597656 C 91.097656 229.976562 91.097656 230.378906 91.148438 230.757812 L 89.636719 230.175781 C 89.609375 229.796875 89.660156 229.421875 89.761719 228.992188 Z M 90.847656 225.714844 C 90.242188 225.742188 89.382812 225.617188 88.277344 225.363281 C 87.644531 225.238281 87.191406 225.160156 86.890625 225.1875 C 86.613281 225.210938 86.359375 225.289062 86.132812 225.4375 C 85.933594 225.589844 85.753906 225.792969 85.679688 226.042969 C 85.527344 226.421875 85.554688 226.800781 85.753906 227.179688 C 85.957031 227.554688 86.335938 227.832031 86.890625 228.058594 C 87.445312 228.261719 88 228.335938 88.527344 228.261719 C 89.058594 228.1875 89.511719 227.960938 89.863281 227.605469 C 90.140625 227.328125 90.390625 226.875 90.644531 226.246094 Z M 90.847656 225.714844 "/>
<path style=" stroke:none;fill-rule:nonzero;fill:rgb(100%,100%,100%);fill-opacity:1;" d="M 91.804688 230.933594 L 94.347656 222.136719 L 95.683594 222.515625 L 95.332031 223.777344 C 96.265625 222.996094 97.324219 222.792969 98.558594 223.144531 C 99.085938 223.296875 99.539062 223.523438 99.941406 223.851562 C 100.320312 224.179688 100.597656 224.507812 100.722656 224.886719 C 100.851562 225.261719 100.902344 225.664062 100.875 226.121094 C 100.851562 226.421875 100.75 226.902344 100.546875 227.582031 L 98.984375 232.972656 L 97.5 232.546875 L 99.035156 227.203125 C 99.210938 226.597656 99.289062 226.121094 99.261719 225.792969 C 99.238281 225.464844 99.085938 225.160156 98.859375 224.886719 C 98.609375 224.632812 98.304688 224.429688 97.902344 224.304688 C 97.273438 224.128906 96.667969 224.152344 96.085938 224.429688 C 95.507812 224.707031 95.054688 225.390625 94.726562 226.523438 L 93.339844 231.3125 Z M 91.804688 230.933594 "/>
<path style=" stroke:none;fill-rule:nonzero;fill:rgb(100%,100%,100%);fill-opacity:1;" d="M 99.566406 233.929688 L 101 234.460938 C 100.976562 234.941406 101.078125 235.292969 101.304688 235.570312 C 101.632812 235.921875 102.109375 236.175781 102.765625 236.300781 C 103.472656 236.453125 104.050781 236.425781 104.480469 236.226562 C 104.90625 236.023438 105.261719 235.671875 105.488281 235.191406 C 105.636719 234.890625 105.789062 234.257812 105.992188 233.277344 C 105.160156 233.929688 104.253906 234.132812 103.269531 233.929688 C 102.035156 233.679688 101.179688 233.050781 100.675781 232.015625 C 100.171875 230.984375 100.070312 229.847656 100.320312 228.613281 C 100.496094 227.757812 100.824219 227 101.277344 226.347656 C 101.730469 225.691406 102.3125 225.210938 102.96875 224.960938 C 103.648438 224.683594 104.378906 224.632812 105.160156 224.785156 C 106.21875 225.011719 107 225.617188 107.503906 226.597656 L 107.730469 225.515625 L 109.140625 225.792969 L 107.554688 233.527344 C 107.277344 234.914062 106.921875 235.871094 106.519531 236.402344 C 106.117188 236.929688 105.5625 237.28125 104.882812 237.511719 C 104.203125 237.710938 103.394531 237.738281 102.511719 237.558594 C 101.457031 237.332031 100.625 236.929688 100.070312 236.300781 C 99.515625 235.671875 99.339844 234.890625 99.566406 233.929688 Z M 101.933594 228.816406 C 101.683594 230 101.757812 230.90625 102.109375 231.539062 C 102.464844 232.167969 102.992188 232.570312 103.699219 232.695312 C 104.402344 232.847656 105.035156 232.695312 105.613281 232.242188 C 106.191406 231.816406 106.597656 231.007812 106.847656 229.875 C 107.074219 228.765625 107 227.910156 106.621094 227.253906 C 106.242188 226.597656 105.714844 226.195312 105.035156 226.042969 C 104.351562 225.894531 103.722656 226.070312 103.144531 226.523438 C 102.5625 226.953125 102.160156 227.730469 101.933594 228.816406 Z M 101.933594 228.816406 "/>
<path style=" stroke:none;fill-rule:nonzero;fill:rgb(100%,100%,100%);fill-opacity:1;" d="M 114.433594 234.5625 C 113.804688 234.964844 113.199219 235.242188 112.667969 235.367188 C 112.113281 235.492188 111.535156 235.519531 110.929688 235.445312 C 109.921875 235.316406 109.191406 234.988281 108.710938 234.4375 C 108.234375 233.882812 108.058594 233.226562 108.132812 232.46875 C 108.183594 232.015625 108.335938 231.636719 108.585938 231.285156 C 108.839844 230.933594 109.140625 230.679688 109.492188 230.503906 C 109.847656 230.328125 110.25 230.203125 110.652344 230.152344 C 110.957031 230.101562 111.433594 230.101562 112.039062 230.101562 C 113.300781 230.101562 114.230469 230.050781 114.863281 229.925781 C 114.886719 229.722656 114.910156 229.570312 114.910156 229.523438 C 114.988281 228.890625 114.910156 228.4375 114.636719 228.136719 C 114.28125 227.730469 113.726562 227.480469 112.945312 227.40625 C 112.214844 227.304688 111.660156 227.378906 111.308594 227.582031 C 110.929688 227.78125 110.628906 228.210938 110.375 228.839844 L 108.890625 228.4375 C 109.117188 227.808594 109.394531 227.328125 109.769531 226.953125 C 110.125 226.597656 110.628906 226.347656 111.234375 226.21875 C 111.863281 226.070312 112.542969 226.070312 113.324219 226.171875 C 114.105469 226.269531 114.710938 226.445312 115.1875 226.675781 C 115.644531 226.925781 115.96875 227.203125 116.171875 227.503906 C 116.375 227.808594 116.472656 228.1875 116.523438 228.613281 C 116.550781 228.890625 116.5 229.371094 116.425781 230.050781 L 116.171875 232.09375 C 115.996094 233.527344 115.921875 234.4375 115.921875 234.8125 C 115.945312 235.191406 116.019531 235.570312 116.171875 235.949219 L 114.558594 235.746094 C 114.484375 235.367188 114.433594 234.988281 114.433594 234.5625 Z M 114.734375 231.109375 C 114.15625 231.261719 113.273438 231.359375 112.140625 231.386719 C 111.484375 231.386719 111.03125 231.4375 110.753906 231.511719 C 110.476562 231.589844 110.25 231.738281 110.074219 231.941406 C 109.898438 232.140625 109.796875 232.371094 109.769531 232.644531 C 109.722656 233.050781 109.820312 233.425781 110.097656 233.730469 C 110.375 234.03125 110.804688 234.234375 111.410156 234.308594 C 112.015625 234.386719 112.542969 234.308594 113.046875 234.109375 C 113.550781 233.90625 113.929688 233.605469 114.207031 233.175781 C 114.40625 232.847656 114.558594 232.34375 114.660156 231.664062 Z M 114.734375 231.109375 "/>
<path style=" stroke:none;fill-rule:nonzero;fill:rgb(100%,100%,100%);fill-opacity:1;" d="M 116.851562 235.949219 L 117.304688 226.800781 L 118.691406 226.875 L 118.640625 228.1875 C 119.371094 227.203125 120.355469 226.75 121.613281 226.824219 C 122.167969 226.851562 122.671875 226.976562 123.128906 227.203125 C 123.582031 227.429688 123.910156 227.707031 124.136719 228.035156 C 124.335938 228.363281 124.488281 228.765625 124.5625 229.195312 C 124.613281 229.472656 124.613281 229.976562 124.589844 230.707031 L 124.3125 236.324219 L 122.773438 236.25 L 123.050781 230.679688 C 123.078125 230.050781 123.050781 229.570312 122.949219 229.246094 C 122.851562 228.917969 122.648438 228.664062 122.347656 228.464844 C 122.042969 228.261719 121.691406 228.160156 121.289062 228.136719 C 120.632812 228.109375 120.054688 228.285156 119.546875 228.691406 C 119.042969 229.09375 118.769531 229.875 118.71875 231.035156 L 118.464844 236.023438 Z M 116.851562 235.949219 "/>
<path style=" stroke:none;fill-rule:nonzero;fill:rgb(100%,100%,100%);fill-opacity:1;" d="M 125.117188 237.082031 L 126.628906 237.257812 C 126.707031 237.710938 126.882812 238.0625 127.183594 238.265625 C 127.585938 238.542969 128.117188 238.667969 128.773438 238.644531 C 129.476562 238.617188 130.03125 238.46875 130.410156 238.164062 C 130.789062 237.863281 131.039062 237.460938 131.164062 236.929688 C 131.242188 236.601562 131.265625 235.949219 131.214844 234.941406 C 130.5625 235.746094 129.730469 236.175781 128.722656 236.199219 C 127.460938 236.226562 126.480469 235.796875 125.773438 234.914062 C 125.066406 234.03125 124.691406 232.949219 124.640625 231.6875 C 124.613281 230.808594 124.738281 230 125.042969 229.269531 C 125.34375 228.511719 125.773438 227.933594 126.378906 227.53125 C 126.957031 227.101562 127.664062 226.902344 128.46875 226.875 C 129.554688 226.851562 130.460938 227.253906 131.164062 228.109375 L 131.140625 227 L 132.578125 226.953125 L 132.804688 234.863281 C 132.855469 236.273438 132.726562 237.308594 132.453125 237.914062 C 132.175781 238.519531 131.71875 238.996094 131.117188 239.347656 C 130.484375 239.703125 129.730469 239.902344 128.796875 239.929688 C 127.714844 239.953125 126.804688 239.726562 126.125 239.273438 C 125.445312 238.820312 125.117188 238.089844 125.117188 237.082031 Z M 126.253906 231.5625 C 126.277344 232.773438 126.554688 233.628906 127.03125 234.160156 C 127.539062 234.6875 128.117188 234.964844 128.847656 234.941406 C 129.554688 234.914062 130.15625 234.636719 130.613281 234.058594 C 131.089844 233.503906 131.292969 232.621094 131.265625 231.460938 C 131.242188 230.351562 130.964844 229.496094 130.460938 228.941406 C 129.957031 228.386719 129.351562 228.109375 128.644531 228.136719 C 127.964844 228.160156 127.386719 228.464844 126.90625 229.019531 C 126.429688 229.621094 126.203125 230.453125 126.253906 231.5625 Z M 126.253906 231.5625 "/>
<path style=" stroke:none;fill-rule:nonzero;fill:rgb(100%,100%,100%);fill-opacity:1;" d="M 141.042969 235.242188 L 134.390625 223.449219 L 136.179688 223.195312 L 140.742188 231.816406 C 141.121094 232.496094 141.421875 233.152344 141.699219 233.753906 C 141.800781 233.050781 141.925781 232.320312 142.078125 231.613281 L 144.144531 222.039062 L 145.832031 221.785156 L 142.757812 234.988281 Z M 141.042969 235.242188 "/>
<path style=" stroke:none;fill-rule:nonzero;fill:rgb(100%,100%,100%);fill-opacity:1;" d="M 145.125 230.050781 C 144.75 228.386719 144.925781 227.078125 145.679688 226.070312 C 146.3125 225.238281 147.167969 224.683594 148.25 224.457031 C 149.488281 224.179688 150.570312 224.355469 151.527344 224.984375 C 152.484375 225.617188 153.113281 226.648438 153.441406 228.058594 C 153.695312 229.21875 153.746094 230.152344 153.542969 230.882812 C 153.34375 231.613281 152.964844 232.242188 152.382812 232.746094 C 151.804688 233.25 151.125 233.605469 150.34375 233.78125 C 149.082031 234.058594 148 233.882812 147.042969 233.25 C 146.085938 232.621094 145.480469 231.5625 145.125 230.050781 Z M 146.6875 229.699219 C 146.941406 230.832031 147.394531 231.636719 148.023438 232.09375 C 148.65625 232.546875 149.335938 232.695312 150.089844 232.519531 C 150.847656 232.34375 151.402344 231.914062 151.78125 231.234375 C 152.15625 230.554688 152.207031 229.621094 151.929688 228.464844 C 151.679688 227.355469 151.25 226.574219 150.621094 226.121094 C 149.992188 225.664062 149.308594 225.515625 148.554688 225.691406 C 147.796875 225.867188 147.242188 226.296875 146.867188 226.976562 C 146.488281 227.65625 146.4375 228.5625 146.6875 229.699219 Z M 146.6875 229.699219 "/>
<path style=" stroke:none;fill-rule:nonzero;fill:rgb(100%,100%,100%);fill-opacity:1;" d="M 159.71875 227.53125 L 161.230469 227.277344 C 161.378906 228.335938 161.203125 229.246094 160.726562 230 C 160.246094 230.757812 159.515625 231.285156 158.558594 231.589844 C 157.347656 231.941406 156.289062 231.863281 155.308594 231.285156 C 154.351562 230.730469 153.644531 229.722656 153.191406 228.261719 C 152.914062 227.304688 152.8125 226.445312 152.914062 225.640625 C 153.015625 224.835938 153.316406 224.152344 153.871094 223.597656 C 154.402344 223.046875 155.054688 222.667969 155.785156 222.441406 C 156.742188 222.164062 157.574219 222.164062 158.332031 222.441406 C 159.085938 222.742188 159.667969 223.296875 160.121094 224.128906 L 158.734375 224.785156 C 158.40625 224.230469 158.027344 223.875 157.601562 223.675781 C 157.171875 223.472656 156.695312 223.472656 156.191406 223.625 C 155.433594 223.851562 154.90625 224.304688 154.601562 224.984375 C 154.300781 225.664062 154.324219 226.574219 154.675781 227.730469 C 155.03125 228.917969 155.507812 229.699219 156.140625 230.101562 C 156.742188 230.503906 157.425781 230.578125 158.15625 230.351562 C 158.734375 230.175781 159.164062 229.847656 159.441406 229.371094 C 159.769531 228.917969 159.84375 228.285156 159.71875 227.53125 Z M 159.71875 227.53125 "/>
<path style=" stroke:none;fill-rule:nonzero;fill:rgb(100%,100%,100%);fill-opacity:1;" d="M 167.351562 227.050781 C 167 227.707031 166.597656 228.238281 166.167969 228.613281 C 165.742188 228.992188 165.261719 229.292969 164.683594 229.523438 C 163.75 229.875 162.941406 229.925781 162.261719 229.671875 C 161.582031 229.421875 161.105469 228.917969 160.828125 228.210938 C 160.675781 227.78125 160.625 227.378906 160.675781 226.953125 C 160.726562 226.523438 160.875 226.171875 161.105469 225.84375 C 161.332031 225.515625 161.609375 225.210938 161.960938 224.960938 C 162.210938 224.785156 162.617188 224.53125 163.171875 224.253906 C 164.277344 223.675781 165.085938 223.171875 165.5625 222.769531 C 165.488281 222.566406 165.4375 222.441406 165.4375 222.390625 C 165.210938 221.808594 164.910156 221.433594 164.554688 221.304688 C 164.050781 221.128906 163.445312 221.179688 162.714844 221.457031 C 162.035156 221.710938 161.582031 222.039062 161.355469 222.390625 C 161.128906 222.742188 161.054688 223.273438 161.128906 223.925781 L 159.640625 224.28125 C 159.542969 223.625 159.566406 223.046875 159.71875 222.566406 C 159.867188 222.085938 160.195312 221.632812 160.675781 221.207031 C 161.152344 220.777344 161.757812 220.449219 162.488281 220.148438 C 163.21875 219.871094 163.851562 219.71875 164.355469 219.71875 C 164.882812 219.71875 165.285156 219.792969 165.613281 219.972656 C 165.941406 220.148438 166.195312 220.425781 166.445312 220.777344 C 166.597656 221.003906 166.773438 221.433594 167.027344 222.085938 L 167.78125 224.027344 C 168.3125 225.363281 168.664062 226.21875 168.863281 226.546875 C 169.066406 226.875 169.320312 227.179688 169.621094 227.429688 L 168.109375 228.007812 C 167.78125 227.757812 167.554688 227.429688 167.351562 227.050781 Z M 165.992188 223.875 C 165.539062 224.304688 164.832031 224.785156 163.851562 225.339844 C 163.296875 225.664062 162.894531 225.917969 162.691406 226.121094 C 162.488281 226.320312 162.363281 226.546875 162.3125 226.800781 C 162.261719 227.050781 162.289062 227.304688 162.390625 227.554688 C 162.539062 227.933594 162.816406 228.210938 163.195312 228.363281 C 163.597656 228.511719 164.050781 228.464844 164.632812 228.261719 C 165.1875 228.035156 165.640625 227.730469 165.96875 227.328125 C 166.292969 226.925781 166.496094 226.472656 166.546875 225.96875 C 166.570312 225.589844 166.472656 225.0625 166.21875 224.429688 Z M 165.992188 223.875 "/>
<path style=" stroke:none;fill-rule:nonzero;fill:rgb(100%,100%,100%);fill-opacity:1;" d="M 172.492188 224.507812 L 173.25 225.664062 C 172.898438 225.917969 172.542969 226.121094 172.242188 226.269531 C 171.738281 226.496094 171.285156 226.597656 170.929688 226.574219 C 170.578125 226.546875 170.277344 226.421875 170.050781 226.195312 C 169.824219 225.992188 169.496094 225.4375 169.117188 224.609375 L 166.949219 219.820312 L 165.917969 220.273438 L 165.414062 219.164062 L 166.445312 218.710938 L 165.511719 216.644531 L 166.546875 215.15625 L 167.855469 218.082031 L 169.269531 217.449219 L 169.773438 218.558594 L 168.359375 219.191406 L 170.554688 224.078125 C 170.730469 224.480469 170.882812 224.734375 170.980469 224.835938 C 171.082031 224.933594 171.207031 224.984375 171.359375 225.011719 C 171.511719 225.035156 171.6875 224.984375 171.890625 224.886719 C 172.066406 224.757812 172.265625 224.65625 172.492188 224.507812 Z M 172.492188 224.507812 "/>
<path style=" stroke:none;fill-rule:nonzero;fill:rgb(100%,100%,100%);fill-opacity:1;" d="M 168.285156 216.015625 L 167.503906 214.402344 L 168.890625 213.722656 L 169.671875 215.335938 Z M 172.972656 225.792969 L 169.015625 217.550781 L 170.402344 216.871094 L 174.359375 225.113281 Z M 172.972656 225.792969 "/>
<path style=" stroke:none;fill-rule:nonzero;fill:rgb(100%,100%,100%);fill-opacity:1;" d="M 172.542969 221.027344 C 171.738281 219.542969 171.5625 218.207031 171.988281 217.046875 C 172.367188 216.066406 173.046875 215.335938 174.03125 214.78125 C 175.140625 214.175781 176.25 214.046875 177.332031 214.402344 C 178.414062 214.753906 179.324219 215.5625 180.003906 216.820312 C 180.558594 217.855469 180.859375 218.761719 180.859375 219.515625 C 180.859375 220.273438 180.660156 220.980469 180.253906 221.632812 C 179.851562 222.289062 179.273438 222.792969 178.59375 223.171875 C 177.457031 223.777344 176.347656 223.925781 175.265625 223.574219 C 174.183594 223.222656 173.273438 222.363281 172.542969 221.027344 Z M 173.929688 220.246094 C 174.484375 221.28125 175.140625 221.9375 175.871094 222.1875 C 176.601562 222.464844 177.308594 222.414062 177.988281 222.039062 C 178.667969 221.660156 179.097656 221.105469 179.246094 220.347656 C 179.425781 219.59375 179.222656 218.6875 178.644531 217.628906 C 178.113281 216.644531 177.457031 216.015625 176.726562 215.738281 C 175.996094 215.460938 175.292969 215.511719 174.636719 215.886719 C 173.957031 216.265625 173.527344 216.820312 173.351562 217.578125 C 173.199219 218.332031 173.375 219.238281 173.929688 220.246094 Z M 173.929688 220.246094 "/>
<path style=" stroke:none;fill-rule:nonzero;fill:rgb(100%,100%,100%);fill-opacity:1;" d="M 182.699219 220.652344 L 177.734375 212.964844 L 178.894531 212.210938 L 179.601562 213.292969 C 179.625 212.082031 180.15625 211.125 181.214844 210.445312 C 181.667969 210.144531 182.144531 209.941406 182.648438 209.867188 C 183.152344 209.789062 183.582031 209.816406 183.933594 209.964844 C 184.3125 210.117188 184.640625 210.34375 184.96875 210.671875 C 185.167969 210.875 185.472656 211.277344 185.851562 211.882812 L 188.898438 216.59375 L 187.589844 217.425781 L 184.566406 212.761719 C 184.210938 212.234375 183.910156 211.882812 183.632812 211.679688 C 183.355469 211.476562 183.054688 211.378906 182.675781 211.402344 C 182.320312 211.402344 181.96875 211.527344 181.617188 211.753906 C 181.0625 212.109375 180.710938 212.613281 180.53125 213.21875 C 180.355469 213.820312 180.582031 214.628906 181.214844 215.609375 L 183.933594 219.792969 Z M 182.699219 220.652344 "/>
<path style=" stroke:none;fill-rule:nonzero;fill:rgb(100%,100%,100%);fill-opacity:1;" d="M 193.914062 211.453125 C 193.761719 212.183594 193.511719 212.789062 193.234375 213.292969 C 192.929688 213.773438 192.554688 214.199219 192.050781 214.578125 C 191.242188 215.183594 190.488281 215.460938 189.757812 215.410156 C 189.023438 215.359375 188.445312 215.007812 187.96875 214.402344 C 187.691406 214.046875 187.539062 213.671875 187.460938 213.242188 C 187.414062 212.8125 187.4375 212.4375 187.5625 212.058594 C 187.691406 211.679688 187.890625 211.328125 188.144531 210.972656 C 188.34375 210.722656 188.648438 210.394531 189.101562 209.941406 C 190.007812 209.058594 190.636719 208.355469 190.964844 207.847656 C 190.839844 207.671875 190.765625 207.574219 190.738281 207.523438 C 190.359375 207.019531 189.957031 206.765625 189.578125 206.714844 C 189.050781 206.664062 188.472656 206.890625 187.867188 207.371094 C 187.285156 207.824219 186.933594 208.253906 186.808594 208.65625 C 186.679688 209.058594 186.757812 209.589844 187.007812 210.191406 L 185.671875 210.949219 C 185.394531 210.34375 185.246094 209.789062 185.269531 209.285156 C 185.269531 208.78125 185.445312 208.253906 185.800781 207.722656 C 186.152344 207.195312 186.632812 206.691406 187.261719 206.210938 C 187.890625 205.734375 188.445312 205.429688 188.949219 205.277344 C 189.453125 205.128906 189.882812 205.101562 190.234375 205.179688 C 190.585938 205.253906 190.914062 205.429688 191.269531 205.734375 C 191.46875 205.910156 191.773438 206.289062 192.199219 206.816406 L 193.460938 208.453125 C 194.34375 209.589844 194.921875 210.292969 195.199219 210.570312 C 195.476562 210.824219 195.804688 211.050781 196.183594 211.203125 L 194.898438 212.183594 C 194.519531 212.007812 194.214844 211.78125 193.914062 211.453125 Z M 191.722656 208.78125 C 191.417969 209.3125 190.863281 209.964844 190.058594 210.773438 C 189.605469 211.226562 189.300781 211.578125 189.175781 211.832031 C 189.023438 212.082031 188.976562 212.335938 189 212.613281 C 189.023438 212.890625 189.101562 213.117188 189.277344 213.316406 C 189.527344 213.644531 189.855469 213.820312 190.285156 213.847656 C 190.714844 213.871094 191.140625 213.695312 191.621094 213.34375 C 192.097656 212.992188 192.425781 212.5625 192.652344 212.058594 C 192.855469 211.578125 192.929688 211.074219 192.832031 210.570312 C 192.753906 210.191406 192.503906 209.738281 192.097656 209.183594 Z M 191.722656 208.78125 "/>
<path style=" stroke:none;fill-rule:nonzero;fill:rgb(100%,100%,100%);fill-opacity:1;" d="M 196.410156 210.875 L 188.269531 201.222656 L 189.453125 200.214844 L 197.59375 209.867188 Z M 196.410156 210.875 "/>
<path style=" stroke:none;fill-rule:nonzero;fill:rgb(100%,100%,100%);fill-opacity:1;" d="M 201.121094 206.867188 L 192.125 198.023438 L 193.308594 196.835938 L 197.011719 200.464844 L 201.625 195.777344 L 197.921875 192.148438 L 199.105469 190.964844 L 208.101562 199.8125 L 206.917969 200.996094 L 202.683594 196.8125 L 198.070312 201.5 L 202.304688 205.683594 Z M 201.121094 206.867188 "/>
<path style=" stroke:none;fill-rule:nonzero;fill:rgb(100%,100%,100%);fill-opacity:1;" d="M 200.617188 191.722656 L 199.28125 190.5625 L 200.289062 189.402344 L 201.625 190.5625 Z M 208.808594 198.828125 L 201.902344 192.832031 L 202.910156 191.671875 L 209.816406 197.667969 Z M 208.808594 198.828125 "/>
<path style=" stroke:none;fill-rule:nonzero;fill:rgb(100%,100%,100%);fill-opacity:1;" d="M 210.875 197.695312 L 211.980469 196.636719 C 212.386719 196.863281 212.761719 196.9375 213.117188 196.863281 C 213.570312 196.738281 214.023438 196.410156 214.425781 195.878906 C 214.878906 195.324219 215.105469 194.796875 215.105469 194.316406 C 215.132812 193.839844 214.980469 193.386719 214.652344 192.957031 C 214.453125 192.703125 213.949219 192.25 213.167969 191.644531 C 213.367188 192.679688 213.167969 193.585938 212.535156 194.367188 C 211.753906 195.351562 210.796875 195.855469 209.664062 195.828125 C 208.53125 195.804688 207.445312 195.402344 206.464844 194.621094 C 205.78125 194.089844 205.230469 193.460938 204.851562 192.753906 C 204.472656 192.050781 204.296875 191.34375 204.347656 190.613281 C 204.398438 189.882812 204.675781 189.203125 205.179688 188.570312 C 205.832031 187.714844 206.742188 187.285156 207.847656 187.285156 L 206.992188 186.605469 L 207.875 185.472656 L 214.097656 190.359375 C 215.207031 191.242188 215.914062 191.972656 216.214844 192.578125 C 216.492188 193.183594 216.59375 193.8125 216.46875 194.542969 C 216.34375 195.273438 216.015625 195.957031 215.433594 196.6875 C 214.753906 197.542969 214.023438 198.097656 213.21875 198.296875 C 212.410156 198.527344 211.628906 198.324219 210.875 197.695312 Z M 207.34375 193.285156 C 208.277344 194.015625 209.136719 194.367188 209.867188 194.34375 C 210.597656 194.316406 211.175781 194.015625 211.628906 193.433594 C 212.058594 192.878906 212.234375 192.226562 212.082031 191.519531 C 211.957031 190.8125 211.429688 190.082031 210.496094 189.351562 C 209.613281 188.671875 208.808594 188.34375 208.050781 188.371094 C 207.296875 188.421875 206.714844 188.699219 206.261719 189.253906 C 205.832031 189.804688 205.683594 190.4375 205.832031 191.140625 C 205.960938 191.898438 206.488281 192.605469 207.34375 193.285156 Z M 207.34375 193.285156 "/>
<path style=" stroke:none;fill-rule:nonzero;fill:rgb(100%,100%,100%);fill-opacity:1;" d="M 215.6875 190.261719 L 205.179688 183.253906 L 206.035156 181.96875 L 209.816406 184.488281 C 209.511719 183.429688 209.6875 182.421875 210.292969 181.515625 C 210.671875 180.960938 211.101562 180.53125 211.605469 180.28125 C 212.109375 180.003906 212.613281 179.929688 213.117188 180.003906 C 213.621094 180.078125 214.25 180.382812 215.007812 180.886719 L 219.820312 184.109375 L 218.960938 185.394531 L 214.148438 182.171875 C 213.496094 181.742188 212.941406 181.566406 212.460938 181.640625 C 211.980469 181.71875 211.578125 182.019531 211.226562 182.523438 C 210.972656 182.902344 210.824219 183.328125 210.796875 183.808594 C 210.773438 184.289062 210.875 184.691406 211.125 185.070312 C 211.378906 185.445312 211.78125 185.824219 212.386719 186.226562 L 216.542969 189 Z M 215.6875 190.261719 "/>
<path style=" stroke:none;fill-rule:nonzero;fill:rgb(100%,100%,100%);fill-opacity:1;" d="M 218.359375 178.71875 L 218.960938 177.257812 C 219.566406 177.484375 220.097656 177.558594 220.574219 177.507812 C 221.054688 177.457031 221.53125 177.230469 222.039062 176.828125 C 222.515625 176.425781 222.917969 175.921875 223.246094 175.265625 C 223.523438 174.6875 223.699219 174.15625 223.75 173.628906 C 223.800781 173.097656 223.726562 172.671875 223.550781 172.292969 C 223.371094 171.941406 223.09375 171.664062 222.742188 171.484375 C 222.390625 171.308594 222.039062 171.257812 221.660156 171.308594 C 221.28125 171.386719 220.902344 171.613281 220.476562 171.988281 C 220.199219 172.242188 219.667969 172.796875 218.914062 173.703125 C 218.132812 174.609375 217.527344 175.214844 217.097656 175.519531 C 216.542969 175.921875 215.988281 176.121094 215.433594 176.171875 C 214.878906 176.222656 214.351562 176.121094 213.820312 175.84375 C 213.242188 175.570312 212.8125 175.113281 212.488281 174.558594 C 212.160156 173.980469 212.03125 173.324219 212.082031 172.570312 C 212.132812 171.8125 212.359375 171.058594 212.761719 170.300781 C 213.191406 169.46875 213.695312 168.789062 214.300781 168.3125 C 214.90625 167.808594 215.535156 167.53125 216.242188 167.453125 C 216.945312 167.378906 217.628906 167.503906 218.308594 167.808594 L 217.675781 169.292969 C 216.921875 169.015625 216.265625 168.992188 215.660156 169.242188 C 215.082031 169.496094 214.554688 170.050781 214.125 170.929688 C 213.671875 171.839844 213.496094 172.570312 213.621094 173.148438 C 213.746094 173.730469 214.023438 174.132812 214.503906 174.382812 C 214.90625 174.585938 215.308594 174.609375 215.710938 174.460938 C 216.113281 174.308594 216.769531 173.703125 217.652344 172.621094 C 218.535156 171.5625 219.214844 170.832031 219.644531 170.503906 C 220.273438 170 220.902344 169.722656 221.53125 169.644531 C 222.164062 169.570312 222.769531 169.695312 223.371094 170 C 223.976562 170.300781 224.457031 170.753906 224.808594 171.386719 C 225.160156 171.988281 225.3125 172.695312 225.289062 173.503906 C 225.261719 174.308594 225.035156 175.089844 224.632812 175.894531 C 224.105469 176.902344 223.523438 177.683594 222.894531 178.238281 C 222.265625 178.792969 221.53125 179.097656 220.726562 179.171875 C 219.894531 179.222656 219.113281 179.070312 218.359375 178.71875 Z M 218.359375 178.71875 "/>
<path style=" stroke:none;fill-rule:nonzero;fill:rgb(100%,100%,100%);fill-opacity:1;" d="M 225.992188 164.027344 L 226.75 162.691406 C 227.65625 163.246094 228.261719 163.953125 228.539062 164.808594 C 228.816406 165.664062 228.789062 166.570312 228.414062 167.480469 C 227.933594 168.636719 227.179688 169.417969 226.121094 169.796875 C 225.0625 170.175781 223.851562 170.101562 222.441406 169.519531 C 221.53125 169.140625 220.777344 168.664062 220.222656 168.085938 C 219.667969 167.503906 219.339844 166.824219 219.238281 166.066406 C 219.140625 165.3125 219.265625 164.554688 219.542969 163.824219 C 219.921875 162.917969 220.449219 162.238281 221.15625 161.859375 C 221.859375 161.480469 222.667969 161.355469 223.597656 161.558594 L 223.273438 163.042969 C 222.640625 162.941406 222.113281 162.992188 221.710938 163.21875 C 221.304688 163.445312 220.980469 163.800781 220.777344 164.277344 C 220.476562 165.007812 220.5 165.691406 220.828125 166.371094 C 221.15625 167.027344 221.886719 167.605469 223.019531 168.058594 C 224.152344 168.539062 225.0625 168.636719 225.765625 168.410156 C 226.472656 168.183594 226.953125 167.730469 227.226562 167.027344 C 227.457031 166.472656 227.480469 165.917969 227.277344 165.414062 C 227.101562 164.859375 226.675781 164.40625 225.992188 164.027344 Z M 225.992188 164.027344 "/>
<path style=" stroke:none;fill-rule:nonzero;fill:rgb(100%,100%,100%);fill-opacity:1;" d="M 229.671875 163.851562 L 217.675781 159.917969 L 218.15625 158.457031 L 222.464844 159.867188 C 221.886719 158.910156 221.785156 157.929688 222.113281 156.871094 C 222.3125 156.214844 222.640625 155.710938 223.046875 155.308594 C 223.449219 154.90625 223.925781 154.703125 224.429688 154.628906 C 224.933594 154.578125 225.640625 154.675781 226.472656 154.953125 L 231.992188 156.742188 L 231.511719 158.207031 L 225.992188 156.417969 C 225.261719 156.164062 224.65625 156.164062 224.230469 156.367188 C 223.800781 156.566406 223.472656 156.972656 223.273438 157.550781 C 223.121094 157.980469 223.121094 158.433594 223.195312 158.886719 C 223.296875 159.339844 223.523438 159.71875 223.851562 160.019531 C 224.179688 160.324219 224.683594 160.574219 225.363281 160.800781 L 230.125 162.363281 Z M 229.671875 163.851562 "/>
<path style=" stroke:none;fill-rule:nonzero;fill:rgb(100%,100%,100%);fill-opacity:1;" d="M 227.707031 155.179688 C 226.070312 154.777344 224.960938 154.023438 224.378906 152.914062 C 223.902344 151.980469 223.800781 150.972656 224.078125 149.890625 C 224.378906 148.679688 225.011719 147.773438 226.019531 147.191406 C 227 146.613281 228.210938 146.488281 229.621094 146.839844 C 230.757812 147.117188 231.613281 147.496094 232.191406 148 C 232.773438 148.503906 233.152344 149.132812 233.351562 149.863281 C 233.554688 150.621094 233.554688 151.375 233.378906 152.132812 C 233.074219 153.367188 232.445312 154.273438 231.4375 154.855469 C 230.453125 155.457031 229.195312 155.558594 227.707031 155.179688 Z M 228.085938 153.644531 C 229.21875 153.921875 230.125 153.871094 230.832031 153.519531 C 231.511719 153.164062 231.964844 152.609375 232.140625 151.855469 C 232.320312 151.097656 232.191406 150.417969 231.738281 149.789062 C 231.285156 149.160156 230.480469 148.707031 229.320312 148.402344 C 228.210938 148.125 227.328125 148.175781 226.648438 148.554688 C 225.96875 148.90625 225.515625 149.460938 225.339844 150.21875 C 225.160156 150.972656 225.289062 151.652344 225.742188 152.308594 C 226.144531 152.914062 226.925781 153.367188 228.085938 153.644531 Z M 228.085938 153.644531 "/>
<path style=" stroke:none;fill-rule:nonzero;fill:rgb(100%,100%,100%);fill-opacity:1;" d="M 229.648438 147.242188 C 227.984375 146.964844 226.800781 146.3125 226.144531 145.253906 C 225.589844 144.371094 225.414062 143.363281 225.589844 142.253906 C 225.792969 141.019531 226.371094 140.0625 227.304688 139.40625 C 228.238281 138.75 229.421875 138.550781 230.855469 138.777344 C 232.015625 138.953125 232.898438 139.28125 233.503906 139.734375 C 234.109375 140.1875 234.535156 140.792969 234.8125 141.496094 C 235.066406 142.230469 235.140625 142.984375 235.015625 143.765625 C 234.8125 145.027344 234.234375 145.984375 233.300781 146.640625 C 232.394531 147.292969 231.160156 147.496094 229.648438 147.242188 Z M 229.898438 145.679688 C 231.058594 145.859375 231.964844 145.757812 232.621094 145.355469 C 233.277344 144.949219 233.679688 144.34375 233.78125 143.589844 C 233.90625 142.832031 233.703125 142.152344 233.226562 141.546875 C 232.722656 140.945312 231.890625 140.566406 230.707031 140.363281 C 229.597656 140.1875 228.691406 140.289062 228.035156 140.71875 C 227.378906 141.121094 226.976562 141.726562 226.875 142.480469 C 226.75 143.238281 226.925781 143.917969 227.429688 144.523438 C 227.933594 145.125 228.742188 145.480469 229.898438 145.679688 Z M 229.898438 145.679688 "/>
<path style=" stroke:none;fill-rule:nonzero;fill:rgb(100%,100%,100%);fill-opacity:1;" d="M 235.492188 139.179688 L 222.945312 137.769531 L 223.121094 136.230469 L 235.671875 137.640625 Z M 235.492188 139.179688 "/>
</g>
</svg>
