<?xml version="1.0" encoding="UTF-8"?>
<svg xmlns="http://www.w3.org/2000/svg" xmlns:xlink="http://www.w3.org/1999/xlink" width="263pt" height="242pt" viewBox="0 0 263 242" version="1.1">
<g id="surface1">
<path style="fill-rule:evenodd;fill:rgb(100%,100%,100%);fill-opacity:1;stroke-width:1;stroke-linecap:butt;stroke-linejoin:miter;stroke:rgb(0%,0%,0%);stroke-opacity:1;stroke-miterlimit:4;" d="M 104.706648 565.108573 L 300.203329 924.105343 L 305.704755 922.606586 L 501.207377 565.606184 L 496.70405 560.606378 L 106.203797 560.108767 Z M 104.706648 565.108573 " transform="matrix(0.6575,0,0,0.659401,-67.200087,-367.929761)"/>
<path style=" stroke:none;fill-rule:nonzero;fill:rgb(90.196078%,58.431373%,20.784314%);fill-opacity:1;" d="M 205.140625 1.074219 L 203.46875 2.84375 L 208.9375 2.84375 Z M 50.296875 1.734375 L 50.117188 2.828125 C 52.308594 2.828125 56.625 2.828125 59.019531 2.828125 Z M 213.988281 6.234375 C 209.789062 6.234375 205.523438 6.234375 200.265625 6.234375 L 159.921875 48.925781 L 160.484375 49.917969 C 161.253906 51.273438 162.109375 52.917969 162.929688 54.589844 L 168.976562 54.15625 L 212.042969 10.964844 Z M 161.914062 6.234375 L 147.28125 46.902344 L 150.015625 48.492188 L 155.394531 48.492188 L 153.855469 46.246094 L 172.21875 6.234375 C 167.050781 6.238281 167.390625 6.234375 161.914062 6.234375 Z M 102.769531 6.25 C 98.136719 6.25 95.15625 6.25 90.894531 6.253906 L 109.800781 47.234375 L 111.148438 48.492188 L 119.847656 48.492188 L 118.019531 45.585938 Z M 65.921875 6.261719 C 61.472656 6.261719 52.800781 6.265625 49.546875 6.265625 L 49.3125 7.667969 L 92.378906 54.15625 L 99.09375 56.945312 C 100.121094 54.714844 101.25 52.496094 102.496094 50.289062 L 103.066406 49.277344 L 102.570312 48.882812 Z M 20.421875 28.367188 C 21.511719 30.367188 23.484375 33.980469 23.703125 34.386719 C 24.367188 35.613281 25.308594 37.332031 25.792969 38.207031 C 25.949219 38.492188 27.566406 41.457031 28.25 42.710938 L 86.460938 68.335938 L 94.46875 69.585938 C 95.089844 67.320312 95.8125 65.070312 96.644531 62.835938 L 91.722656 60.75 Z M 241.929688 29.574219 L 174.238281 61.082031 L 167.769531 66.5 C 168.183594 67.800781 168.554688 69.101562 168.894531 70.40625 L 171.9375 68.003906 L 234.664062 42.898438 C 235.308594 41.722656 237.675781 37.375 238.046875 36.707031 C 238.570312 35.753906 239.40625 34.21875 239.90625 33.292969 C 240.183594 32.777344 241.164062 30.980469 241.929688 29.574219 Z M 16.800781 30.566406 L 15.257812 33.550781 C 16.382812 35.613281 16.792969 36.363281 17.726562 38.078125 L 21.902344 39.917969 C 20.785156 37.871094 21.285156 38.789062 17.144531 31.199219 C 17.03125 30.992188 16.914062 30.78125 16.800781 30.566406 Z M 242.128906 38.109375 C 241.625 39.035156 241.386719 39.46875 240.871094 40.414062 L 241.960938 39.980469 Z M 105.207031 51.765625 L 103.628906 54.929688 C 103.03125 56.121094 102.53125 57.171875 102.066406 58.179688 L 103.394531 58.730469 C 103.875 57.671875 104.378906 56.609375 104.914062 55.542969 L 106.050781 53.269531 L 108.078125 53.261719 L 106.199219 51.769531 Z M 114.652344 51.773438 L 116.226562 53.246094 C 119.851562 53.246094 122.636719 53.261719 122.867188 53.296875 L 121.917969 51.78125 Z M 152.519531 51.808594 L 151.375 53.253906 L 157.015625 53.269531 L 157.886719 54.953125 L 159.464844 54.839844 C 159.0625 54.046875 158.65625 53.273438 158.25 52.539062 L 157.84375 51.8125 Z M 122.941406 53.414062 C 122.863281 53.808594 122.195312 55.78125 121.875 56.554688 C 121.675781 57.035156 121.46875 57.496094 121.25 57.949219 L 124.597656 61.082031 L 121.636719 64.046875 L 118.878906 61.851562 C 118.21875 62.722656 117.507812 63.527344 116.734375 64.265625 L 120.980469 66.027344 L 115.0625 70.640625 L 109.964844 68.480469 C 108.582031 69.015625 107.101562 69.441406 105.511719 69.757812 C 104.835938 69.890625 104.25 69.96875 104.214844 69.929688 C 104.175781 69.894531 104.402344 69.097656 104.71875 68.164062 C 104.910156 67.601562 105.105469 67.054688 105.304688 66.507812 L 103.925781 65.921875 C 103.339844 67.542969 102.816406 69.175781 102.351562 70.816406 L 111.773438 72.289062 L 111.445312 77.894531 L 109.640625 77.757812 C 109.605469 77.964844 109.554688 78.15625 109.476562 78.304688 C 109.207031 78.816406 108.601562 79.316406 108.054688 79.476562 C 107.117188 79.757812 106.335938 79.519531 105.667969 78.757812 C 105.320312 78.363281 105.144531 77.890625 105.109375 77.410156 L 100.890625 77.085938 C 100.660156 78.335938 100.453125 79.589844 100.296875 80.84375 C 100.285156 80.929688 100.277344 80.992188 100.269531 81.074219 L 114.40625 80.53125 L 115.71875 86.46875 L 104.453125 88.046875 C 105.210938 89.496094 106.0625 90.867188 107.007812 92.148438 L 114.40625 90.425781 L 128.542969 97.347656 L 128.398438 104.171875 C 128.421875 104.175781 128.4375 104.179688 128.460938 104.179688 C 129.894531 104.335938 129.949219 104.347656 129.230469 104.355469 C 129.027344 104.359375 128.710938 104.375 128.394531 104.394531 L 128.363281 105.882812 C 129.480469 105.84375 130.921875 105.824219 132.402344 105.832031 L 132.445312 101.28125 C 131.953125 101.480469 131.132812 101.503906 130.707031 101.316406 C 130.199219 101.097656 129.816406 100.746094 129.542969 100.25 C 129.203125 99.628906 129.171875 98.707031 129.476562 98.132812 C 130.109375 96.929688 131.4375 96.554688 132.484375 97.011719 L 132.488281 96.6875 L 141.691406 97.675781 L 146.953125 89.105469 L 156.113281 91.820312 C 156.824219 90.847656 157.484375 89.855469 158.082031 88.824219 L 147.9375 87.128906 L 150.238281 83.171875 L 160.703125 83.121094 C 160.820312 82.800781 160.933594 82.488281 161.042969 82.160156 L 161.390625 81.117188 L 161.457031 81.570312 C 161.523438 82.035156 161.582031 82.578125 161.636719 83.113281 L 163.015625 83.109375 C 162.886719 81.726562 162.71875 80.347656 162.507812 78.976562 L 156.484375 80.203125 L 161.945312 75.890625 C 161.691406 74.628906 161.402344 73.367188 161.074219 72.117188 L 157.109375 75.4375 C 157.363281 75.636719 157.589844 75.890625 157.753906 76.199219 C 158.03125 76.71875 158.027344 77.777344 157.75 78.304688 C 157.480469 78.816406 156.875 79.316406 156.328125 79.476562 C 155.449219 79.738281 154.671875 79.535156 154.011719 78.867188 C 153.847656 78.707031 153.730469 78.53125 153.632812 78.351562 L 152.210938 79.542969 L 144.320312 68.992188 L 147.398438 65.066406 C 146.316406 64.164062 145.339844 63.148438 144.460938 62.015625 L 141.035156 66.355469 L 127.554688 60.75 Z M 108.125 56.410156 L 107.15625 58.359375 C 106.890625 58.894531 106.644531 59.433594 106.394531 59.972656 L 107.746094 60.535156 C 107.890625 60.210938 108.027344 59.898438 108.183594 59.570312 L 108.933594 57.957031 L 112.914062 57.957031 C 113.332031 57.957031 113.609375 57.960938 113.988281 57.960938 L 112.03125 56.410156 Z M 148.867188 56.429688 L 147.664062 57.957031 L 152.96875 57.957031 L 154.148438 56.449219 L 149.355469 56.429688 C 149.164062 56.429688 149.054688 56.429688 148.867188 56.429688 Z M 146.855469 58.980469 L 145.925781 60.160156 C 146.78125 61.324219 147.746094 62.355469 148.8125 63.261719 L 149.761719 62.050781 C 148.738281 61.203125 147.761719 60.171875 146.855469 58.980469 Z M 115.855469 59.449219 C 115.578125 59.800781 115.304688 60.132812 115.132812 60.320312 C 114.410156 61.097656 113.4375 61.964844 112.644531 62.566406 L 114.269531 63.242188 C 115.261719 62.398438 116.164062 61.445312 116.988281 60.351562 Z M 110.386719 60.230469 L 109.882812 61.421875 L 111.109375 61.929688 C 111.308594 61.5 111.546875 60.980469 111.632812 60.796875 L 111.890625 60.230469 Z M 99.640625 64.105469 C 99.503906 64.480469 99.371094 64.828125 99.230469 65.226562 C 98.667969 66.84375 98.167969 68.464844 97.71875 70.09375 L 99.117188 70.3125 C 99.652344 68.421875 100.257812 66.542969 100.949219 64.664062 Z M 165.042969 68.789062 L 163.800781 69.828125 C 164.15625 71.097656 164.476562 72.375 164.765625 73.667969 L 166.0625 72.644531 C 165.761719 71.386719 165.421875 70.105469 165.042969 68.789062 Z M 131.539062 71.425781 L 131.890625 71.765625 C 132.507812 72.367188 133.460938 73.539062 133.972656 74.335938 C 134.882812 75.746094 135.402344 76.957031 135.730469 78.445312 C 135.929688 79.34375 135.933594 81.34375 135.738281 82.21875 C 135.253906 84.367188 134.191406 86.230469 132.433594 88.007812 C 132 88.445312 131.597656 88.804688 131.539062 88.804688 C 131.351562 88.804688 129.726562 87.027344 129.238281 86.289062 C 127.964844 84.355469 127.328125 82.316406 127.328125 80.160156 C 127.328125 77.214844 128.523438 74.460938 130.792969 72.175781 Z M 131.488281 72.203125 C 131.257812 72.304688 130.132812 73.648438 129.628906 74.425781 C 128.800781 75.707031 128.296875 76.90625 128.015625 78.269531 C 127.867188 78.992188 127.824219 79.808594 127.933594 79.917969 C 128.015625 80 129.617188 79.992188 129.742188 79.90625 C 129.796875 79.871094 129.867188 79.730469 129.898438 79.597656 C 130.035156 79.039062 130.832031 78.4375 131.445312 78.433594 C 132.191406 78.425781 132.832031 78.863281 133.144531 79.589844 L 133.3125 79.984375 L 135.265625 79.929688 L 135.25 79.367188 C 135.207031 77.816406 134.230469 75.484375 132.847656 73.644531 C 132.078125 72.625 131.625 72.144531 131.488281 72.203125 Z M 224.535156 72.621094 L 223.273438 72.710938 C 222.96875 73.269531 222.835938 73.507812 222.535156 74.0625 L 220.40625 77.96875 Z M 44.644531 72.765625 C 45.019531 73.460938 45.964844 75.1875 46.066406 75.382812 C 46.253906 75.730469 47.214844 77.492188 48.203125 79.296875 C 48.734375 80.261719 49.53125 81.734375 50.222656 82.996094 L 92.199219 81.386719 C 92.386719 79.738281 92.621094 78.097656 92.910156 76.472656 Z M 218.210938 73.0625 L 177.523438 75.917969 L 170.371094 77.375 C 170.671875 79.222656 170.90625 81.113281 171.09375 83.066406 L 212.867188 82.859375 C 216.019531 77.089844 216.832031 75.601562 218.210938 73.0625 Z M 96.199219 76.726562 C 95.988281 77.898438 95.804688 79.074219 95.65625 80.242188 C 95.609375 80.582031 95.578125 80.917969 95.539062 81.257812 L 96.875 81.207031 C 97.070312 79.730469 97.300781 78.273438 97.574219 76.832031 Z M 167.128906 78.035156 L 165.660156 78.335938 C 165.910156 79.898438 166.105469 81.484375 166.265625 83.089844 L 167.714844 83.085938 C 167.582031 81.367188 167.386719 79.695312 167.128906 78.035156 Z M 127.84375 80.523438 L 127.898438 81.183594 C 128.0625 83.324219 129.234375 85.761719 131.003906 87.636719 L 131.53125 88.199219 L 132.019531 87.660156 C 133.273438 86.269531 134.375 84.496094 134.839844 83.117188 C 135.070312 82.433594 135.3125 81.269531 135.3125 80.847656 L 135.3125 80.523438 L 133.269531 80.523438 L 133.046875 80.945312 C 132.464844 82.050781 131 82.203125 130.195312 81.246094 C 130.066406 81.089844 129.933594 80.867188 129.902344 80.746094 C 129.847656 80.527344 129.832031 80.523438 128.847656 80.523438 Z M 101.109375 88.515625 L 99.804688 88.699219 C 99.800781 88.957031 99.796875 89.15625 99.796875 89.441406 C 99.796875 91.140625 99.832031 92.5 99.894531 93.808594 L 101.183594 93.507812 C 101.101562 91.859375 101.074219 90.179688 101.109375 88.515625 Z M 96.351562 89.183594 L 95.058594 89.363281 C 95.050781 91.199219 95.117188 93.039062 95.25 94.890625 L 96.4375 94.613281 C 96.359375 93.347656 96.335938 91.273438 96.351562 89.183594 Z M 161.960938 89.472656 C 161.964844 90.070312 161.972656 90.675781 161.960938 91.261719 C 161.941406 92.089844 161.917969 92.824219 161.890625 93.53125 L 163.167969 93.910156 C 163.203125 93.285156 163.234375 92.652344 163.257812 91.953125 C 163.285156 91.199219 163.300781 90.445312 163.304688 89.695312 Z M 91.746094 89.828125 L 81.222656 91.304688 C 81.386719 91.941406 81.515625 92.628906 81.558594 93.195312 L 81.617188 93.945312 L 78.816406 94.476562 C 77.273438 94.769531 75.941406 95.027344 75.855469 95.050781 C 75.714844 95.089844 75.695312 95.023438 75.695312 94.492188 C 75.695312 93.71875 75.824219 92.878906 76.042969 92.03125 L 56.632812 94.75 C 56.699219 94.875 56.824219 95.101562 56.890625 95.21875 C 57.8125 96.921875 59.128906 99.339844 59.816406 100.589844 C 59.953125 100.839844 60.773438 102.339844 61.058594 102.867188 L 68.878906 101.042969 L 68.867188 100.90625 L 69.09375 100.992188 L 76.492188 99.265625 C 76.21875 98.480469 75.988281 97.695312 75.925781 97.257812 C 75.867188 96.867188 75.875 96.835938 76.074219 96.792969 C 76.25 96.757812 79.058594 96.027344 81.027344 95.507812 C 81.59375 95.359375 81.582031 95.335938 81.363281 96.429688 C 81.25 96.984375 81.054688 97.613281 80.828125 98.253906 L 91.945312 95.664062 C 91.8125 93.800781 91.746094 91.8125 91.746094 89.828125 Z M 166.476562 90.226562 C 166.46875 91.984375 166.433594 93.699219 166.375 94.859375 L 167.773438 95.277344 C 167.882812 93.703125 167.945312 92.113281 167.957031 90.472656 Z M 171.316406 91.035156 C 171.304688 91.9375 171.285156 92.746094 171.253906 93.355469 C 171.199219 94.316406 171.125 95.28125 171.039062 96.242188 L 182.765625 99.71875 C 182.207031 98.597656 181.820312 97.476562 181.632812 96.371094 C 181.550781 95.90625 181.5 95.496094 181.515625 95.460938 C 181.539062 95.402344 187.085938 96.78125 187.207031 96.875 C 187.289062 96.9375 187.011719 98.167969 186.722656 99.042969 C 186.570312 99.5 186.296875 100.195312 186.078125 100.699219 L 191.0625 102.175781 C 191.878906 101.78125 193.425781 101.15625 193.875 101.050781 L 194.136719 100.988281 L 194.082031 101.65625 C 194.054688 101.964844 193.972656 102.519531 193.886719 103.011719 L 200.769531 105.050781 C 201.359375 103.96875 203.542969 99.964844 203.800781 99.496094 C 203.929688 99.261719 204.808594 97.648438 205.3125 96.71875 L 187.328125 93.710938 C 187.34375 93.859375 187.359375 94.007812 187.367188 94.152344 C 187.414062 94.917969 187.402344 95.082031 187.296875 95.078125 C 187.226562 95.074219 186.496094 94.9375 185.671875 94.769531 C 184.847656 94.605469 183.574219 94.355469 182.835938 94.21875 C 181.347656 93.933594 181.398438 94.027344 181.621094 92.757812 Z M 209.609375 97.789062 C 208.042969 100.660156 206.570312 103.363281 205.347656 105.601562 L 211.386719 98.335938 Z M 130.558594 109.117188 C 129.800781 109.125 129.046875 109.152344 128.292969 109.1875 L 128.265625 110.566406 C 129.4375 110.53125 130.886719 110.519531 132.359375 110.53125 L 132.371094 109.125 C 131.765625 109.117188 131.160156 109.109375 130.558594 109.117188 Z M 131.136719 113.726562 C 130.15625 113.730469 129.175781 113.769531 128.195312 113.824219 L 127.882812 128.667969 L 115.0625 124.382812 L 113.417969 132.957031 L 130.863281 145.589844 L 130.867188 142.058594 L 131.183594 142.15625 C 131.410156 142.226562 131.59375 142.226562 131.816406 142.15625 C 131.988281 142.105469 132.148438 142.082031 132.175781 142.109375 C 132.199219 142.132812 132.21875 143.460938 132.226562 145.082031 L 144.980469 136.253906 L 148.265625 124.714844 L 132.15625 131.964844 L 132.328125 113.738281 C 131.929688 113.734375 131.535156 113.722656 131.136719 113.726562 Z M 131.136719 113.726562 "/>
<path style=" stroke:none;fill-rule:nonzero;fill:rgb(16.078431%,11.764706%,35.294118%);fill-opacity:1;" d="M 121.792969 141.683594 L 121.792969 149.296875 C 121.816406 149.300781 121.859375 149.308594 121.882812 149.3125 C 123.007812 149.5 125.78125 149.871094 125.992188 149.863281 C 126.050781 149.859375 125.882812 149.75 125.617188 149.617188 C 124.933594 149.273438 124.023438 148.476562 123.453125 147.726562 C 122.886719 146.980469 122.289062 145.867188 122.199219 145.394531 C 122.054688 144.601562 122.675781 143.511719 123.582031 142.980469 C 124.167969 142.636719 125.1875 142.578125 125.824219 142.855469 C 127.363281 143.523438 128.972656 145.171875 129.914062 147.046875 C 130.050781 147.320312 130.324219 147.953125 130.511719 148.457031 L 130.859375 149.367188 L 130.863281 145.800781 C 130.863281 143.839844 130.839844 142.171875 130.808594 142.09375 C 130.78125 142.015625 130.699219 141.949219 130.625 141.949219 C 130.539062 141.949219 130.207031 141.832031 129.804688 141.683594 Z M 133.128906 141.683594 C 132.933594 141.753906 132.742188 141.824219 132.613281 141.863281 L 132.226562 141.976562 L 132.230469 145.761719 L 132.238281 149.546875 L 132.496094 148.6875 C 133.269531 146.128906 134.917969 144.066406 137.074219 142.960938 C 137.585938 142.699219 137.773438 142.652344 138.289062 142.652344 C 139.71875 142.65625 140.796875 143.683594 140.800781 145.050781 C 140.800781 145.589844 140.757812 145.746094 140.359375 146.546875 C 140 147.273438 139.78125 147.578125 139.179688 148.1875 C 138.773438 148.597656 138.117188 149.148438 137.71875 149.40625 C 137.320312 149.667969 136.980469 149.890625 136.964844 149.90625 C 136.949219 149.921875 137.03125 149.917969 137.148438 149.902344 C 137.261719 149.882812 137.964844 149.78125 138.714844 149.679688 C 139.410156 149.582031 140.144531 149.460938 140.878906 149.332031 L 140.878906 141.683594 Z M 124.804688 144.132812 C 124.195312 144.132812 123.609375 144.644531 123.609375 145.175781 C 123.609375 145.757812 124.78125 147.253906 125.828125 148 C 126.472656 148.464844 126.988281 148.699219 128.007812 149.003906 C 128.863281 149.257812 129.230469 149.285156 129.230469 149.09375 C 129.230469 148.863281 128.816406 147.839844 128.511719 147.324219 C 127.5 145.609375 125.785156 144.132812 124.804688 144.132812 Z M 138.230469 144.132812 C 137.472656 144.132812 135.992188 145.269531 135.078125 146.554688 C 134.578125 147.25 133.984375 148.433594 133.898438 148.902344 L 133.835938 149.257812 L 134.261719 149.199219 C 134.933594 149.105469 136.289062 148.617188 136.894531 148.25 C 138.011719 147.570312 139.484375 145.824219 139.484375 145.175781 C 139.484375 144.640625 138.875 144.132812 138.230469 144.132812 Z M 121.792969 150.773438 L 121.792969 157.59375 C 123.820312 155.394531 126.398438 153.574219 129.46875 152.1875 C 129.933594 151.976562 130.289062 151.777344 130.257812 151.746094 C 130.226562 151.710938 129.992188 151.683594 129.738281 151.683594 C 128.160156 151.683594 124.667969 151.261719 121.792969 150.773438 Z M 140.878906 150.863281 C 138.617188 151.238281 136.1875 151.503906 133.003906 151.707031 L 132.644531 151.730469 L 133.183594 151.949219 C 133.480469 152.070312 134.199219 152.40625 134.78125 152.695312 C 137.164062 153.878906 139.191406 155.367188 140.878906 157.179688 Z M 130.761719 153.140625 C 130.523438 153.140625 128.285156 154.394531 127.101562 155.1875 C 125.1875 156.46875 123.433594 157.957031 121.792969 159.6875 L 121.792969 177.40625 C 123.023438 173.910156 125.320312 171.695312 128.574219 170.890625 C 128.960938 170.792969 129.503906 170.691406 129.777344 170.660156 C 130.050781 170.628906 130.410156 170.585938 130.570312 170.5625 L 130.867188 170.515625 L 130.867188 161.828125 C 130.867188 155.324219 130.839844 153.140625 130.761719 153.140625 Z M 132.292969 153.144531 C 132.257812 153.144531 132.226562 157.050781 132.226562 161.832031 L 132.226562 170.519531 L 132.429688 170.5625 C 132.542969 170.585938 132.921875 170.652344 133.269531 170.710938 C 136.402344 171.246094 138.789062 172.75 140.257812 175.117188 C 140.492188 175.492188 140.691406 175.875 140.878906 176.296875 L 140.878906 159.140625 C 139.179688 157.457031 137.28125 155.933594 135.40625 154.792969 C 134.410156 154.1875 132.441406 153.144531 132.292969 153.144531 Z M 132.226562 172.871094 L 132.226562 179.351562 L 135.765625 179.351562 C 139.855469 179.351562 139.457031 179.484375 139.066406 178.242188 C 138.617188 176.804688 137.90625 175.648438 136.925781 174.757812 C 135.976562 173.890625 134.246094 173.144531 132.703125 172.9375 Z M 130.472656 172.886719 C 130.316406 172.902344 130.097656 172.972656 129.796875 173.035156 C 127.292969 173.550781 125.566406 174.796875 124.550781 176.824219 C 124.246094 177.429688 123.863281 178.492188 123.746094 179.054688 L 123.683594 179.351562 L 130.867188 179.351562 L 130.867188 176.121094 C 130.867188 173.328125 130.941406 172.847656 130.472656 172.886719 Z M 127.28125 181.714844 C 125.3125 181.714844 123.699219 181.730469 123.699219 181.746094 C 123.699219 181.910156 124.175781 183.152344 124.558594 183.996094 C 125.3125 185.648438 125.589844 186.53125 125.828125 188.019531 L 125.882812 188.363281 L 128.351562 188.339844 L 130.820312 188.3125 L 130.84375 185.015625 L 130.867188 181.714844 Z M 132.226562 181.714844 L 132.226562 188.363281 L 134.695312 188.339844 L 137.160156 188.3125 L 137.277344 187.585938 C 137.453125 186.53125 137.789062 185.507812 138.402344 184.160156 C 138.914062 183.046875 139.304688 182.023438 139.304688 181.808594 C 139.304688 181.746094 138.136719 181.714844 135.765625 181.714844 Z M 121.792969 183.570312 L 121.792969 188.359375 L 123.265625 188.359375 L 123.203125 187.941406 C 123.046875 186.910156 122.785156 186.066406 122.191406 184.671875 C 122.042969 184.328125 121.914062 183.960938 121.792969 183.570312 Z M 140.878906 184.484375 C 140.804688 184.691406 140.742188 184.890625 140.660156 185.101562 C 140.347656 185.882812 139.96875 187.222656 139.816406 188.0625 L 139.761719 188.359375 L 140.878906 188.359375 Z M 140.878906 184.484375 "/>
<path style=" stroke:none;fill-rule:nonzero;fill:rgb(100%,100%,100%);fill-opacity:1;" d="M 120.980469 101.632812 L 141.363281 101.632812 L 141.363281 108.886719 L 120.980469 108.886719 Z M 120.980469 101.632812 "/>
<path style=" stroke:none;fill-rule:nonzero;fill:rgb(13.72549%,12.941176%,21.960784%);fill-opacity:1;" d="M 130.574219 241.96875 C 129.820312 241.761719 129.265625 241.417969 128.621094 240.765625 C 128.054688 240.1875 127.84375 239.859375 126.632812 237.625 C 125.175781 234.9375 122.675781 230.355469 120.089844 225.621094 C 119.203125 223.992188 117.796875 221.414062 116.960938 219.886719 C 113.679688 213.871094 110.011719 207.144531 108.519531 204.417969 C 107.660156 202.839844 106.152344 200.078125 105.167969 198.273438 C 103.355469 194.957031 100.792969 190.257812 97.046875 183.394531 C 95.910156 181.320312 93.667969 177.203125 92.058594 174.25 C 90.445312 171.296875 88.679688 168.0625 88.132812 167.0625 C 87.585938 166.058594 87.003906 164.996094 86.839844 164.695312 C 86.679688 164.394531 85.707031 162.613281 84.679688 160.738281 C 83.65625 158.859375 82 155.828125 81.003906 154.003906 C 80.007812 152.175781 78.488281 149.390625 77.628906 147.8125 C 75.386719 143.710938 72.820312 139.003906 69.460938 132.84375 C 67.847656 129.890625 66.070312 126.636719 65.511719 125.609375 C 64.519531 123.796875 63.933594 122.726562 60.046875 115.601562 C 58.332031 112.457031 56.742188 109.542969 53.21875 103.085938 C 52.480469 101.734375 51.285156 99.542969 50.5625 98.21875 C 49.839844 96.890625 49.132812 95.601562 48.996094 95.351562 C 48.859375 95.101562 48.269531 94.015625 47.679688 92.941406 C 47.09375 91.863281 46.144531 90.125 45.570312 89.074219 C 44.996094 88.023438 43.34375 84.992188 41.898438 82.339844 C 40.449219 79.6875 38.675781 76.429688 37.949219 75.105469 C 35.148438 69.972656 34.539062 68.855469 34.277344 68.371094 C 34.125 68.09375 33.789062 67.480469 33.527344 67.003906 C 33.261719 66.53125 32.097656 64.398438 30.941406 62.273438 C 26.160156 53.503906 18.796875 40.007812 15.425781 33.835938 C 14.097656 31.402344 11.640625 26.902344 9.9375 23.78125 C 9.050781 22.152344 7.519531 19.347656 6.535156 17.546875 C 1.257812 7.890625 0.410156 6.3125 0.25 5.855469 C -0.601562 3.441406 0.804688 0.84375 3.273438 0.257812 C 3.792969 0.136719 17.96875 0.121094 131.445312 0.121094 C 216.019531 0.121094 259.199219 0.148438 259.523438 0.210938 C 261.148438 0.511719 262.542969 1.867188 262.875 3.464844 C 263.007812 4.109375 262.9375 5.277344 262.722656 5.894531 C 262.636719 6.144531 262.019531 7.351562 261.347656 8.578125 C 260.089844 10.878906 256 18.378906 253.160156 23.597656 C 252.277344 25.222656 251.449219 26.738281 251.324219 26.964844 C 251.199219 27.191406 249.636719 30.054688 247.851562 33.335938 C 244.050781 40.3125 240.558594 46.714844 236.417969 54.308594 C 233.277344 60.074219 228.851562 68.199219 224.445312 76.289062 C 217.78125 88.519531 216.871094 90.1875 215.910156 91.9375 C 215.347656 92.964844 214.277344 94.929688 213.53125 96.308594 C 212.785156 97.683594 211.449219 100.140625 210.5625 101.765625 C 207.003906 108.285156 202.433594 116.667969 199.421875 122.199219 C 198.25 124.347656 196.320312 127.890625 195.132812 130.070312 C 193.945312 132.246094 191.894531 136.011719 190.574219 138.441406 C 189.253906 140.867188 188.101562 142.976562 188.011719 143.128906 C 187.925781 143.277344 187.679688 143.726562 187.464844 144.128906 C 187.25 144.527344 186.617188 145.695312 186.058594 146.722656 C 185.5 147.75 184.082031 150.347656 182.90625 152.5 C 180.652344 156.640625 177.636719 162.171875 170.632812 175.023438 C 168.277344 179.351562 165.40625 184.613281 164.261719 186.71875 C 163.113281 188.820312 160.972656 192.75 159.5 195.453125 C 156.347656 201.238281 152.789062 207.765625 149.855469 213.152344 C 144.878906 222.289062 142.261719 227.085938 141.078125 229.261719 C 140.378906 230.535156 138.765625 233.496094 137.492188 235.839844 C 135.902344 238.757812 135.042969 240.25 134.753906 240.566406 C 133.664062 241.785156 131.972656 242.351562 130.574219 241.96875 Z M 132.429688 239.050781 C 132.871094 238.714844 132.882812 238.699219 135.339844 234.175781 C 138.308594 228.71875 141.890625 222.144531 144.140625 218.023438 C 147.175781 212.457031 148.582031 209.871094 149.742188 207.738281 C 150.339844 206.636719 150.941406 205.53125 151.082031 205.28125 C 151.386719 204.722656 153.101562 201.574219 156.660156 195.042969 C 158.144531 192.316406 159.820312 189.246094 160.382812 188.21875 C 160.941406 187.191406 162.605469 184.140625 164.078125 181.4375 C 165.550781 178.738281 167.601562 174.96875 168.640625 173.066406 C 169.675781 171.164062 171.964844 166.96875 173.722656 163.738281 C 176.742188 158.195312 178.125 155.660156 183.222656 146.3125 C 184.394531 144.160156 186.691406 139.941406 188.328125 136.941406 C 189.964844 133.9375 192.25 129.738281 193.410156 127.613281 C 195.914062 123.019531 205.628906 105.195312 209.378906 98.308594 C 213.617188 90.535156 215.691406 86.726562 217.363281 83.660156 C 218.226562 82.082031 220.019531 78.785156 221.355469 76.332031 C 222.691406 73.878906 223.929688 71.605469 224.109375 71.28125 C 224.988281 69.679688 227.90625 64.328125 228.230469 63.730469 C 228.777344 62.714844 234.4375 52.324219 234.6875 51.875 C 234.804688 51.664062 236.226562 49.050781 237.847656 46.074219 C 242.472656 37.582031 245.042969 32.863281 245.882812 31.332031 C 246.308594 30.558594 246.886719 29.492188 247.171875 28.964844 C 247.785156 27.828125 250.058594 23.65625 251.484375 21.050781 C 252.5625 19.074219 257.003906 10.929688 259 7.261719 C 260.097656 5.246094 260.1875 5.035156 260.222656 4.515625 C 260.269531 3.828125 260.03125 3.332031 259.511719 3.042969 L 259.171875 2.847656 L 131.40625 2.871094 L 3.644531 2.894531 L 3.386719 3.085938 C 2.921875 3.429688 2.722656 3.824219 2.722656 4.398438 C 2.722656 5.003906 2.503906 4.558594 5.125 9.355469 C 6.164062 11.257812 7.605469 13.898438 8.328125 15.226562 C 9.679688 17.710938 11.558594 21.144531 11.957031 21.867188 C 12.078125 22.09375 13.140625 24.039062 14.3125 26.191406 C 15.488281 28.34375 17.132812 31.351562 17.964844 32.878906 C 18.800781 34.40625 20.445312 37.414062 21.617188 39.566406 C 24.296875 44.492188 29.796875 54.570312 30.851562 56.496094 C 31.289062 57.296875 32.351562 59.242188 33.210938 60.816406 C 34.074219 62.394531 34.890625 63.886719 35.027344 64.136719 C 35.523438 65.046875 40.074219 73.390625 41.355469 75.742188 C 42.554688 77.9375 43.699219 80.039062 49.203125 90.121094 C 50.949219 93.3125 52.808594 96.726562 57.347656 105.042969 C 58.507812 107.171875 60.519531 110.855469 61.816406 113.234375 C 63.117188 115.609375 64.882812 118.847656 65.742188 120.421875 C 67.464844 123.582031 69.542969 127.390625 71.972656 131.84375 C 72.847656 133.445312 74.402344 136.292969 75.425781 138.167969 C 76.449219 140.046875 78.117188 143.097656 79.125 144.949219 C 83.804688 153.519531 88.976562 163 90.148438 165.148438 C 90.859375 166.453125 91.898438 168.355469 92.460938 169.382812 C 93.023438 170.40625 94.675781 173.4375 96.136719 176.117188 C 97.597656 178.792969 99.617188 182.5 100.628906 184.351562 C 101.640625 186.203125 103.183594 189.027344 104.054688 190.628906 C 104.929688 192.230469 106.449219 195.015625 107.433594 196.820312 C 108.421875 198.621094 110.289062 202.039062 111.582031 204.417969 C 112.878906 206.792969 115.125 210.910156 116.574219 213.5625 C 118.019531 216.214844 120.402344 220.578125 121.863281 223.253906 C 123.324219 225.933594 125.222656 229.414062 126.082031 230.988281 C 126.941406 232.566406 128.199219 234.875 128.878906 236.117188 C 130.210938 238.5625 130.445312 238.917969 130.878906 239.191406 C 131.289062 239.449219 131.992188 239.386719 132.429688 239.050781 Z M 131.230469 231.511719 C 131.121094 231.300781 130.867188 230.820312 130.660156 230.445312 C 130.09375 229.402344 129.125 227.632812 128.847656 227.121094 C 128.710938 226.871094 128.132812 225.808594 127.554688 224.753906 C 126.980469 223.703125 125.675781 221.308594 124.652344 219.433594 C 123.628906 217.554688 121.730469 214.074219 120.433594 211.695312 C 119.136719 209.320312 117.238281 205.839844 116.214844 203.960938 C 115.191406 202.085938 113.382812 198.769531 112.195312 196.589844 C 109.695312 192.007812 105.578125 184.457031 101.402344 176.796875 C 95.511719 165.996094 94.226562 163.636719 92.691406 160.828125 C 91.015625 157.761719 89.894531 155.703125 86.0625 148.679688 C 84.726562 146.226562 82.359375 141.886719 80.804688 139.03125 C 79.246094 136.179688 76.636719 131.386719 75 128.386719 C 73.359375 125.382812 71.5625 122.085938 71.003906 121.058594 C 70.441406 120.035156 69.046875 117.472656 67.898438 115.371094 C 66.753906 113.269531 64.964844 109.992188 63.925781 108.09375 C 62.890625 106.191406 61.59375 103.820312 61.050781 102.824219 C 60.507812 101.828125 60.074219 101.003906 60.089844 100.992188 C 60.101562 100.980469 61.402344 100.636719 62.972656 100.230469 C 64.542969 99.828125 68.035156 98.921875 70.730469 98.222656 C 73.425781 97.519531 75.683594 96.945312 75.742188 96.945312 C 75.808594 96.945312 75.859375 97.054688 75.859375 97.195312 C 75.859375 97.78125 76.480469 99.703125 77.132812 101.128906 C 77.476562 101.882812 77.496094 101.988281 77.851562 104.75 C 78.050781 106.3125 78.214844 107.660156 78.214844 107.746094 C 78.214844 107.832031 77.984375 107.5625 77.703125 107.148438 C 76.285156 105.066406 74.210938 103.335938 71.636719 102.085938 C 70.460938 101.511719 68.902344 100.882812 68.839844 100.957031 C 68.777344 101.027344 68.96875 102.527344 69.152344 103.449219 C 69.648438 105.921875 70.566406 107.753906 72.078125 109.304688 C 73.757812 111.019531 75.875 112.046875 79.046875 112.683594 L 79.5625 112.789062 L 79.71875 113.441406 C 80.011719 114.671875 80.917969 117.28125 81.621094 118.921875 C 82.007812 119.820312 82.378906 120.695312 82.449219 120.859375 C 82.574219 121.144531 82.554688 121.136719 81.949219 120.628906 C 79.347656 118.4375 76.015625 117.039062 72.601562 116.707031 L 71.847656 116.636719 L 71.902344 116.894531 C 72.007812 117.429688 72.699219 119.050781 73.230469 120.007812 C 74.953125 123.109375 77.636719 124.945312 81.164062 125.425781 C 81.566406 125.480469 82.601562 125.519531 83.46875 125.511719 L 85.042969 125.496094 L 85.691406 126.53125 C 86.917969 128.492188 87.828125 129.75 89.3125 131.523438 C 89.835938 132.152344 90.253906 132.671875 90.242188 132.6875 C 90.230469 132.699219 89.914062 132.566406 89.53125 132.390625 C 88.535156 131.925781 87.492188 131.554688 86.492188 131.304688 C 84.890625 130.90625 84.328125 130.84375 82.480469 130.851562 C 81.015625 130.855469 80.546875 130.890625 79.757812 131.058594 C 79.234375 131.171875 78.777344 131.292969 78.742188 131.324219 C 78.636719 131.433594 79.851562 133.058594 80.707031 133.960938 C 83.074219 136.453125 85.660156 137.542969 88.878906 137.410156 C 90.203125 137.355469 91.347656 137.140625 92.742188 136.6875 L 93.6875 136.382812 L 94.777344 137.40625 C 95.941406 138.5 97.585938 139.878906 99.246094 141.148438 C 99.808594 141.574219 100.253906 141.941406 100.234375 141.960938 C 100.214844 141.980469 99.898438 141.941406 99.53125 141.878906 C 99.101562 141.804688 98.046875 141.765625 96.589844 141.769531 C 94.613281 141.773438 94.207031 141.796875 93.414062 141.972656 C 92.117188 142.253906 91.25 142.550781 90.324219 143.023438 C 89.132812 143.632812 89.179688 143.546875 89.746094 144.085938 C 91.339844 145.613281 93.355469 146.671875 95.570312 147.140625 C 96.605469 147.363281 98.769531 147.367188 99.792969 147.148438 C 101.339844 146.820312 102.894531 146.140625 103.976562 145.316406 C 104.242188 145.113281 104.535156 144.894531 104.625 144.828125 C 104.765625 144.726562 104.839844 144.738281 105.136719 144.925781 C 106.230469 145.609375 109.28125 147.078125 111.425781 147.949219 C 112 148.183594 112.503906 148.40625 112.542969 148.445312 C 112.582031 148.484375 112.320312 148.542969 111.957031 148.578125 C 111.171875 148.648438 109.730469 148.933594 108.839844 149.191406 C 106.71875 149.800781 104.8125 150.804688 103.148438 152.191406 C 102.332031 152.867188 102.308594 152.785156 103.542969 153.410156 C 105.742188 154.53125 108.148438 154.996094 110.132812 154.695312 C 112.558594 154.324219 114.664062 153.175781 116.824219 151.046875 L 117.84375 150.042969 L 118.332031 150.15625 C 121.621094 150.925781 125.160156 151.445312 128.925781 151.71875 C 129.59375 151.769531 130.15625 151.824219 130.171875 151.84375 C 130.191406 151.859375 129.972656 151.972656 129.6875 152.085938 C 128.1875 152.691406 125.609375 154.214844 124.222656 155.3125 C 121.203125 157.703125 119.082031 160.597656 117.722656 164.1875 C 117.503906 164.761719 117.34375 165.242188 117.359375 165.261719 C 117.378906 165.277344 117.726562 164.820312 118.132812 164.238281 C 121.648438 159.253906 125.824219 155.539062 130.324219 153.398438 L 130.753906 153.191406 L 130.753906 170.53125 L 129.734375 170.679688 C 125.316406 171.308594 122.648438 173.898438 121.285156 178.890625 L 121.164062 179.347656 L 115.023438 179.371094 L 108.886719 179.394531 L 108.886719 181.757812 L 121.289062 181.757812 L 121.441406 182.535156 C 121.59375 183.304688 121.738281 183.742188 122.347656 185.214844 C 122.636719 185.90625 123.011719 187.203125 123.164062 188.015625 L 123.21875 188.308594 L 114.601562 188.308594 L 114.601562 190.859375 L 123.515625 190.859375 L 123.457031 191.652344 C 123.363281 192.878906 123.144531 194.460938 122.945312 195.316406 C 122.542969 197.050781 121.769531 199.035156 120.980469 200.351562 C 120.804688 200.640625 120.6875 200.902344 120.71875 200.933594 C 120.746094 200.964844 121.089844 200.699219 121.476562 200.351562 C 123.886719 198.171875 125.390625 195.222656 125.878906 191.722656 L 125.996094 190.902344 L 130.753906 190.855469 L 130.753906 194.300781 L 130.246094 194.460938 C 128.542969 194.996094 127.398438 196.605469 127.398438 198.460938 C 127.398438 199.746094 128.140625 201.097656 129.277344 201.882812 C 130.570312 202.773438 132.4375 202.738281 133.894531 201.792969 C 135.089844 201.019531 135.734375 199.613281 135.632812 197.996094 C 135.535156 196.4375 134.25 194.855469 132.734375 194.433594 L 132.207031 194.285156 L 132.207031 190.859375 L 134.609375 190.859375 C 137.003906 190.859375 137.015625 190.859375 137.015625 191.050781 C 137.015625 191.464844 137.480469 193.527344 137.785156 194.457031 C 138.523438 196.714844 139.566406 198.429688 141.195312 200.070312 C 141.777344 200.660156 142.300781 201.140625 142.355469 201.140625 C 142.410156 201.140625 142.332031 200.929688 142.175781 200.667969 C 141.324219 199.21875 140.554688 197.390625 140.140625 195.816406 C 139.78125 194.464844 139.640625 193.546875 139.582031 192.15625 L 139.53125 190.859375 L 148.449219 190.859375 L 148.449219 188.308594 L 144.140625 188.308594 C 140.09375 188.308594 139.828125 188.300781 139.828125 188.152344 C 139.828125 187.753906 140.316406 186.058594 140.769531 184.886719 C 141.039062 184.179688 141.359375 183.183594 141.476562 182.667969 L 141.6875 181.734375 L 147.90625 181.769531 L 154.121094 181.804688 L 154.121094 180.695312 C 154.121094 180.085938 154.085938 179.554688 154.042969 179.511719 C 154.003906 179.472656 151.28125 179.410156 147.996094 179.378906 C 144.710938 179.347656 141.980469 179.296875 141.925781 179.261719 C 141.875 179.230469 141.804688 179.050781 141.769531 178.867188 C 141.671875 178.316406 141.109375 176.761719 140.742188 176.015625 C 140.214844 174.949219 139.765625 174.320312 138.921875 173.46875 C 138.085938 172.625 136.960938 171.894531 135.789062 171.429688 C 135.117188 171.164062 133.359375 170.707031 132.636719 170.609375 L 132.207031 170.554688 L 132.207031 153.1875 L 132.726562 153.417969 C 133.472656 153.746094 135.113281 154.671875 136.015625 155.269531 C 139.597656 157.644531 142.582031 160.625 144.8125 164.058594 C 145.164062 164.605469 145.453125 164.996094 145.453125 164.933594 C 145.453125 164.761719 144.695312 162.945312 144.269531 162.085938 C 142.601562 158.761719 140.171875 156.042969 137.042969 154 C 136.105469 153.386719 133.832031 152.183594 133.070312 151.898438 C 132.710938 151.761719 132.722656 151.761719 134.027344 151.699219 C 137.304688 151.546875 141.402344 150.96875 144.40625 150.234375 L 145.304688 150.015625 L 145.714844 150.484375 C 147.582031 152.628906 149.535156 153.890625 151.890625 154.480469 C 153.003906 154.761719 155.097656 154.757812 156.414062 154.472656 C 157.78125 154.175781 160.789062 153.039062 160.789062 152.820312 C 160.789062 152.714844 159.539062 151.742188 158.734375 151.21875 C 156.710938 149.902344 154.136719 148.964844 151.671875 148.640625 C 150.308594 148.460938 150.320312 148.46875 150.945312 148.207031 C 152.679688 147.484375 154.449219 146.671875 156.253906 145.769531 L 158.292969 144.75 L 158.882812 145.191406 C 159.664062 145.777344 161.273438 146.566406 162.285156 146.859375 C 165.695312 147.847656 169.394531 147.25 172.078125 145.28125 C 172.65625 144.851562 173.855469 143.738281 173.855469 143.625 C 173.855469 143.519531 172.503906 142.839844 171.714844 142.550781 C 170.890625 142.246094 169.617188 141.949219 168.503906 141.800781 C 167.457031 141.664062 164.660156 141.683594 163.601562 141.839844 C 163.128906 141.910156 162.730469 141.960938 162.71875 141.949219 C 162.707031 141.941406 162.972656 141.730469 163.308594 141.484375 C 164.832031 140.359375 167.039062 138.507812 168.472656 137.144531 C 168.933594 136.707031 169.347656 136.347656 169.390625 136.347656 C 169.4375 136.347656 169.777344 136.488281 170.148438 136.660156 C 172.066406 137.550781 174.535156 137.734375 176.792969 137.15625 C 179.988281 136.34375 182.808594 134.214844 184.101562 131.636719 C 184.328125 131.1875 184.386719 131.230469 183.246094 131.007812 C 182.097656 130.78125 179.242188 130.785156 178.007812 131.011719 C 176.484375 131.289062 174.839844 131.820312 173.1875 132.566406 L 172.65625 132.804688 L 172.933594 132.460938 C 175.183594 129.675781 175.988281 128.578125 177.136719 126.722656 C 177.992188 125.34375 177.890625 125.433594 178.527344 125.519531 C 178.828125 125.5625 179.503906 125.597656 180.027344 125.601562 C 183.113281 125.625 185.875 124.542969 187.914062 122.515625 C 188.859375 121.574219 189.464844 120.742188 190.089844 119.511719 C 190.554688 118.597656 191.1875 117.023438 191.1875 116.773438 C 191.1875 116.585938 188.71875 116.933594 187.238281 117.328125 C 184.976562 117.929688 183.003906 118.953125 181.015625 120.566406 C 180.621094 120.886719 180.296875 121.125 180.296875 121.101562 C 180.296875 121.074219 180.421875 120.8125 180.570312 120.515625 C 181.210938 119.242188 182.273438 116.59375 182.886719 114.734375 L 183.550781 112.734375 L 183.941406 112.65625 C 187.246094 112.015625 189.324219 111.019531 190.980469 109.289062 C 192.441406 107.761719 193.289062 106.066406 193.8125 103.632812 C 194 102.761719 194.222656 101.050781 194.15625 100.984375 C 194.082031 100.910156 192.234375 101.597656 191.277344 102.050781 C 188.691406 103.28125 186.734375 105.019531 184.761719 107.832031 C 184.652344 107.992188 184.648438 107.992188 184.699219 107.820312 C 184.796875 107.503906 185.277344 104.59375 185.476562 103.101562 C 185.652344 101.792969 185.707031 101.582031 186.078125 100.789062 C 186.539062 99.800781 186.917969 98.683594 187.148438 97.648438 C 187.300781 96.960938 187.308594 96.945312 187.542969 97.003906 C 187.675781 97.03125 188.375 97.214844 189.101562 97.402344 C 189.824219 97.59375 193.210938 98.472656 196.632812 99.359375 C 200.050781 100.246094 202.859375 100.980469 202.875 100.996094 C 202.890625 101.011719 201.8125 103.023438 200.480469 105.46875 C 197.796875 110.386719 195.300781 114.964844 191.238281 122.421875 C 189.75 125.148438 188.074219 128.222656 187.515625 129.246094 C 186.953125 130.273438 185.398438 133.121094 184.0625 135.574219 C 175.957031 150.4375 170.132812 161.113281 165.875 168.925781 C 159.769531 180.117188 157.363281 184.539062 157.136719 184.941406 C 157.011719 185.167969 155.953125 187.113281 154.777344 189.265625 C 153.605469 191.421875 151.460938 195.351562 150.015625 198.003906 C 148.570312 200.65625 146.550781 204.359375 145.527344 206.238281 C 144.503906 208.113281 142.335938 212.085938 140.714844 215.0625 C 139.089844 218.042969 137.300781 221.316406 136.742188 222.34375 C 136.179688 223.371094 135.117188 225.316406 134.382812 226.667969 C 133.648438 228.019531 132.800781 229.574219 132.5 230.125 C 132.195312 230.675781 131.855469 231.300781 131.738281 231.511719 C 131.621094 231.722656 131.503906 231.898438 131.476562 231.898438 C 131.449219 231.898438 131.335938 231.726562 131.230469 231.511719 Z M 137.78125 149.4375 C 139.105469 148.558594 140.078125 147.40625 140.625 146.066406 C 141.046875 145.03125 140.820312 144.058594 139.988281 143.304688 C 139.171875 142.574219 138.101562 142.441406 137.097656 142.949219 C 134.859375 144.085938 133.207031 146.136719 132.445312 148.726562 L 132.214844 149.496094 L 132.207031 142.019531 L 132.59375 141.90625 C 133.269531 141.703125 134.933594 140.992188 135.953125 140.472656 C 140.269531 138.257812 143.324219 134.730469 144.726562 130.34375 C 145.132812 129.078125 145.472656 127.613281 145.363281 127.613281 C 144.777344 127.613281 142.164062 128.300781 141.058594 128.75 C 137 130.390625 133.828125 133.59375 131.929688 137.96875 C 131.71875 138.453125 131.539062 138.863281 131.527344 138.875 C 131.515625 138.890625 131.15625 138.195312 130.730469 137.328125 C 129.554688 134.9375 128.703125 133.71875 127.085938 132.117188 C 125.898438 130.941406 124.757812 130.128906 123.179688 129.34375 C 121.71875 128.617188 120.382812 128.15625 118.8125 127.835938 C 118.207031 127.710938 117.683594 127.613281 117.652344 127.613281 C 117.515625 127.613281 118.230469 130.03125 118.734375 131.269531 C 120.515625 135.628906 123.222656 138.617188 127.214844 140.621094 C 128.261719 141.148438 130.355469 141.988281 130.617188 141.988281 C 130.738281 141.988281 130.753906 142.371094 130.757812 145.152344 C 130.757812 146.890625 130.777344 148.539062 130.804688 148.816406 L 130.851562 149.316406 L 130.585938 148.628906 C 129.550781 145.957031 128.308594 144.3125 126.503906 143.238281 C 125.613281 142.707031 124.960938 142.550781 124.285156 142.707031 C 123.09375 142.984375 122.136719 144.09375 122.136719 145.199219 C 122.136719 146.3125 123.882812 148.691406 125.328125 149.546875 L 125.808594 149.832031 L 125.128906 149.773438 C 123.492188 149.632812 120.023438 149.039062 118.867188 148.699219 L 118.460938 148.578125 L 118.492188 147.671875 C 118.566406 145.382812 118.109375 143.027344 117.253906 141.308594 C 116.050781 138.882812 113.503906 136.804688 110.363281 135.679688 L 109.703125 135.441406 L 109.703125 136.007812 C 109.707031 136.800781 109.933594 138.324219 110.203125 139.332031 C 110.636719 140.960938 111.375 142.574219 112.390625 144.097656 C 113.167969 145.269531 113.363281 145.5 114.679688 146.839844 L 115.648438 147.824219 L 113.96875 147.238281 C 110.753906 146.117188 108.382812 145.050781 106.023438 143.671875 L 105.746094 143.507812 L 105.992188 142.671875 C 106.128906 142.210938 106.332031 141.304688 106.441406 140.660156 C 106.609375 139.671875 106.632812 139.273438 106.589844 138.121094 C 106.476562 135.097656 105.460938 132.871094 103.207031 130.703125 C 102.300781 129.832031 100.660156 128.636719 100.539062 128.761719 C 100.4375 128.863281 100.203125 130.507812 100.128906 131.660156 C 100.03125 133.167969 100.316406 135.453125 100.800781 137.015625 C 101.292969 138.601562 102.164062 140.378906 103.148438 141.808594 L 103.304688 142.035156 L 103.035156 141.863281 C 100.621094 140.328125 97.046875 137.488281 95.421875 135.816406 L 94.882812 135.265625 L 95.148438 134.921875 C 96.761719 132.816406 97.558594 130.078125 97.355469 127.339844 C 97.207031 125.351562 96.421875 123.253906 95.21875 121.640625 C 94.707031 120.953125 93.65625 119.785156 93.546875 119.785156 C 93.429688 119.785156 93.089844 120.492188 92.707031 121.515625 C 91.632812 124.40625 91.382812 127.40625 91.96875 130.324219 C 92.046875 130.707031 92.289062 131.554688 92.503906 132.199219 L 92.898438 133.375 L 92.609375 133.066406 C 91.535156 131.917969 89.183594 128.972656 88.605469 128.054688 C 88.554688 127.976562 88.253906 127.53125 87.9375 127.066406 C 87.621094 126.601562 87.164062 125.894531 86.921875 125.492188 L 86.488281 124.765625 L 86.957031 124.398438 C 88.203125 123.421875 89.40625 121.96875 90.054688 120.648438 C 91.515625 117.691406 91.390625 114.269531 89.675781 110.230469 C 89.453125 109.707031 89.25 109.257812 89.230469 109.234375 C 89.140625 109.140625 87.644531 111.078125 87.078125 112.023438 C 85.414062 114.800781 84.730469 118.390625 85.164062 122.105469 L 85.214844 122.5625 L 84.890625 122.015625 C 84.335938 121.085938 83.34375 119.074219 82.753906 117.691406 C 82.277344 116.585938 80.9375 112.765625 80.9375 112.523438 C 80.9375 112.484375 81.128906 112.359375 81.363281 112.246094 C 81.59375 112.132812 82.167969 111.796875 82.632812 111.503906 C 86.917969 108.804688 88.605469 104.976562 87.789062 99.804688 C 87.605469 98.636719 87.46875 98.035156 87.386719 98.035156 C 87.234375 98.035156 85.773438 99.199219 85.003906 99.9375 C 82.453125 102.367188 80.882812 105.378906 80.296875 108.957031 L 80.183594 109.640625 L 79.59375 105.914062 L 79.007812 102.1875 L 79.25 101.773438 C 79.699219 101.003906 80.367188 99.636719 80.695312 98.808594 C 81.050781 97.910156 81.480469 96.328125 81.484375 95.898438 C 81.484375 95.746094 81.519531 95.570312 81.5625 95.503906 C 81.601562 95.441406 82.570312 95.144531 83.714844 94.847656 C 85.152344 94.476562 85.828125 94.261719 85.910156 94.148438 C 86.082031 93.914062 86.007812 93.574219 85.75 93.382812 C 85.523438 93.21875 85.488281 93.21875 83.628906 93.582031 C 82.585938 93.785156 81.714844 93.929688 81.6875 93.90625 C 81.664062 93.878906 81.605469 93.476562 81.558594 93.011719 C 81.425781 91.636719 80.902344 89.953125 80.238281 88.753906 C 79.871094 88.097656 78.910156 86.660156 78.832031 86.660156 C 78.710938 86.660156 77.957031 87.679688 77.449219 88.53125 C 76.3125 90.429688 75.710938 92.347656 75.65625 94.238281 C 75.632812 95.027344 75.613281 95.117188 75.449219 95.160156 C 75.089844 95.246094 58.789062 98.402344 58.695312 98.402344 C 58.664062 98.402344 58.332031 97.835938 57.957031 97.148438 C 57.582031 96.460938 56.214844 93.953125 54.921875 91.574219 C 53.625 89.199219 51.613281 85.511719 50.453125 83.386719 C 49.296875 81.257812 48.304688 79.464844 48.253906 79.402344 C 48.179688 79.3125 52.007812 79.289062 67.351562 79.289062 L 86.539062 79.289062 L 86.78125 79.101562 C 87.070312 78.871094 87.097656 78.480469 86.835938 78.242188 C 86.640625 78.066406 87.941406 78.160156 56.574219 76.0625 C 50.886719 75.683594 46.191406 75.359375 46.140625 75.339844 C 46.089844 75.324219 45.851562 74.945312 45.609375 74.5 C 45.363281 74.058594 43.960938 71.480469 42.488281 68.78125 C 39.328125 62.984375 37.6875 59.972656 35.875 56.652344 C 35.144531 55.316406 33.964844 53.15625 33.253906 51.851562 C 29.730469 45.386719 27.085938 40.535156 26.460938 39.394531 C 26.078125 38.699219 25.777344 38.117188 25.792969 38.105469 C 25.8125 38.085938 28.394531 39.167969 43.011719 45.339844 C 49.175781 47.945312 52.808594 49.476562 66.421875 55.21875 C 79.238281 60.625 84.277344 62.753906 86.695312 63.773438 C 87.839844 64.253906 88.886719 64.671875 89.019531 64.699219 C 89.207031 64.738281 89.304688 64.691406 89.457031 64.496094 C 89.667969 64.226562 89.648438 63.972656 89.390625 63.71875 C 89.308594 63.636719 88.117188 63.050781 86.746094 62.410156 C 85.375 61.769531 83.78125 61.019531 83.207031 60.746094 C 82.632812 60.476562 82 60.179688 81.800781 60.089844 C 81.601562 60 80.742188 59.601562 79.894531 59.199219 C 77.902344 58.257812 62.582031 51.054688 61.746094 50.667969 C 61.398438 50.503906 60.089844 49.890625 58.84375 49.304688 C 57.597656 48.714844 54.984375 47.488281 53.035156 46.574219 C 51.089844 45.660156 48.191406 44.300781 46.59375 43.546875 C 44.996094 42.796875 40.097656 40.492188 35.707031 38.429688 C 25.914062 33.832031 23.484375 32.6875 22.957031 32.433594 C 22.546875 32.238281 22.546875 32.238281 19.742188 27.074219 C 18.195312 24.238281 16.539062 21.195312 16.058594 20.320312 C 15.574219 19.445312 14.648438 17.746094 13.996094 16.542969 C 13.34375 15.34375 12.386719 13.582031 11.867188 12.632812 C 10.300781 9.773438 10.15625 9.507812 9.285156 7.898438 L 8.441406 6.351562 L 53.035156 6.304688 L 54.851562 8.148438 C 58.0625 11.410156 62.34375 15.773438 67.828125 21.367188 C 93.601562 47.660156 96.433594 50.523438 96.683594 50.589844 C 97.117188 50.695312 97.5 50.21875 97.304688 49.808594 C 97.261719 49.714844 96.308594 48.644531 95.183594 47.425781 C 93.296875 45.378906 91.242188 43.148438 85.53125 36.929688 C 82.429688 33.554688 81.792969 32.863281 79.207031 30.054688 C 76.570312 27.1875 75.679688 26.214844 65.335938 14.953125 C 61.175781 10.421875 57.691406 6.625 57.589844 6.511719 L 57.40625 6.308594 L 75.867188 6.3125 L 94.324219 6.3125 L 95.109375 8.015625 C 95.542969 8.953125 97.75 13.710938 100.019531 18.59375 C 102.289062 23.472656 104.851562 28.980469 105.710938 30.832031 C 106.570312 32.683594 107.429688 34.527344 107.617188 34.925781 C 107.800781 35.328125 108.925781 37.742188 110.109375 40.296875 C 111.296875 42.847656 112.328125 45.007812 112.40625 45.097656 C 112.605469 45.324219 113.101562 45.300781 113.328125 45.054688 C 113.597656 44.769531 113.5625 44.484375 113.117188 43.378906 C 112.898438 42.835938 112.082031 40.773438 111.304688 38.792969 C 110.53125 36.816406 109.53125 34.277344 109.085938 33.152344 C 107.074219 28.054688 104.496094 21.503906 102.761719 17.089844 C 102.445312 16.289062 101.800781 14.652344 101.328125 13.449219 C 99.261719 8.210938 98.542969 6.378906 98.542969 6.34375 C 98.542969 6.324219 113.363281 6.308594 131.480469 6.308594 C 149.597656 6.308594 164.417969 6.328125 164.417969 6.355469 C 164.417969 6.421875 163.109375 9.757812 157.199219 24.734375 C 156.222656 27.210938 152.015625 37.898438 150.117188 42.730469 C 149.75 43.667969 149.445312 44.515625 149.445312 44.613281 C 149.445312 44.710938 149.542969 44.898438 149.65625 45.035156 C 149.90625 45.324219 150.296875 45.355469 150.539062 45.109375 C 150.628906 45.015625 151.875 42.417969 153.304688 39.339844 C 154.738281 36.261719 156.449219 32.578125 157.113281 31.152344 C 157.78125 29.722656 160.636719 23.582031 163.464844 17.5 C 166.292969 11.417969 168.632812 6.414062 168.671875 6.375 C 168.707031 6.335938 177.023438 6.316406 187.144531 6.328125 L 205.554688 6.351562 L 203.246094 8.855469 C 200.433594 11.910156 195.171875 17.632812 192.957031 20.050781 C 189.6875 23.613281 177.496094 36.882812 175.941406 38.566406 C 175.066406 39.519531 172.882812 41.894531 171.085938 43.84375 C 169.292969 45.796875 167.617188 47.621094 167.363281 47.894531 C 165.4375 49.96875 165.386719 50.050781 165.78125 50.441406 C 166.132812 50.796875 166.484375 50.632812 167.367188 49.699219 C 167.988281 49.046875 176.246094 40.617188 181.929688 34.839844 C 183.503906 33.238281 184.808594 31.90625 184.835938 31.878906 C 184.859375 31.847656 186.085938 30.597656 187.5625 29.097656 C 189.035156 27.601562 192.710938 23.855469 195.730469 20.777344 C 198.75 17.699219 203.179688 13.183594 205.570312 10.742188 L 209.925781 6.308594 L 232.222656 6.308594 C 244.488281 6.308594 254.523438 6.320312 254.523438 6.335938 C 254.523438 6.363281 253.179688 8.839844 249.671875 15.269531 C 245.15625 23.542969 243.421875 26.726562 241.914062 29.496094 L 240.414062 32.257812 L 239.140625 32.851562 C 236.941406 33.882812 225.023438 39.484375 221.992188 40.910156 C 220.394531 41.664062 218.761719 42.429688 218.363281 42.617188 C 217.964844 42.804688 216.65625 43.417969 215.460938 43.980469 C 211.574219 45.808594 210.648438 46.242188 196.765625 52.761719 C 189.230469 56.304688 182.125 59.640625 180.980469 60.183594 C 179.832031 60.722656 177.753906 61.703125 176.359375 62.355469 C 174.964844 63.007812 173.730469 63.609375 173.613281 63.683594 C 173.128906 64.003906 173.503906 64.847656 174.054688 64.679688 C 174.257812 64.621094 179.183594 62.546875 202.800781 52.582031 C 208.816406 50.042969 216.921875 46.625 220.8125 44.980469 C 231.253906 40.578125 236.566406 38.335938 236.898438 38.191406 C 237.058594 38.121094 237.191406 38.085938 237.191406 38.117188 C 237.191406 38.144531 236.839844 38.808594 236.410156 39.59375 C 235.59375 41.082031 234.300781 43.453125 229.867188 51.582031 C 228.421875 54.234375 226.03125 58.613281 224.558594 61.316406 C 223.085938 64.019531 221.0625 67.726562 220.066406 69.554688 C 219.070312 71.378906 217.957031 73.421875 217.59375 74.089844 C 217.230469 74.753906 216.886719 75.316406 216.832031 75.335938 C 216.773438 75.355469 214.238281 75.535156 211.195312 75.742188 C 208.152344 75.945312 199.902344 76.5 192.867188 76.96875 C 185.828125 77.441406 179.214844 77.886719 178.171875 77.957031 C 176.390625 78.074219 176.261719 78.097656 176.105469 78.289062 C 175.875 78.578125 175.902344 78.878906 176.183594 79.101562 L 176.421875 79.289062 L 214.785156 79.289062 L 214.652344 79.496094 C 214.582031 79.609375 213.433594 81.707031 212.097656 84.160156 C 210.765625 86.609375 209.324219 89.253906 208.902344 90.027344 C 208.476562 90.804688 207.292969 92.972656 206.273438 94.851562 C 205.253906 96.726562 204.386719 98.296875 204.347656 98.339844 C 204.28125 98.410156 202.855469 98.144531 194.996094 96.613281 C 193.324219 96.289062 191.40625 95.917969 190.734375 95.789062 C 190.058594 95.660156 189.058594 95.464844 188.511719 95.359375 L 187.511719 95.160156 L 187.445312 94.527344 C 187.179688 91.988281 186.632812 90.304688 185.441406 88.394531 C 185.128906 87.890625 184.429688 86.898438 184.195312 86.628906 C 184.015625 86.425781 182.539062 89.261719 182.0625 90.714844 C 181.796875 91.53125 181.617188 92.351562 181.421875 93.644531 C 181.398438 93.808594 181.328125 93.941406 181.269531 93.941406 C 181.210938 93.941406 180.753906 93.859375 180.253906 93.761719 C 179.753906 93.664062 178.933594 93.503906 178.429688 93.402344 C 177.921875 93.304688 177.425781 93.246094 177.324219 93.273438 C 177.097656 93.332031 176.902344 93.765625 176.984375 94.03125 C 177.0625 94.277344 177.085938 94.285156 179.472656 94.90625 L 181.476562 95.425781 L 181.476562 95.734375 C 181.476562 96.167969 181.722656 97.324219 181.988281 98.128906 C 182.300781 99.074219 182.90625 100.296875 183.546875 101.265625 L 184.085938 102.085938 L 184.003906 102.675781 C 183.761719 104.398438 183.433594 106.367188 183.136719 107.910156 C 182.816406 109.574219 182.800781 109.625 182.71875 109.230469 C 181.871094 105.160156 180.5625 102.457031 178.292969 100.089844 C 177.460938 99.222656 175.90625 97.941406 175.816406 98.046875 C 175.734375 98.136719 175.304688 100.171875 175.210938 100.902344 C 175.050781 102.132812 175.148438 103.972656 175.433594 105.089844 C 176.148438 107.890625 178.136719 110.257812 181.230469 111.992188 C 181.667969 112.238281 182.023438 112.484375 182.023438 112.542969 C 182.023438 112.601562 181.835938 113.238281 181.605469 113.964844 C 181.003906 115.875 179.871094 118.675781 178.910156 120.640625 L 178.074219 122.351562 L 178.070312 120.183594 C 178.0625 118.214844 178.039062 117.902344 177.828125 116.867188 C 177.507812 115.304688 177.136719 114.226562 176.441406 112.824219 C 175.875 111.683594 175.136719 110.558594 174.339844 109.628906 L 173.960938 109.183594 L 173.511719 110.140625 C 172.511719 112.269531 172.136719 113.707031 172.066406 115.644531 C 172.03125 116.699219 172.054688 117.195312 172.171875 117.8125 C 172.589844 120.046875 173.644531 121.886719 175.628906 123.847656 L 176.652344 124.859375 L 176.21875 125.585938 C 174.816406 127.925781 172.824219 130.546875 170.875 132.617188 L 170.148438 133.390625 L 170.511719 132.261719 C 171.851562 128.089844 171.671875 124.296875 169.949219 120.535156 C 169.738281 120.070312 169.53125 119.699219 169.492188 119.714844 C 169.359375 119.765625 168.203125 121.207031 167.6875 121.972656 C 166.179688 124.207031 165.527344 126.300781 165.625 128.613281 C 165.714844 130.714844 166.320312 132.464844 167.714844 134.65625 L 168.175781 135.375 L 167.167969 136.347656 C 165.417969 138.039062 163.277344 139.75 161.0625 141.234375 C 160.386719 141.683594 159.785156 142.082031 159.722656 142.117188 C 159.660156 142.152344 159.855469 141.800781 160.15625 141.335938 C 161.320312 139.542969 162.273438 137.265625 162.695312 135.289062 C 163.066406 133.550781 163.039062 130.8125 162.632812 129.183594 L 162.492188 128.617188 L 161.953125 128.996094 C 159.171875 130.953125 157.371094 133.3125 156.640625 135.949219 C 156.414062 136.777344 156.390625 136.980469 156.390625 138.53125 C 156.386719 140.367188 156.484375 141.019531 156.984375 142.589844 C 157.132812 143.046875 157.25 143.464844 157.25 143.523438 C 157.25 143.65625 153.421875 145.539062 151.804688 146.203125 C 150.511719 146.734375 149.09375 147.253906 148.039062 147.585938 L 147.40625 147.785156 L 148.589844 146.59375 C 150.859375 144.3125 152.316406 141.566406 153.019531 138.253906 C 153.261719 137.113281 153.484375 135.542969 153.410156 135.46875 C 153.25 135.308594 150.402344 136.613281 149.195312 137.402344 C 148.238281 138.023438 146.746094 139.5 146.164062 140.398438 C 145.351562 141.65625 144.824219 143.144531 144.625 144.761719 C 144.542969 145.449219 144.5625 147.664062 144.660156 148.398438 C 144.6875 148.601562 144.800781 148.566406 142.503906 149.035156 C 141.148438 149.308594 138.859375 149.6875 137.515625 149.859375 L 137.0625 149.917969 Z M 105.875 119.292969 C 117.515625 114.351562 128.648438 112.769531 140.144531 114.421875 C 147.480469 115.476562 155.222656 118.03125 162.5 121.796875 C 163.46875 122.296875 164.300781 122.691406 164.347656 122.675781 C 164.457031 122.640625 164.664062 122.140625 165.546875 119.785156 C 170.554688 106.480469 172.335938 93.542969 170.902344 80.972656 C 169.992188 72.972656 167.765625 65.0625 164.238281 57.269531 C 163.515625 55.671875 161.808594 52.265625 161.066406 50.941406 C 160.699219 50.292969 160.257812 49.492188 160.078125 49.167969 C 159.902344 48.84375 159.710938 48.546875 159.660156 48.511719 C 159.609375 48.472656 146.957031 48.441406 131.546875 48.441406 L 103.53125 48.441406 L 103.226562 48.917969 C 102.652344 49.820312 101.257812 52.402344 100.234375 54.445312 C 93.046875 68.835938 90.347656 84.019531 92.238281 99.425781 C 93.136719 106.785156 95.148438 114.203125 98.234375 121.570312 L 98.734375 122.761719 L 101.472656 121.382812 C 102.980469 120.621094 104.960938 119.683594 105.875 119.292969 Z M 100.195312 117.578125 C 100.09375 117.316406 99.984375 117.03125 99.949219 116.945312 C 99.878906 116.773438 99.902344 116.761719 102.625 115.535156 C 114.542969 110.171875 127.222656 108.160156 139.464844 109.6875 C 146.9375 110.621094 155.03125 112.996094 162.160156 116.34375 L 163.121094 116.796875 L 162.941406 117.40625 C 162.839844 117.738281 162.75 118.023438 162.742188 118.035156 C 162.730469 118.050781 162.359375 117.890625 161.914062 117.6875 C 152.90625 113.503906 144.226562 111.1875 135.34375 110.597656 C 133.507812 110.476562 129.230469 110.476562 127.351562 110.597656 C 121.503906 110.972656 115.804688 112.121094 109.980469 114.097656 C 107.210938 115.039062 103.757812 116.457031 101.363281 117.636719 C 100.894531 117.867188 100.484375 118.058594 100.449219 118.058594 C 100.410156 118.058594 100.300781 117.839844 100.195312 117.578125 Z M 98.777344 113.519531 C 98.753906 113.480469 98.546875 112.792969 98.324219 111.996094 C 95.988281 103.683594 94.992188 96.332031 95.125 88.4375 C 95.222656 82.4375 95.847656 77.636719 97.269531 71.917969 C 98.828125 65.648438 101.167969 59.632812 104.550781 53.195312 L 105.28125 51.808594 L 157.761719 51.808594 L 158.453125 53.105469 C 162.222656 60.179688 164.609375 66.480469 166.175781 73.464844 C 168.875 85.539062 168.449219 98.355469 164.90625 111.53125 C 164.675781 112.390625 164.464844 113.191406 164.441406 113.308594 C 164.378906 113.59375 164.363281 113.589844 162.105469 112.570312 C 146.613281 105.585938 130.695312 103.980469 114.96875 107.824219 C 109.527344 109.15625 105.265625 110.664062 99.339844 113.355469 C 99.054688 113.484375 98.800781 113.558594 98.777344 113.519531 Z M 101.058594 110.996094 C 109.671875 107.386719 117.707031 105.375 126.714844 104.570312 C 128.726562 104.390625 135.832031 104.421875 137.921875 104.617188 C 144.214844 105.210938 149.589844 106.363281 155.453125 108.375 C 157.808594 109.183594 160.6875 110.335938 162.535156 111.207031 C 163.023438 111.4375 163.4375 111.609375 163.453125 111.585938 C 163.507812 111.515625 164.234375 108.605469 164.597656 107.011719 C 166.59375 98.191406 167.082031 89.351562 166.050781 80.835938 C 164.984375 72.0625 162.285156 63.472656 157.941406 55.039062 L 157.003906 53.21875 L 106.027344 53.21875 L 104.886719 55.492188 C 100.3125 64.605469 97.539062 73.785156 96.597656 82.929688 C 96.34375 85.433594 96.253906 87.261719 96.25 90.164062 C 96.246094 95.8125 96.847656 100.941406 98.1875 106.605469 C 98.683594 108.714844 99.496094 111.59375 99.589844 111.59375 C 99.609375 111.59375 100.269531 111.324219 101.058594 110.996094 Z M 160.136719 106.492188 C 157.734375 105.519531 154.386719 104.429688 151.332031 103.625 C 150.394531 103.378906 149.628906 103.152344 149.628906 103.117188 C 149.628906 103.085938 150.46875 102.347656 151.5 101.480469 C 152.527344 100.613281 153.5 99.792969 153.65625 99.660156 C 156.863281 96.929688 159.335938 94.867188 159.339844 94.917969 C 159.339844 95.054688 158.679688 101.085938 158.664062 101.105469 C 158.628906 101.144531 157.480469 100.746094 157.390625 100.664062 C 157.339844 100.617188 157.367188 100.113281 157.464844 99.347656 C 157.554688 98.667969 157.609375 98.09375 157.589844 98.070312 C 157.558594 98.042969 152.949219 101.890625 152.453125 102.363281 C 152.347656 102.460938 153 102.703125 156.308594 103.792969 C 158.914062 104.652344 160.308594 105.070312 160.347656 105.007812 C 160.441406 104.839844 161.136719 101.082031 161.332031 99.699219 C 162.039062 94.660156 162.203125 89.878906 161.828125 85.070312 C 161.671875 83.050781 161.398438 80.726562 161.351562 80.972656 C 161.269531 81.371094 160.476562 83.652344 160.105469 84.570312 C 157.738281 90.363281 154.03125 95.15625 149.28125 98.554688 C 143.496094 102.699219 136.132812 104.769531 129.117188 104.21875 C 125.796875 103.960938 122.910156 103.308594 120.003906 102.15625 C 112.300781 99.109375 106.417969 93.210938 103.164062 85.269531 C 102.648438 84.019531 101.722656 81.203125 101.707031 80.84375 C 101.671875 80.042969 101.222656 84.261719 101.085938 86.660156 C 100.789062 91.992188 101.210938 97.707031 102.324219 103.359375 C 102.503906 104.261719 102.671875 105.023438 102.703125 105.050781 C 102.78125 105.125 110.546875 102.554688 110.578125 102.445312 C 110.589844 102.398438 109.964844 101.828125 109.191406 101.175781 C 108.414062 100.523438 107.265625 99.554688 106.632812 99.019531 C 106 98.484375 105.46875 98.089844 105.449219 98.140625 C 105.433594 98.195312 105.488281 98.769531 105.574219 99.417969 C 105.660156 100.070312 105.695312 100.636719 105.652344 100.675781 C 105.570312 100.753906 104.414062 101.128906 104.371094 101.089844 C 104.328125 101.050781 103.707031 95.183594 103.734375 95.050781 C 103.75 94.96875 105.558594 96.441406 108.570312 98.980469 C 111.214844 101.21875 113.386719 103.074219 113.402344 103.113281 C 113.414062 103.148438 112.964844 103.296875 112.402344 103.4375 C 109.328125 104.21875 105.832031 105.332031 103.09375 106.40625 C 102.425781 106.667969 101.847656 106.847656 101.808594 106.804688 C 101.644531 106.636719 100.792969 102.027344 100.457031 99.492188 C 99.710938 93.90625 99.597656 87.824219 100.136719 82.566406 C 100.816406 75.921875 102.378906 69.65625 104.917969 63.410156 C 105.589844 61.757812 106.03125 60.785156 107.09375 58.609375 L 108.101562 56.539062 L 119.234375 56.539062 L 118.859375 57.28125 C 117.019531 60.957031 114.265625 63.761719 110.710938 65.585938 C 109.835938 66.035156 107.699219 66.9375 107.644531 66.878906 C 107.632812 66.871094 108.242188 65.402344 108.996094 63.621094 L 110.371094 60.378906 L 111.058594 60.339844 C 111.4375 60.320312 111.753906 60.308594 111.769531 60.316406 C 111.78125 60.328125 111.386719 61.210938 110.890625 62.28125 C 110.394531 63.351562 110.003906 64.246094 110.023438 64.261719 C 110.089844 64.332031 111.902344 63.222656 112.675781 62.640625 C 114.070312 61.597656 115.539062 60.074219 116.582031 58.59375 C 116.792969 58.300781 116.960938 58.023438 116.960938 57.980469 C 116.960938 57.933594 115.152344 57.902344 112.9375 57.90625 L 108.910156 57.914062 L 108.269531 59.253906 C 107.4375 60.992188 106.378906 63.472656 105.644531 65.414062 C 104.914062 67.347656 103.949219 70.273438 104.023438 70.347656 C 104.054688 70.378906 104.078125 70.335938 104.078125 70.25 C 104.078125 70.167969 104.089844 70.097656 104.105469 70.097656 C 104.292969 70.097656 106.335938 69.675781 107.148438 69.46875 C 112.246094 68.171875 116.234375 65.570312 119.117188 61.660156 C 120.597656 59.65625 121.875 57.035156 122.730469 54.265625 L 123.023438 53.308594 L 140.121094 53.308594 L 140.554688 54.628906 C 142.949219 61.964844 147.519531 66.71875 154.347656 68.976562 C 155.414062 69.328125 157.121094 69.753906 158.179688 69.925781 C 158.800781 70.03125 158.890625 70.070312 158.964844 70.277344 C 159.011719 70.402344 159.054688 70.457031 159.058594 70.398438 C 159.070312 70.183594 157.773438 66.402344 157.097656 64.683594 C 156.390625 62.898438 155.164062 60.074219 154.5 58.722656 L 154.121094 57.949219 L 150.105469 57.925781 C 147.453125 57.910156 146.089844 57.933594 146.089844 57.996094 C 146.089844 58.046875 146.242188 58.300781 146.425781 58.566406 C 147.710938 60.386719 149.410156 62.058594 151.148438 63.207031 C 152.011719 63.777344 152.984375 64.3125 152.988281 64.214844 C 152.988281 64.171875 152.59375 63.289062 152.113281 62.25 C 151.628906 61.207031 151.25 60.347656 151.269531 60.332031 C 151.292969 60.320312 151.613281 60.328125 151.984375 60.359375 L 152.660156 60.40625 L 153.511719 62.410156 C 153.980469 63.511719 154.597656 64.972656 154.886719 65.65625 L 155.414062 66.902344 L 154.765625 66.667969 C 150.769531 65.222656 147.5 62.664062 145.304688 59.265625 C 144.777344 58.445312 143.820312 56.730469 143.820312 56.601562 C 143.820312 56.566406 146.320312 56.550781 149.378906 56.5625 L 154.933594 56.585938 L 155.710938 58.136719 C 162.972656 72.640625 164.96875 87.996094 161.734375 104.488281 C 161.503906 105.660156 161.289062 106.6875 161.257812 106.773438 C 161.203125 106.90625 161.070312 106.871094 160.136719 106.496094 Z M 132.667969 101.253906 C 134.074219 100.488281 134.328125 98.632812 133.1875 97.484375 C 131.734375 96.03125 129.207031 97.085938 129.195312 99.152344 C 129.191406 99.835938 129.351562 100.253906 129.808594 100.761719 C 130.582031 101.621094 131.65625 101.804688 132.667969 101.253906 Z M 127.359375 94.894531 C 128.007812 94.726562 129.054688 94.242188 129.640625 93.835938 C 129.875 93.675781 130.386719 93.234375 130.777344 92.859375 L 131.488281 92.179688 L 131.914062 92.59375 C 132.949219 93.59375 134.078125 94.269531 135.386719 94.683594 C 136.257812 94.957031 138.003906 94.980469 138.90625 94.730469 C 141.507812 94.003906 143.507812 91.882812 144.039062 89.28125 C 144.21875 88.414062 144.222656 87.871094 144.054688 87.011719 C 143.890625 86.136719 143.632812 85.503906 143.136719 84.734375 C 142.914062 84.390625 142.730469 84.089844 142.730469 84.070312 C 142.730469 84.050781 143.023438 83.886719 143.375 83.707031 C 145.1875 82.78125 146.234375 81.761719 147.003906 80.167969 C 147.511719 79.121094 147.664062 78.328125 147.609375 76.984375 C 147.554688 75.734375 147.402344 75.070312 146.945312 74.148438 C 145.558594 71.34375 142.683594 69.9375 139.488281 70.496094 C 139.027344 70.578125 138.613281 70.644531 138.570312 70.644531 C 138.527344 70.644531 138.46875 70.367188 138.441406 70.023438 C 138.289062 68.191406 137.394531 66.433594 136.074219 65.359375 C 133.285156 63.09375 129.101562 63.160156 126.714844 65.503906 C 125.597656 66.601562 124.996094 67.90625 124.769531 69.726562 C 124.71875 70.148438 124.660156 70.507812 124.636719 70.53125 C 124.617188 70.550781 124.269531 70.5 123.867188 70.417969 C 120.589844 69.75 117.703125 71.074219 116.324219 73.875 C 115.738281 75.0625 115.59375 75.636719 115.539062 77.015625 C 115.5 77.960938 115.523438 78.285156 115.675781 78.933594 C 116.242188 81.308594 117.628906 82.832031 120.109375 83.808594 C 120.308594 83.886719 120.304688 83.890625 119.957031 84.425781 C 118.367188 86.839844 118.574219 90 120.480469 92.382812 C 122.222656 94.554688 124.886719 95.53125 127.359375 94.894531 Z M 161.304688 80.316406 C 161.28125 80.226562 161.261719 80.277344 161.261719 80.425781 C 161.257812 80.578125 161.277344 80.648438 161.300781 80.589844 C 161.328125 80.527344 161.328125 80.402344 161.304688 80.316406 Z M 101.78125 80.132812 C 101.757812 80.046875 101.738281 80.09375 101.734375 80.246094 C 101.734375 80.394531 101.753906 80.46875 101.777344 80.40625 C 101.800781 80.34375 101.804688 80.222656 101.78125 80.132812 Z M 161.214844 79.769531 C 161.191406 79.679688 161.171875 79.730469 161.171875 79.882812 C 161.167969 80.03125 161.1875 80.105469 161.210938 80.042969 C 161.238281 79.980469 161.238281 79.859375 161.214844 79.769531 Z M 101.867188 79.539062 C 101.84375 79.476562 101.824219 79.527344 101.824219 79.652344 C 101.824219 79.78125 101.84375 79.832031 101.867188 79.769531 C 101.894531 79.707031 101.894531 79.601562 101.867188 79.539062 Z M 108.300781 79.480469 C 109.609375 78.886719 110.136719 77.390625 109.464844 76.191406 C 108.621094 74.6875 106.675781 74.476562 105.574219 75.769531 C 105.253906 76.144531 104.984375 76.835938 104.984375 77.289062 C 104.984375 77.75 105.253906 78.4375 105.589844 78.828125 C 106.242188 79.59375 107.429688 79.878906 108.300781 79.480469 Z M 156.574219 79.480469 C 157.832031 78.910156 158.359375 77.480469 157.761719 76.253906 C 156.824219 74.335938 154.0625 74.546875 153.386719 76.585938 C 152.890625 78.085938 154.054688 79.65625 155.664062 79.652344 C 155.996094 79.652344 156.351562 79.585938 156.574219 79.480469 Z M 161.121094 79.175781 C 161.097656 79.113281 161.074219 79.164062 161.074219 79.289062 C 161.074219 79.414062 161.097656 79.464844 161.121094 79.402344 C 161.148438 79.339844 161.148438 79.238281 161.121094 79.175781 Z M 101.960938 79 C 101.933594 78.925781 101.910156 78.949219 101.90625 79.054688 C 101.902344 79.152344 101.925781 79.203125 101.953125 79.175781 C 101.984375 79.144531 101.988281 79.066406 101.960938 79 Z M 161.03125 78.628906 C 161.003906 78.566406 160.984375 78.617188 160.984375 78.746094 C 160.984375 78.871094 161.003906 78.921875 161.03125 78.859375 C 161.054688 78.796875 161.054688 78.691406 161.03125 78.628906 Z M 102.050781 78.453125 C 102.023438 78.382812 102 78.402344 101.996094 78.507812 C 101.992188 78.605469 102.015625 78.660156 102.046875 78.628906 C 102.074219 78.597656 102.078125 78.519531 102.050781 78.453125 Z M 160.941406 78.132812 C 160.917969 78.042969 160.898438 78.09375 160.898438 78.242188 C 160.894531 78.394531 160.914062 78.464844 160.941406 78.40625 C 160.964844 78.34375 160.964844 78.21875 160.941406 78.132812 Z M 160.847656 77.628906 C 160.824219 77.566406 160.804688 77.617188 160.804688 77.742188 C 160.804688 77.867188 160.824219 77.917969 160.847656 77.855469 C 160.875 77.792969 160.875 77.691406 160.847656 77.628906 Z M 160.757812 77.175781 C 160.734375 77.113281 160.710938 77.164062 160.710938 77.289062 C 160.710938 77.414062 160.734375 77.464844 160.757812 77.402344 C 160.785156 77.339844 160.785156 77.238281 160.757812 77.175781 Z M 160.667969 76.71875 C 160.644531 76.65625 160.621094 76.707031 160.621094 76.832031 C 160.621094 76.957031 160.644531 77.007812 160.667969 76.945312 C 160.691406 76.882812 160.691406 76.78125 160.667969 76.71875 Z M 102.414062 76.542969 C 102.386719 76.46875 102.363281 76.492188 102.359375 76.597656 C 102.355469 76.695312 102.378906 76.746094 102.40625 76.71875 C 102.4375 76.6875 102.441406 76.609375 102.414062 76.542969 Z M 160.578125 76.265625 C 160.550781 76.203125 160.53125 76.253906 160.53125 76.378906 C 160.53125 76.503906 160.550781 76.554688 160.578125 76.492188 C 160.601562 76.429688 160.601562 76.328125 160.578125 76.265625 Z M 102.507812 76.089844 C 102.476562 76.015625 102.457031 76.035156 102.453125 76.144531 C 102.449219 76.238281 102.46875 76.292969 102.5 76.261719 C 102.527344 76.230469 102.53125 76.152344 102.507812 76.089844 Z M 160.488281 75.808594 C 160.460938 75.746094 160.441406 75.796875 160.441406 75.921875 C 160.441406 76.046875 160.460938 76.097656 160.488281 76.035156 C 160.511719 75.972656 160.511719 75.871094 160.488281 75.808594 Z M 102.597656 75.722656 C 102.566406 75.652344 102.546875 75.671875 102.542969 75.777344 C 102.539062 75.875 102.558594 75.929688 102.589844 75.898438 C 102.621094 75.867188 102.625 75.789062 102.597656 75.722656 Z M 160.398438 75.449219 C 160.367188 75.378906 160.347656 75.398438 160.34375 75.507812 C 160.339844 75.601562 160.359375 75.65625 160.390625 75.625 C 160.421875 75.59375 160.421875 75.515625 160.398438 75.449219 Z M 160.308594 75.085938 C 160.277344 75.015625 160.257812 75.035156 160.253906 75.140625 C 160.25 75.238281 160.269531 75.292969 160.300781 75.261719 C 160.328125 75.230469 160.332031 75.152344 160.308594 75.085938 Z M 102.777344 74.90625 C 102.75 74.832031 102.726562 74.855469 102.722656 74.960938 C 102.71875 75.054688 102.742188 75.109375 102.769531 75.078125 C 102.800781 75.050781 102.804688 74.972656 102.777344 74.90625 Z M 160.214844 74.632812 C 160.1875 74.558594 160.164062 74.582031 160.160156 74.6875 C 160.15625 74.78125 160.179688 74.835938 160.207031 74.804688 C 160.238281 74.777344 160.242188 74.699219 160.214844 74.632812 Z M 160.125 74.269531 C 160.097656 74.195312 160.074219 74.21875 160.070312 74.324219 C 160.066406 74.417969 160.089844 74.472656 160.117188 74.441406 C 160.148438 74.414062 160.152344 74.332031 160.125 74.269531 Z M 160.035156 73.902344 C 160.003906 73.832031 159.984375 73.851562 159.980469 73.960938 C 159.976562 74.054688 159.996094 74.109375 160.027344 74.078125 C 160.058594 74.046875 160.0625 73.96875 160.035156 73.902344 Z M 103.050781 73.8125 C 103.023438 73.742188 103 73.761719 102.996094 73.867188 C 102.992188 73.964844 103.011719 74.019531 103.042969 73.988281 C 103.074219 73.957031 103.078125 73.878906 103.050781 73.8125 Z M 159.945312 73.539062 C 159.914062 73.46875 159.894531 73.488281 159.890625 73.59375 C 159.886719 73.691406 159.90625 73.746094 159.9375 73.714844 C 159.96875 73.683594 159.96875 73.605469 159.945312 73.539062 Z M 103.140625 73.449219 C 103.113281 73.375 103.089844 73.398438 103.085938 73.503906 C 103.082031 73.601562 103.105469 73.652344 103.132812 73.625 C 103.164062 73.59375 103.167969 73.515625 103.140625 73.449219 Z M 159.851562 73.175781 C 159.824219 73.101562 159.800781 73.125 159.796875 73.230469 C 159.792969 73.328125 159.816406 73.378906 159.847656 73.351562 C 159.875 73.320312 159.878906 73.242188 159.851562 73.175781 Z M 103.230469 73.085938 C 103.203125 73.011719 103.179688 73.035156 103.175781 73.140625 C 103.171875 73.234375 103.195312 73.289062 103.226562 73.257812 C 103.253906 73.230469 103.257812 73.152344 103.230469 73.085938 Z M 103.324219 72.722656 C 103.292969 72.648438 103.273438 72.671875 103.269531 72.777344 C 103.265625 72.871094 103.285156 72.925781 103.316406 72.894531 C 103.347656 72.863281 103.347656 72.785156 103.324219 72.722656 Z M 103.519531 72.101562 C 103.519531 72.015625 103.492188 72.03125 103.441406 72.148438 C 103.398438 72.246094 103.363281 72.390625 103.363281 72.464844 C 103.363281 72.550781 103.394531 72.535156 103.441406 72.417969 C 103.484375 72.320312 103.519531 72.175781 103.519531 72.101562 Z M 159.582031 72.175781 C 159.550781 72.101562 159.53125 72.125 159.527344 72.230469 C 159.523438 72.324219 159.542969 72.378906 159.574219 72.347656 C 159.605469 72.320312 159.605469 72.242188 159.582031 72.175781 Z M 159.488281 71.8125 C 159.460938 71.738281 159.441406 71.761719 159.433594 71.867188 C 159.429688 71.960938 159.453125 72.015625 159.484375 71.984375 C 159.511719 71.957031 159.515625 71.875 159.488281 71.8125 Z M 103.703125 71.464844 C 103.703125 71.378906 103.671875 71.394531 103.625 71.507812 C 103.582031 71.609375 103.546875 71.753906 103.546875 71.828125 C 103.546875 71.914062 103.574219 71.898438 103.625 71.78125 C 103.667969 71.683594 103.703125 71.539062 103.703125 71.464844 Z M 159.308594 71.175781 C 159.28125 71.101562 159.257812 71.121094 159.253906 71.230469 C 159.25 71.324219 159.269531 71.378906 159.300781 71.347656 C 159.332031 71.316406 159.335938 71.238281 159.308594 71.175781 Z M 103.882812 70.828125 C 103.882812 70.742188 103.855469 70.757812 103.804688 70.871094 C 103.761719 70.972656 103.726562 71.117188 103.726562 71.191406 C 103.726562 71.277344 103.757812 71.261719 103.804688 71.144531 C 103.847656 71.046875 103.882812 70.902344 103.882812 70.828125 Z M 132.625 60.5625 C 133.023438 60.359375 133.46875 59.898438 133.722656 59.429688 C 133.960938 58.984375 133.941406 57.882812 133.6875 57.40625 C 133.25 56.582031 132.441406 56.089844 131.519531 56.085938 C 130.222656 56.082031 129.191406 57.125 129.195312 58.4375 C 129.199219 59.488281 129.757812 60.277344 130.796875 60.703125 C 131.199219 60.867188 132.175781 60.792969 132.625 60.5625 Z M 168.320312 49.441406 C 168.320312 49.390625 168.300781 49.351562 168.28125 49.351562 C 168.257812 49.351562 168.214844 49.390625 168.183594 49.441406 C 168.152344 49.492188 168.171875 49.53125 168.222656 49.53125 C 168.277344 49.53125 168.320312 49.492188 168.320312 49.441406 Z M 121.660156 44.597656 L 121.6875 43.253906 L 141.371094 43.253906 L 141.371094 45.894531 L 143.820312 45.894531 L 143.820312 40.707031 L 140.464844 40.707031 L 140.464844 35.15625 L 135.835938 35.15625 L 135.835938 24.234375 L 140.464844 24.234375 L 140.464844 18.683594 L 142.914062 18.683594 L 142.890625 14.566406 C 142.878906 12.300781 142.835938 10.457031 142.800781 10.46875 C 142.761719 10.484375 137.667969 10.492188 131.480469 10.492188 L 120.230469 10.492188 L 120.230469 18.683594 L 122.496094 18.683594 L 122.496094 24.234375 L 127.125 24.234375 L 127.125 35.15625 L 122.496094 35.15625 L 122.496094 40.707031 L 119.320312 40.707031 L 119.320312 43.285156 C 119.320312 44.703125 119.339844 45.878906 119.363281 45.902344 C 119.382812 45.925781 119.90625 45.941406 120.519531 45.941406 L 121.636719 45.9375 Z M 124.949219 39.113281 L 124.949219 37.519531 L 138.105469 37.519531 L 138.105469 40.707031 L 124.949219 40.707031 Z M 129.484375 29.695312 L 129.484375 24.234375 L 133.476562 24.234375 L 133.476562 35.15625 L 129.484375 35.15625 Z M 124.949219 20.277344 L 124.949219 18.683594 L 138.105469 18.683594 L 138.105469 21.867188 L 124.949219 21.867188 Z M 122.589844 14.542969 L 122.589844 12.949219 L 140.371094 12.949219 L 140.371094 16.136719 L 122.589844 16.136719 Z M 122.589844 14.542969 "/>
</g>
</svg>
