<?xml version="1.0" encoding="UTF-8" standalone="no"?>
<!-- Created with Inkscape (http://www.inkscape.org/) -->

<svg
   xmlns:dc="http://purl.org/dc/elements/1.1/"
   xmlns:cc="http://creativecommons.org/ns#"
   xmlns:rdf="http://www.w3.org/1999/02/22-rdf-syntax-ns#"
   xmlns:svg="http://www.w3.org/2000/svg"
   xmlns="http://www.w3.org/2000/svg"
   xmlns:sodipodi="http://sodipodi.sourceforge.net/DTD/sodipodi-0.dtd"
   xmlns:inkscape="http://www.inkscape.org/namespaces/inkscape"
   version="1.1"
   width="199.99838"
   height="175.39655"
   id="svg2985"
   inkscape:version="0.48.5 r10040"
   sodipodi:docname="世新大學.svg">
  <sodipodi:namedview
     pagecolor="#ffffff"
     bordercolor="#666666"
     borderopacity="1"
     objecttolerance="10"
     gridtolerance="10"
     guidetolerance="10"
     inkscape:pageopacity="0"
     inkscape:pageshadow="2"
     inkscape:window-width="1920"
     inkscape:window-height="1018"
     id="namedview3002"
     showgrid="false"
     inkscape:zoom="1"
     inkscape:cx="178.61416"
     inkscape:cy="88.13554"
     inkscape:window-x="-8"
     inkscape:window-y="-8"
     inkscape:window-maximized="1"
     inkscape:current-layer="svg2985" />
  <metadata
     id="metadata2991">
    <rdf:RDF>
      <cc:Work
         rdf:about="">
        <dc:format>image/svg+xml</dc:format>
        <dc:type
           rdf:resource="http://purl.org/dc/dcmitype/StillImage" />
        <dc:title />
      </cc:Work>
    </rdf:RDF>
  </metadata>
  <defs
     id="defs2989" />
  <path
     d="m 98.600531,175.37241 c -11.609474,-0.51046 -21.719956,-2.92175 -31.89576,-7.60744 -7.55083,-3.47696 -15.140812,-8.59959 -21.506229,-14.51459 -1.433154,-1.33162 -1.643684,-1.47793 -1.869983,-1.29819 -0.140244,0.11154 -1.659521,1.53472 -3.37617,3.16296 -1.716578,1.62821 -3.18822,2.96049 -3.2702,2.96049 -0.665065,0 -4.980369,-1.94158 -6.562784,-2.95317 -0.728538,-0.46567 -0.84747,-0.49777 -1.237327,-0.33606 -1.009357,0.41757 -1.990917,2.13603 -2.511998,4.39635 -0.751589,3.26051 -2.568188,5.57761 -5.487352,6.9994 -1.794617,0.87394 -3.189421,1.17326 -6.220432,1.33428 -2.591506,0.13764 -3.862703,0.3481 -5.0106996,0.83051 -0.6458884,0.27126 -0.6432165,0.27259 -1.3909961,-0.80178 -0.2927782,-0.42092 -1.3056752,0.60065 8.2752907,-8.3437 4.039563,-3.77163 7.670291,-7.17583 8.0683,-7.56466 l 0.723659,-0.7082 -0.687513,-0.98354 c -1.393535,-1.99303 -2.441241,-4.61414 -2.701616,-6.75685 l -0.106035,-0.87326 1.173786,-1.12985 c 0.645555,-0.62202 2.455342,-2.34849 4.021657,-3.83641 1.566381,-1.48798 2.867849,-2.75409 2.892035,-2.81355 0.02403,-0.06 -0.42233,-0.94139 -0.992587,-1.96097 -5.979166,-10.69024 -9.512145,-22.27107 -10.603016,-34.754551 -0.259302,-2.967854 -0.349501,-9.130757 -0.182068,-12.44073 0.05815,-1.14918 0.03116,-0.594922 0.03116,-0.594922 l -0.0022,0.0048 c 0,0 -1.101468,-1.495071 -2.049156,-2.962314 C 7.0313601,67.750752 2.014579,55.48842 0.34436766,43.260158 0.01363931,40.839495 -0.10909764,35.407533 0.11071978,32.926069 0.84366702,24.651849 3.6781092,17.498094 8.3987038,12.008004 9.9473823,10.206704 11.020812,9.3147388 13.564347,7.7145494 19.763665,3.8132844 27.106838,1.2923998 35.197253,0.28818834 38.555649,-0.12872978 46.577446,-0.08596895 50.3249,0.369033 c 8.967613,1.0897331 18.508288,3.7843335 26.354632,7.4437323 1.237393,0.5766035 2.035863,1.0155078 2.035863,1.0155078 0,0 -0.655753,0.1677645 0.924123,-0.273875 6.733705,-1.881483 14.416947,-2.9150925 21.659092,-2.9130883 19.36796,0 37.8924,6.7328332 52.73968,19.1515152 1.01865,0.852544 1.9338,1.518009 2.03348,1.479926 0.0997,-0.0401 1.66066,-1.269461 3.46884,-2.736028 7.57314,-6.142191 16.79044,-13.6099699 16.95972,-13.7395859 0.32545,-0.2505547 1.6365,0.3106829 2.35228,1.0062159 1.47376,1.432485 1.31911,3.271201 -0.46275,5.502783 -1.93333,2.421334 -7.05666,8.180012 -12.84544,14.438461 -0.99128,1.071693 -1.96399,2.127351 -2.16149,2.346505 l -0.35907,0.398207 1.21176,1.400418 c 6.76368,7.817216 12.42216,17.796524 15.82484,27.908124 4.10042,12.186162 5.42249,24.720429 3.97049,37.644879 -0.16672,1.48393 -0.33769,2.8122 -0.38004,2.95118 -0.0534,0.17505 0.34237,0.6581 1.28955,1.57347 2.93609,2.83888 6.1577,6.79494 8.23676,10.11426 2.09608,3.34673 4.12526,7.79449 5.16597,11.32492 1.31055,4.44449 1.6519,6.87982 1.6551,11.80869 0.007,4.91013 -0.38455,7.79585 -1.6275,12.10866 -0.45848,1.59084 -0.62191,1.9256 -1.78902,3.66475 -6.03351,8.98913 -15.76378,15.63979 -27.00841,18.46132 -6.91623,1.73514 -15.19926,2.04916 -23.60774,0.89596 -4.07607,-0.5592 -8.93968,-1.62224 -13.24669,-2.8937 l -1.78025,-0.52582 -3.31603,1.11579 c -6.56464,2.20889 -12.58885,3.47432 -19.2296,4.03889 -2.6145,0.22182 -7.83178,0.37749 -9.792451,0.29131 z m -81.772065,-9.82028 c 2.198108,-0.28999 4.363545,-1.29752 5.656189,-2.63382 1.118333,-1.15522 1.956978,-2.93043 2.367081,-5.01033 0.258502,-1.31158 1.088997,-2.88639 2.004414,-3.80174 l 0.806779,-0.80709 -0.494892,-0.47974 c -0.272133,-0.26324 -0.58362,-0.44231 -0.692058,-0.39756 -0.152069,0.0668 -12.341778,11.40716 -14.039516,13.06547 l -0.352176,0.34409 1.77611,-0.0601 c 0.976886,-0.0334 2.312563,-0.13166 2.968069,-0.21783 z m 145.774874,-1.94966 c 7.88852,-0.70287 14.95494,-3.60526 19.69085,-8.08712 6.36547,-6.0246 8.49584,-13.25719 6.09153,-20.68153 -0.94943,-2.93113 -3.13074,-6.75357 -5.49866,-9.63524 -1.63096,-1.98437 -3.68757,-4.16449 -3.80955,-4.03822 -0.062,0.0667 -0.38246,0.79174 -0.71153,1.61622 -3.2536,8.15196 -7.91791,15.8957 -13.90347,23.08282 -2.10243,2.52491 -7.373,7.80519 -9.95316,9.97267 -2.31405,1.94359 -5.22367,4.1351 -7.45704,5.61703 -0.84503,0.56056 -1.53632,1.069 -1.53632,1.12979 0,0.26059 5.68918,1.01959 8.91838,1.18999 2.4834,0.13093 5.53083,0.0688 8.16897,-0.16641 z m -57.89086,-1.27544 c 0.27251,-0.0733 -0.39269,-0.48375 -3.29755,-2.03516 -13.335025,-7.12101 -24.707269,-14.09037 -32.19282,-19.72878 -2.687114,-2.02379 -3.468302,-2.66853 -5.820149,-4.80392 l -1.549547,-1.40708 -0.849333,0.81713 c -0.467096,0.44897 -2.198309,2.08792 -3.847073,3.64201 -1.648764,1.5534 -3.231718,3.04938 -3.517614,3.32332 l -0.519808,0.49776 0.594708,0.61738 c 1.772036,1.83939 6.444792,5.53754 9.70564,7.68158 10.195381,6.70408 22.24725,10.69018 34.432097,11.38839 1.607073,0.0923 6.525299,0.0975 6.861449,0.007 z m 24.8644,-5.80481 c 5.97597,-2.5623 12.36303,-6.60385 17.83357,-11.28417 2.2601,-1.93427 6.30073,-6.04396 8.23077,-8.37177 4.72411,-5.69853 8.42014,-11.78394 11.37005,-18.72056 0.38204,-0.89863 0.67626,-1.65096 0.65394,-1.67234 -0.0932,-0.0889 -3.3448,-0.99153 -5.36165,-1.48797 -7.61694,-1.8761 -14.98201,-2.75804 -24.08758,-2.88433 -8.72647,-0.12095 -15.08668,0.35879 -23.49882,1.77058 -11.10598,1.86476 -23.580319,5.47269 -34.432286,9.96059 -1.055727,0.4363 -1.919497,0.77102 -1.919497,0.74296 0,-0.0267 4.254504,-3.95137 9.454347,-8.71918 10.728155,-9.83568 9.234888,-8.75998 13.478826,-9.71341 17.83788,-4.00883 37.39894,-3.9026 54.82373,0.29799 1.19964,0.28932 2.20654,0.50044 2.23753,0.46904 0.0816,-0.0813 -3.17848,-1.20197 -5.27443,-1.81201 -9.01622,-2.62576 -19.26895,-3.97742 -30.17109,-3.97942 -6.2858,0 -12.15344,0.40823 -18.0684,1.25944 l -2.37329,0.34141 0.94929,-0.92935 c 0.52214,-0.51115 3.96795,-3.81041 7.65727,-7.331489 l 6.70796,-6.402094 2.1355,0.09288 c 10.88204,0.471677 20.36244,2.05183 30.16495,5.027054 6.67404,2.025789 14.1767,5.22016 19.63559,8.360419 1.49496,0.85988 1.6171,1.03125 1.6171,1.03125 0,0 0.0523,0.0277 -0.002,0.013 -12.97686,-8.613607 -30.53087,-16.616609 -47.77518,-18.546176 -1.56311,-0.174398 -2.85897,-0.334749 -2.87948,-0.355464 -0.0206,-0.02001 2.40894,-2.482793 5.3989,-5.472041 l 5.43624,-5.434635 2.23973,0.694863 c 2.58583,0.801097 7.26885,2.507524 10.40872,3.791685 9.9785,4.080983 19.13647,9.077989 26.51434,14.467172 l 1.92422,1.40579 0.0952,-1.125842 c 0.20651,-2.443371 0.0168,-7.302074 -0.44004,-11.273471 -1.42979,-12.43004 -6.10183,-24.56342 -13.33181,-34.624911 -1.43356,-1.99439 -3.35457,-4.421738 -3.50019,-4.421738 -0.0547,0 -1.94988,1.956308 -4.21085,4.346908 -9.45717,10.000022 -23.81833,25.022428 -36.57902,38.264254 -1.77246,1.838719 -4.43539,4.470533 -5.91764,5.847531 -6.04991,5.62104 -37.100702,34.932285 -37.100702,35.021795 0,0.0787 4.880214,3.35138 8.76851,5.87961 18.047348,11.73518 34.346972,20.81517 44.592112,24.84073 1.19539,0.46968 2.30838,0.91333 2.47327,0.98684 0.52255,0.23117 0.91722,0.16568 2.1226,-0.35147 z m -88.309193,-5.13529 c 1.566381,-1.48461 4.167378,-3.94271 5.780061,-5.4627 1.61275,-1.51935 7.953048,-7.51925 14.089627,-13.33269 16.884378,-15.9959 32.243532,-30.49583 40.164375,-37.916829 3.91409,-3.66741 7.70429,-7.241941 8.42263,-7.944153 l 1.3062,-1.276824 -0.52013,-1.108456 c -1.25325,-2.671868 -3.60127,-5.42727 -6.20126,-7.277345 -1.26234,-0.897977 -4.823508,-2.780788 -5.260354,-2.780788 -0.129388,0 -0.704802,0.424933 -1.27864,0.944078 -0.573809,0.519143 -5.629957,5.086534 -11.235817,10.15035 -11.980528,10.821154 -30.935797,28.032407 -38.371707,34.841387 -2.885422,2.64247 -6.325397,5.77939 -7.644437,6.97203 -4.311962,3.89793 -14.248642,13.21642 -16.142014,15.13735 l -0.703346,0.71421 0.216142,0.92673 c 0.326718,1.4004 1.004079,3.03131 1.762682,4.24467 1.050178,1.6797 4.151742,4.6516 5.948096,5.69921 1.171782,0.6835 3.50138,1.77192 4.496702,2.10127 0.136704,0.0466 0.636069,-0.31935 1.274072,-0.92934 0.577074,-0.55123 2.330735,-2.21754 3.897118,-3.70216 z m 2.660125,-29.71345 2.510127,-2.30038 -0.48667,-0.56728 c -0.267656,-0.31132 -2.267862,-2.51351 -4.444791,-4.89274 -2.177059,-2.37991 -5.210673,-5.75603 -6.741509,-7.50317 -1.530773,-1.74722 -2.808922,-3.15031 -2.840391,-3.1189 -0.174318,0.17436 1.24227,5.88096 2.235589,9.00651 1.171849,3.68676 3.841595,9.9372 5.327666,12.47346 l 0.380437,0.64875 0.774709,-0.72292 c 0.426005,-0.39754 1.904193,-1.75787 3.284833,-3.02333 z m 16.076135,-14.65761 c 27.890564,-25.3605 37.899128,-34.328249 40.620043,-36.396134 5.21789,-3.964723 16.44407,-12.853634 30.65243,-24.270773 8.46218,-6.799642 15.72769,-12.651861 15.94039,-12.838943 0.14364,-0.126276 -1.14639,-1.230708 -3.57449,-3.060071 C 125.11995,16.49455 101.06209,12.610662 79.275783,20.057731 c -8.230725,2.81353 -15.827919,7.105648 -22.644397,12.79217 -1.995728,1.665002 -5.886832,5.493431 -7.815744,7.690268 -8.357405,9.516288 -14.208553,21.355695 -16.757171,33.906661 -0.453931,2.235589 -1.058195,6.247758 -1.058195,7.02614 0,0.362798 0.832364,1.42781 4.599064,5.884293 9.121216,10.791773 14.811282,17.334177 18.518044,21.292217 0.984434,1.05097 1.834773,1.91087 1.889629,1.91019 0.05479,0 1.85348,-1.59484 3.996934,-3.5438 z M 112.76545,83.729951 c 0.24059,-0.265944 0.25051,-0.37283 0.0866,-0.93674 -0.33015,-1.13517 -1.32868,-3.040696 -2.22794,-4.250694 -1.73199,-2.331803 -4.22181,-4.303478 -7.27426,-5.762022 l -1.59528,-0.761678 -0.52784,0.402887 c -0.29027,0.221154 -0.52555,0.444981 -0.52287,0.497095 0,0.05347 0.60107,0.378166 1.32954,0.724928 2.62552,1.250086 5.42636,3.399488 7.25813,5.5696 1.07765,1.277481 2.53044,3.493025 2.82581,4.309478 0.21335,0.589986 0.28175,0.612037 0.64815,0.207146 z M 122.90612,73.12592 c 11.04071,-11.503323 16.82755,-17.564671 24.93311,-26.114832 3.70979,-3.913287 7.355,-7.757752 8.10056,-8.543483 0.7456,-0.785064 2.97143,-3.176997 4.94637,-5.314369 11.74013,-12.707317 16.24381,-17.798529 16.85825,-19.056633 0.44106,-0.90332 0.39136,-1.505985 -0.16728,-2.0278 -0.25571,-0.239191 -0.53532,-0.390859 -0.62137,-0.337407 -0.086,0.05346 -3.94075,3.170314 -8.56592,6.927251 -4.62527,3.756277 -9.32013,7.539271 -10.43305,8.405179 -2.27476,1.769897 -6.28611,5.02373 -8.31885,6.747526 -4.1065,3.481669 -38.28511,30.814523 -44.6234,35.685246 -0.80036,0.615351 -1.45801,1.153872 -1.46142,1.197968 -0.007,0.04009 0.49279,0.326721 1.10283,0.628051 4.15884,2.057865 7.36821,5.216155 9.17299,9.025878 0.37342,0.788401 0.69918,1.433154 0.724,1.433154 0.0247,0 3.78372,-3.895244 8.35318,-8.655729 z M 23.995452,58.923319 C 31.06415,40.996506 43.95634,26.022868 60.555361,16.45914 c 0.850806,-0.489745 2.183142,-1.209997 2.960585,-1.599524 l 1.413646,-0.708224 -0.739161,-0.271266 C 63.783937,13.730465 62.290046,13.166554 60.870724,12.626031 49.041541,8.124786 37.730833,6.7510941 28.650635,8.712746 c -6.940151,1.499304 -12.978981,5.041771 -15.81035,9.275094 -2.709567,4.05092 -3.8650434,8.180679 -3.8710568,13.835801 -0.00664,6.672693 1.8209428,13.781015 5.7550058,22.378613 1.541528,3.368085 4.239805,8.248162 6.157628,11.135855 l 0.576933,0.868584 0.854619,-2.592379 c 0.470103,-1.425804 1.226968,-3.536454 1.682038,-4.690995 z"
     id="path3040"
     style="fill:#9e1745;fill-opacity:1"
     inkscape:connector-curvature="0"
     sodipodi:nodetypes="csccssccccccccccccccscsccccccscccccccccccccssccccscccccscccccsccccccccccccccccccccscccsccccccccccccccccccccccsccscccccccccscccccccccccscccscscccscccccscccccccscccccccscccscccccccccccscsccscccssccscccccccccccccsccccccscccccscccccccsccccccc" />
</svg>
