<?xml version="1.0" encoding="utf-8"?>
<!-- Generator: Adobe Illustrator 25.4.1, SVG Export Plug-In . SVG Version: 6.00 Build 0)  -->
<svg version="1.1" id="圖層_1" xmlns="http://www.w3.org/2000/svg" xmlns:xlink="http://www.w3.org/1999/xlink" x="0px" y="0px"
	 viewBox="0 0 540 280" style="enable-background:new 0 0 540 280;" xml:space="preserve">
<style type="text/css">
	.st0{fill:#333333;}
</style>
<g>
	<g>
		<path class="st0" d="M118.75,32.79c0,0,4.32,3.12,6.91,5.28c-0.14,0.53-0.67,0.77-1.39,0.77H80.93l-0.38-1.34h19.83
			c-0.43-2.3-1.87-4.61-3.36-5.95l0.29-0.24c9.98-1.15,10.75,4.03,8.21,6.19h9.46L118.75,32.79z M118.95,51.65l6.34,4.8
			c-0.29,0.38-0.86,0.82-1.87,1.01V69.8c0,4.13-1.01,6.48-8.21,7.06c-0.14-2.06-0.34-3.5-1.01-4.46c-0.67-0.91-1.49-1.63-3.79-2.06
			v-0.14c-1.06,0.34-2.4,0.67-3.5,0.67h-1.1V68.5h-5.71v1.3c0,0.53-2.83,1.87-5.38,1.87h-0.86V57.7l6.43,2.45h5.04l2.78-2.93
			l5.76,4.22c-0.29,0.38-0.82,0.77-1.73,0.96v6.86c0,0.1-0.34,0.34-0.82,0.53c1.3,0.1,3.46,0.19,4.27,0.19
			c0.67,0,0.86-0.34,0.86-0.86V56.36H89.71V74.6c0,0.67-2.98,2.21-5.81,2.21h-1.01V52.23l7.34,2.78h25.73L118.95,51.65z
			 M108.91,53.33v-2.35H97.25v0.96c0,0.53-3.07,2.02-5.91,2.02h-0.91V39.94l7.11,2.69h10.9l2.98-3.31l6.34,4.75
			c-0.29,0.34-0.86,0.82-1.87,1.01v6.91c-0.05,0.34-3.6,1.34-5.76,1.34H108.91z M108.91,49.63v-5.66H97.25v5.66H108.91z
			 M105.79,67.16v-5.66h-5.71v5.66H105.79z"/>
		<path class="st0" d="M169.59,61.3c0,0,3.26,2.64,5.14,4.46c-0.14,0.53-0.62,0.77-1.3,0.77h-8.35v8.59c0,0.48-2.88,1.73-5.28,1.73
			h-1.2V66.53h-8.16l-0.38-1.34h8.54v-6.62h-3.94c-1.25,1.87-2.69,3.46-4.32,4.75l-0.43-0.24v7.01c0,3.89-0.82,6.1-7.06,6.67
			c-0.14-1.87-0.38-3.26-1.06-4.08c-0.72-0.91-1.68-1.54-3.89-1.92v-0.67c0,0,4.51,0.29,5.47,0.29c0.77,0,0.96-0.29,0.96-0.96V61.3
			h-7.92c-0.72,5.38-2.69,11.04-7.92,15.22l-0.48-0.38c3.22-6.67,3.31-15.12,3.31-22.42V45.6c-0.86,0.67-1.78,1.3-2.74,1.82
			l-0.53-0.38c2.59-3.84,5.14-9.89,6.43-15.94l7.73,2.4c-0.19,0.62-0.77,1.06-1.87,1.01c-0.43,0.82-0.86,1.63-1.34,2.4h1.49
			l2.93-2.98l5.18,4.51c-0.38,0.38-0.91,0.53-1.87,0.58c-1.78,1.44-4.18,3.31-6.53,4.61h3.6l2.59-3.02l5.62,4.32
			c-0.34,0.43-1.06,0.86-2.11,1.1v4.08c3.7-3.6,4.99-8.45,5.28-13.49h-5.42l-0.43-1.34h15.7l3.02-2.83l5.33,4.32
			c-0.34,0.38-0.86,0.67-1.78,0.82c-0.29,6.96-0.86,9.6-2.93,10.94c-1.34,0.86-2.93,1.3-5.33,1.3c0-1.68-0.1-3.17-0.67-3.94
			c-0.58-0.82-1.3-1.34-2.74-1.73v-0.58c0.96,0.1,2.64,0.14,3.41,0.14c0.62,0,0.86-0.05,1.1-0.29c0.53-0.43,0.82-2.45,1.01-6.82
			h-3.26c-1.39,6.53-5.33,11.52-12.29,14.35V62.4c1.06-3.22,1.87-7.73,2.26-11.95l6.43,2.11v-2.74l8.06,0.72
			c-0.1,0.58-0.43,1.06-1.58,1.2v5.47h0.86l2.69-3.55c0,0,3.07,2.45,4.9,4.13c-0.14,0.53-0.62,0.77-1.3,0.77h-7.15v6.62h1.68
			L169.59,61.3z M138.14,38.26c-1.06,1.58-2.21,3.02-3.46,4.32l2.98,1.06h1.1c0.72-1.54,1.44-3.7,1.92-5.38H138.14z M136.8,53.71
			c0,1.92-0.05,4.03-0.24,6.24h1.73v-6.86h-1.49V53.71z M136.8,51.75h1.49v-6.77h-1.49V51.75z M142.8,44.98v6.77h1.54v-6.77H142.8z
			 M144.34,59.96v-6.86h-1.54v6.86H144.34z M158.59,57.22v-3.79c-0.29,0.19-0.72,0.34-1.3,0.29c-0.53,1.2-1.15,2.4-1.82,3.5H158.59z
			"/>
		<path class="st0" d="M216.19,44.64c0,0,3.55,2.93,5.67,4.9c-0.14,0.53-0.67,0.77-1.34,0.77h-3.79v24.91
			c-0.05,0.34-2.16,1.58-5.76,1.58h-1.34v-26.5h-5.09v0.82c0,8.69-0.86,19.2-13.1,25.59l-0.38-0.53c6.1-7.25,6.72-16.47,6.72-25.25
			v-7.1c-0.19,0.34-0.62,0.53-1.2,0.53h-6.48v3.84c12.67,3.7,6.05,13.3,1.25,8.45c0.14-2.45-0.43-5.09-1.25-7.2v25.54
			c0,0.53-2.83,1.87-5.38,1.87h-1.34V58.23c-2.02,2.54-4.37,4.85-7.15,6.91l-0.48-0.53c3.74-5.33,6.05-12.96,7.25-20.26h-6
			l-0.38-1.34h6.77V31.34l8.5,0.82c-0.1,0.72-0.43,1.2-1.78,1.39v9.26l2.69-3.94c0,0,3.17,2.74,4.99,4.61v-8.26l7.83,2.45
			c3.22-2.11,6.77-4.7,8.69-6.53l7.49,6.58c-0.72,0.58-1.92,0.62-3.65,0.1c-3.36,0.67-8.74,1.34-13.59,1.63v9.5h8.5L216.19,44.64z"
			/>
		<path class="st0" d="M269.62,38.64c-0.38,0.43-0.86,0.53-1.87,0.62c-1.39,1.06-3.6,2.35-5.52,3.22c-0.38,0.34-0.96,0.62-1.73,0.77
			l-0.05,2.21h0.67l2.93-3.36c0,0,3.26,2.26,5.33,3.94c-0.14,0.53-0.62,0.77-1.34,0.77h-7.68c-0.05,1.54-0.14,3.17-0.29,4.46
			c-0.29,0.19-0.62,0.34-1.01,0.48l4.99,3.74c-0.24,0.29-0.67,0.62-1.49,0.77v12.1c-0.05,0.38-3.41,1.54-5.62,1.54h-1.2v-1.01
			h-13.83l5.38,3.74c-0.43,0.53-1.39,0.77-2.93,0.38c-4.42,2.21-11.71,3.65-18.72,3.89l-0.14-0.62c5.47-1.54,10.99-4.61,14.16-7.39
			h-1.97c-0.86,0.67-3.22,1.63-5.42,1.63h-0.96V51.46l7.1,2.69h16.9l1.87-2.02c-0.96,0.1-2.02,0.05-3.31-0.1l0.1-0.62h-15.55
			l-1.49,1.92l-5.62-2.64c0.29-0.34,0.72-0.72,1.15-1.06c0.14-0.82,0.34-1.78,0.48-2.83h-7.68l-0.38-1.34h8.26
			c0.38-2.54,0.67-5.23,0.77-6.96l7.1,2.4h13.15l2.26-2.88l4.56,3.26c0.14-1.1,0.29-2.3,0.38-3.31H231.6
			c0.48,3.26-0.58,5.57-2.26,6.48c-1.63,0.86-3.98,0.24-4.61-1.78c-0.53-1.92,0.67-3.36,2.3-4.08c1.39-0.72,2.93-2.59,2.74-4.56
			h0.62c0.43,0.91,0.72,1.78,0.91,2.59h13.54c-0.24-0.14-0.48-0.29-0.72-0.48c0.29-1.78-0.38-3.74-1.54-4.7l0.29-0.24
			c9.07-0.77,9.07,3.74,6.38,5.42h11.67l3.17-3.22L269.62,38.64z M238.03,55.49v3.02h17.71v-3.02H238.03z M238.03,59.86v3.12h17.71
			v-3.12H238.03z M255.75,67.54v-3.22h-17.71v3.22H255.75z M243.22,50.07c0.14-0.91,0.24-2.06,0.38-3.26h-4.66
			c-0.19,1.15-0.38,2.3-0.53,3.26H243.22z M239.66,42.24c-0.14,0.96-0.34,2.06-0.48,3.22h4.51c0.1-1.1,0.19-2.26,0.24-3.22H239.66z
			 M248.93,69.8c27.99-0.62,16.85,10.37,11.23,6.14c-1.97-1.78-5.71-4.18-11.38-5.57L248.93,69.8z M254.06,50.07
			c0.1-1.06,0.19-2.16,0.29-3.26h-4.9c-0.1,1.2-0.24,2.35-0.34,3.26H254.06z M254.45,45.46c0.05-1.15,0.1-2.26,0.14-3.22h-4.75
			c-0.05,1.01-0.14,2.11-0.24,3.22H254.45z"/>
		<path class="st0" d="M288.67,58.95c-2.26,2.3-5.95,5.62-11.57,9.94c-0.19,0.67-0.72,1.2-1.3,1.39l-3.89-7.49
			c1.06-0.19,2.69-0.58,4.71-1.1V45.46h-4.18l-0.38-1.34h4.56V32.21l8.35,0.72c-0.1,0.67-0.43,1.15-1.78,1.34v9.41l2.21-3.98
			c0,0,2.83,3.07,4.22,4.99c-0.14,0.53-0.62,0.77-1.25,0.77h-5.18V60c1.73-0.43,3.55-0.91,5.38-1.44L288.67,58.95z M316.13,69.6
			c1.44,0.67,1.68,1.34,1.68,2.45c0,2.21-1.87,3.31-7.73,3.31h-3.02c-4.46,0-5.09-1.15-5.09-4.9v-8.5h-0.77
			c-0.91,6.24-3.65,11.52-19.15,14.83l-0.38-0.62c9.75-3.74,11.67-7.87,12.19-12.34c-1.06,0.38-2.4,0.72-3.74,0.72h-0.91V48.1
			l6.91,2.64h10.9l2.74-2.93l5.71,4.22c-0.29,0.34-0.82,0.77-1.73,0.91v9.55c-0.05,0.34-3.17,1.39-5.14,1.39h-0.38v5.33
			c0,0.53,0.14,0.72,0.86,0.72h1.82h1.49c0.48-0.05,0.67-0.14,0.96-0.58c0.48-0.67,1.2-2.59,2.16-5.18h0.48L316.13,69.6z
			 M287.42,37.2h11.95c-0.29-0.14-0.62-0.34-0.91-0.58c0-2.02-0.86-4.18-1.82-5.38l0.29-0.24c9.41-0.19,9.17,4.66,6.29,6.19h5.18
			l3.07-4.22c0,0,3.5,2.88,5.52,4.8c-0.14,0.53-0.67,0.77-1.34,0.77h-11.09l7.49,2.5c-0.19,0.58-0.77,0.91-1.82,0.82
			c-1.58,1.2-3.74,2.93-5.86,4.42h4.9l3.02-3.98c0,0,3.46,2.69,5.52,4.56c-0.14,0.53-0.62,0.77-1.34,0.77h-29.62l-0.38-1.34h16.37
			c0.43-2.3,0.96-5.47,1.3-7.73h-16.32L287.42,37.2z M291.74,38.88c13.15,0.72,6.77,10.47,1.54,6.19c0.05-2.16-0.82-4.51-1.87-5.95
			L291.74,38.88z M295.78,52.08v3.65h11.71v-3.65H295.78z M295.78,60.63h11.71v-3.55h-11.71V60.63z"/>
		<path class="st0" d="M360.15,31.2c0,0,3.74,2.93,5.9,4.9c-0.1,0.53-0.62,0.77-1.34,0.77h-7.1c-1.58,1.87-3.46,3.84-5.18,5.23h4.85
			l2.69-2.88l5.38,4.13c-0.24,0.34-0.77,0.67-1.54,0.82v21.17c-0.05,0.38-2.98,1.58-5.04,1.58h-1.06v-1.78h-6.24v0.67
			c0,0.24-0.34,0.58-0.96,0.91l5.62,2.88c-0.19,0.43-0.67,0.53-1.54,0.38c-2.54,2.83-8.02,5.81-12.91,7.06l-0.34-0.58
			c2.83-2.21,5.66-5.86,7.2-8.98c-0.62,0.19-1.3,0.29-2.02,0.29h-0.91v-4.22c-0.43,1.82-2.45,2.64-4.03,0.91
			c0.05-0.53,0.1-1.1,0.05-1.63c-1.68,0.62-3.74,1.34-5.81,1.97c-0.29,0.43-0.58,0.72-0.96,0.86l-2.16-4.9c0,0,0.86-0.19,1.25-0.38
			c1.1-0.82,2.4-2.3,3.5-3.98l-1.78,0.77c-0.29,0.53-0.67,0.86-1.06,1.06l-0.96-2.02c-0.38,0.1-0.86,0.1-1.44-0.19
			c-0.72,0.67-1.68,1.39-2.74,2.16c6.96,4.27,2.78,9.65,0.05,6.67c0.05-0.62,0-1.3-0.05-1.97c-1.68,0.62-3.74,1.39-5.86,2.06
			c-0.29,0.38-0.58,0.67-0.86,0.82l-2.26-4.7c0,0,0.86-0.19,1.25-0.43c1.44-0.86,3.07-2.69,4.51-4.56c-0.86,0.38-1.78,0.82-2.74,1.2
			c-0.29,0.58-0.67,0.96-1.06,1.15l-2.3-4.8c0,0,0.72-0.19,1.1-0.38c1.2-0.82,2.59-3.07,3.46-4.94c-0.24,0.05-0.58,0.05-0.86,0.05
			h-1.01V31.83l6.05,2.3h8.4l2.69-3.02l5.14,3.84c-0.19,0.24-0.38,0.43-0.72,0.58h12.48L360.15,31.2z M325.15,65.48
			c2.69,5.28,1.92,9.31-0.1,10.7c-1.44,1.01-3.7,0.58-4.42-1.25c-0.53-1.78,0.48-3.17,2.02-3.98c1.15-0.91,2.3-3.26,1.82-5.42
			L325.15,65.48z M332.98,54.82l-0.67-1.34c0,0,0.72-0.19,1.06-0.38c1.39-1.1,2.93-4.9,3.31-6.67l0.77,0.34v-0.72h-9.02v1.01
			c0,0.14-0.19,0.29-0.53,0.48l3.55,1.63c-0.19,0.43-0.72,0.82-1.68,0.72c-1.39,1.25-3.36,2.59-5.23,3.7c1.06,0,2.26,0,3.46-0.05
			c0.58-0.91,1.06-1.78,1.39-2.5L332.98,54.82z M328.61,58.8c-1.25,0.86-2.64,1.73-4.03,2.45c1.39,0,2.98,0,4.66,0
			C329.09,60.39,328.85,59.52,328.61,58.8z M328.61,65.76c8.54,6.05,2.74,13.1-0.58,8.83c0.53-2.88,0.38-6.19,0-8.69L328.61,65.76z
			 M328.42,35.47v4.03h9.02v-4.03H328.42z M328.42,44.69h9.02v-3.84h-9.02V44.69z M333.17,65.72c10.32,4.51,4.85,12.72,1.01,8.64
			c0.38-2.83-0.38-6.14-1.54-8.4L333.17,65.72z M350.83,41.76c0.05-1.39,0.05-3.26,0.05-4.9h-6.29l-0.38-1.25
			c-0.24,0.1-0.53,0.19-0.91,0.24v10.9c0,0.19-1.25,0.86-3.41,1.1l2.78,1.2c-0.19,0.43-0.72,0.82-1.68,0.72
			c-1.34,1.25-3.17,2.69-4.85,3.79h3.07c0.62-1.1,1.1-2.16,1.44-2.98l4.94,3.22V39.65L350.83,41.76z M341.47,61.01
			c-0.19-1.1-0.43-2.16-0.77-3.02c-1.39,1.1-2.88,2.16-4.32,3.02C337.78,61.06,339.6,61.06,341.47,61.01z M338.88,64.95
			c10.27,3.36,5.23,11.28,1.39,7.58c0.24-2.5-0.67-5.47-1.87-7.34L338.88,64.95z M345.6,54.67c-0.29,0.1-0.67,0.1-1.15,0
			c-0.86,0.86-1.92,1.82-3.12,2.78c2.74,1.44,3.94,3.12,4.27,4.56V54.67z M351.46,43.44v5.86h6.24v-5.86H351.46z M351.46,56.5h6.24
			v-5.86h-6.24V56.5z M357.7,63.8v-5.95h-6.24v5.95H357.7z M355.15,66.58c15.27,1.78,11.14,13.06,5.23,9.5
			c-1.01-3.22-3.5-6.86-5.62-9.22L355.15,66.58z"/>
		<path class="st0" d="M406.51,43.2c0,0,4.42,3.31,7.06,5.52c-0.14,0.53-0.72,0.77-1.44,0.77h-17.95v25.73
			c-0.05,0.34-2.16,1.63-5.9,1.63h-1.34V49.49h-18.34l-0.38-1.34h34.42L406.51,43.2z M368.25,71.72c4.71-5.04,8.21-12.91,9.65-18.43
			l8.5,4.03c-0.19,0.48-0.67,0.82-1.82,0.77c-3.31,5.04-8.74,10.75-15.94,14.06L368.25,71.72z M374.25,38.35l-0.38-1.34h24.58
			l3.74-4.7c0,0,4.27,3.12,6.82,5.28c-0.14,0.53-0.67,0.77-1.39,0.77H374.25z M396.82,54.58c20.98,5.04,15.84,20.4,8.4,15.27
			c-1.39-5.28-5.09-10.99-8.79-14.98L396.82,54.58z"/>
		<path class="st0" d="M452.11,34.51c1.87,6.1,6.19,10.42,10.32,13.1l-0.1,0.72c-2.64,1.58-4.32,3.65-4.66,6.19
			c-3.36-4.51-5.23-11.33-6.29-18.15c-2.64,6.72-7.58,14.16-14.02,18.87l-0.24-0.19c-0.43,13.06-1.25,17.28-3.7,19.39
			c-1.63,1.39-3.6,2.02-6.24,2.02c0-1.97-0.14-3.46-0.72-4.27c-0.62-0.91-1.58-1.58-3.22-2.02V69.6c1.2,0.1,3.17,0.19,4.08,0.19
			c0.67,0,1.06-0.14,1.44-0.48c1.3-1.15,1.82-6.43,2.16-18.53h-3.07c-0.86,10.03-3.5,19.87-11.91,26.21l-0.38-0.38
			c5.47-9.79,5.71-22.66,5.23-33.89h-4.18l-0.38-1.34h16.03l3.22-4.32c0,0,3.6,2.93,5.71,4.9c-0.14,0.53-0.67,0.77-1.34,0.77h-11.62
			c-0.05,2.21-0.14,4.46-0.29,6.72h2.5l3.26-3.22l5.47,4.66c3.07-6.38,5.23-14.45,5.81-19.87l9.07,2.26
			c-0.19,0.67-0.67,1.06-1.97,1.2V34.51z M422.54,31.34c14.74,1.78,8.64,13.06,2.83,8.5c-0.24-2.98-1.63-6.14-3.17-8.26
			L422.54,31.34z M437.14,54.72c0.72-1.15,1.39-2.4,2.02-3.7c-0.38,0.38-0.96,0.67-1.92,0.86L437.14,54.72z M439.73,61.92
			c23.57,1.73,20.45,17.38,12.43,13.83c-2.78-4.9-8.06-10.22-12.77-13.49L439.73,61.92z M443.57,50.02
			c14.83-1.1,11.52,10.46,5.18,7.63c-1.1-2.69-3.55-5.57-5.52-7.34L443.57,50.02z"/>
		<path class="st0" d="M101.67,124.26c-0.29,0.38-0.91,0.82-1.92,1.01v13.3c-0.05,0.38-3.31,1.49-5.47,1.49h-1.1v-3.22h-5.42v2.3
			c0,0.58-2.83,2.02-5.57,2.02h-0.91v-10.42c-0.19,0.43-0.62,0.62-1.25,0.62h-8.26c-0.19,0.82-0.43,1.63-0.77,2.4
			c12.15,0.19,9.22,10.13,3.7,7.54c-0.86-2.06-2.64-4.32-4.42-6c-2.02,3.6-5.9,6.43-13.39,8.59l-0.38-0.62
			c6.34-3.36,8.45-7.2,9.17-11.9h-8.69l-0.38-1.34h9.22c0.19-1.68,0.19-3.5,0.24-5.42h-0.91c-1.73,2.21-3.79,3.89-6.05,5.09
			l-0.58-0.43c1.58-3.02,2.83-7.54,3.31-12.05l7.82,2.21c-0.19,0.62-0.77,1.06-1.87,1.06c-0.48,1.01-1.06,1.92-1.63,2.78h6.14
			l3.02-3.98c0,0,3.41,2.69,5.47,4.56c-0.14,0.53-0.67,0.77-1.34,0.77h-6.87c-0.1,1.92-0.24,3.74-0.53,5.42h0.82l3.02-3.98
			c0,0,3.36,2.64,5.38,4.51v-10.27l6.67,2.59h4.75l2.93-3.22L101.67,124.26z M89.62,140.15l6.29,4.75
			c-0.29,0.38-0.86,0.86-1.87,1.06v14.98c-0.05,0.38-3.5,1.58-5.76,1.58h-1.2v-3.07H71.86v1.15c0,0.67-2.98,2.16-5.81,2.16h-1.01
			v-21.99l7.2,2.74h14.35L89.62,140.15z M71.86,144.85v5.71h15.22v-5.71H71.86z M87.07,158.1v-6.19H71.86v6.19H87.07z M93.17,135.49
			v-11.28h-5.42v11.28H93.17z"/>
		<path class="st0" d="M145.73,138.61c0,0,2.93,2.16,4.71,3.74c-0.1,0.53-0.62,0.77-1.25,0.77h-6.53v5.18
			c-0.05,0.38-3.31,1.73-5.52,1.73h-1.2v-1.82h-25.15l-0.43-1.34h25.59v-3.74h-29.33l-0.38-1.34h29.71v-3.55h-24.77l-0.43-1.34
			h24.72l1.39-1.49c-0.96,0.24-2.06,0.43-3.07,0.43h-1.15v-3.22h-4.9l-0.1-0.38c-0.24,0.29-0.62,0.38-1.1,0.38h-7.1v2.21
			c0,0.43-2.78,1.44-5.23,1.44h-1.1v-3.65h-6.91l-0.38-1.34h7.3v-3.41h-6l-0.38-1.34h6.38v-3.02h-6.82l-0.38-1.34h7.2v-4.94
			l7.87,0.67c-0.05,0.58-0.38,1.06-1.54,1.2v3.07h0.05l2.54-3.17c0,0,2.93,2.16,4.75,3.74c-0.14,0.53-0.62,0.77-1.3,0.77h-6.05v3.02
			h0.19l2.4-2.98c0,0,2.74,2.06,4.42,3.55c-0.1,0.53-0.58,0.77-1.25,0.77h-5.76v3.41h0.86l2.64-3.31c0,0,2.59,1.97,4.46,3.55
			l-0.05-0.24h5.28v-3.41h-3.55l-0.38-1.34h3.94v-3.02h-4.42l-0.38-1.34h4.8v-4.94l8.06,0.67c-0.1,0.62-0.43,1.06-1.58,1.25v3.02
			h0.96l2.64-3.31c0,0,3.07,2.26,4.9,3.89c-0.1,0.53-0.62,0.77-1.25,0.77h-3.79c0.43,0.34,2.88,2.21,4.46,3.6
			c-0.1,0.53-0.62,0.77-1.25,0.77h-6.67v3.41h1.82l2.69-3.31c0,0,3.02,2.26,4.9,3.89c-0.14,0.53-0.62,0.77-1.3,0.77h-8.11v1.68
			l5.23,3.94c-0.24,0.34-0.77,0.72-1.68,0.91v2.64h0.48L145.73,138.61z M111.74,150.04c2.35,5.23,1.01,9.02-1.39,10.13
			c-1.68,0.72-3.94,0.05-4.46-1.92c-0.43-1.92,0.77-3.26,2.45-3.89c1.39-0.67,2.98-2.4,2.78-4.27L111.74,150.04z M138.34,156.37
			c1.97,0.67,2.45,1.39,2.45,2.5c0,2.78-2.64,3.17-12.48,3.17h-6.1c-6.1,0-7.54-0.96-7.54-4.99v-6.96l8.5,0.58
			c-0.1,0.67-0.58,1.06-1.54,1.2v4.37c0,0.58,0.14,0.72,1.73,0.72h5.81h4.22c0.82-0.05,1.15-0.24,1.58-0.67
			c0.67-0.77,1.54-2.26,2.74-4.9h0.48L138.34,156.37z M124.22,148.69c12.34-0.1,7.73,9.5,2.64,6.14c-0.34-2.11-1.68-4.51-3.02-5.86
			L124.22,148.69z M138.82,150.52c14.5,0.77,9.7,12.15,3.94,8.26c-0.38-2.93-2.26-6.1-4.27-7.97L138.82,150.52z M139.11,126.51h0.91
			l2.45-3.02h-3.36V126.51z"/>
		<path class="st0" d="M190.71,119.17c0,0,3.74,2.83,6,4.8c-0.1,0.53-0.62,0.77-1.34,0.77H173.9c-3.41,2.16-7.44,4.22-10.99,5.62
			c5.28,0.1,13.49,0.05,22.27-0.05c-1.3-1.78-2.74-3.46-4.03-4.8l0.38-0.29c17.28,1.97,13.44,14.45,6.91,10.85
			c-0.53-1.34-1.3-2.78-2.16-4.18c-5.86,1.25-13.87,2.69-23.43,4.22l6.34,2.11h13.39l3.02-3.41l6.29,4.85
			c-0.29,0.38-0.86,0.82-1.87,1.01v15.22c0,4.03-1.06,6.29-8.45,6.86c-0.14-1.97-0.38-3.36-1.15-4.27
			c-0.77-0.82-1.63-1.54-4.18-1.97v-0.58c0,0,4.7,0.29,5.9,0.29c0.72,0,0.91-0.34,0.91-0.91v-4.85c-3.07,1.58-6.96,3.36-12.1,5.33
			c-0.29,0.62-0.82,1.06-1.39,1.15l-2.21-5.47c-1.3,4.22-4.42,8.54-11.91,11.33l-0.29-0.38c5.57-5.09,6.19-11.71,6.19-17.38v-8.16
			c-0.29,0.24-0.62,0.38-0.96,0.48l-2.3-7.73c0,0,1.39-0.24,2.06-0.58c1.73-0.72,3.74-2.4,5.62-4.32h-11.14l-0.38-1.34h12.82
			c1.92-2.21,3.6-4.51,4.37-6.24l9.46,2.78c-0.19,0.58-0.77,1.01-1.82,1.01c-0.91,0.77-1.97,1.63-3.17,2.45h11.47L190.71,119.17z
			 M168.19,139.57v2.54c16.51-2.69,15.51,7.15,10.23,6.29c-1.82-1.3-5.76-3.22-10.23-4.66v1.3c0,1.54-0.1,3.26-0.48,5.04
			c3.55-0.14,9.46-0.62,15.36-1.39v-9.12H168.19z"/>
		<path class="st0" d="M239.14,141.49c0,0,4.03,3.02,6.48,5.09c-0.14,0.53-0.67,0.77-1.39,0.77H226.9v13.87
			c0,0.48-3.22,1.63-6.14,1.63h-1.25v-9.84c-0.24,0-0.53,0-0.82-0.05c-4.8,4.8-12.58,7.01-18.67,7.39l-0.19-0.48
			c4.9-2.35,10.03-6.91,13.2-12.38l6.48,4.03v-4.18h-18.87l-0.38-1.34h19.25v-4.22l9.17,0.77c-0.1,0.62-0.43,1.15-1.78,1.34V146
			h8.69L239.14,141.49z M246.24,127.76c-0.19,0.43-0.82,0.72-1.73,0.53c-1.1,1.44-2.54,3.07-4.18,4.66
			c9.12,5.42,3.65,12.62,0.19,8.59c0.1-0.91,0.14-1.82,0.1-2.74c-1.78,1.01-4.22,2.4-6.77,3.74c-0.34,0.53-0.72,0.91-1.15,1.1
			l-2.35-5.33v1.63c-0.05,0.38-2.78,1.49-4.66,1.49h-0.96v-1.78h-3.84v0.96c0,0.53-2.3,1.73-4.56,1.73h-0.77v-14.06
			c-0.24,0-0.48,0-0.72-0.05c-1.15,1.44-2.69,3.12-4.46,4.75l0.19-0.05c8.88,5.28,3.5,12.53,0.14,8.54
			c0.14-0.82,0.19-1.68,0.19-2.54c-1.87,1.06-4.42,2.35-7.06,3.6c-0.34,0.53-0.72,0.86-1.15,1.06l-2.45-5.62
			c0,0,1.01-0.24,1.49-0.53c1.63-1.3,3.55-3.94,5.23-6.72c-0.96,0.58-1.97,1.1-2.98,1.68c-0.29,0.34-0.58,0.58-0.91,0.72l-2.45-5.52
			c0,0,0.86-0.24,1.25-0.53c1.78-1.63,3.98-7.06,4.51-9.84l7.06,3.02c-0.19,0.43-0.72,0.77-1.58,0.72c-1.82,2.16-4.61,4.75-7.2,6.58
			c1.25-0.05,2.69-0.14,4.18-0.24c0.62-1.3,1.15-2.5,1.49-3.5l5.23,3.22v-6l4.8,1.92c0.05-1.68,0.1-4.03,0.05-5.71l7.15,0.86
			c-0.14,0.82-0.72,1.25-1.78,1.34c-0.91,1.1-2.54,2.64-3.74,3.79h2.3l2.45-2.59l4.99,3.79c-0.24,0.29-0.72,0.58-1.44,0.77v2.4
			c0.19-0.05,0.82-0.29,1.2-0.48c1.73-1.68,3.98-7.1,4.51-9.89l7.15,3.07c-0.19,0.43-0.67,0.77-1.58,0.72
			c-1.82,2.16-4.66,4.8-7.3,6.58c1.25-0.05,2.69-0.14,4.22-0.24c0.58-1.25,1.06-2.45,1.39-3.46L246.24,127.76z M210.05,133.33
			c-1.73,1.58-3.6,3.17-5.38,4.46c1.73-0.1,3.89-0.24,6.19-0.38C210.72,135.92,210.43,134.53,210.05,133.33z M220.9,124.59v6.05
			h3.84v-6.05H220.9z M224.74,138.32v-6.34h-3.84v6.34H224.74z M227.95,151c19.92-3.98,19.49,11.47,11.57,8.98
			c-2.59-2.88-7.2-6.53-11.71-8.54L227.95,151z M230.35,138.03c0.24-0.05,1.01-0.29,1.39-0.53c1.58-1.3,3.46-3.98,5.04-6.77
			c-0.96,0.58-1.97,1.15-3.02,1.73c-0.29,0.38-0.62,0.67-1.01,0.82l-2.4-5.57V138.03z M239.86,133.43
			c-1.63,1.54-3.41,3.07-5.14,4.32c1.68-0.05,3.7-0.19,5.81-0.34C240.39,135.97,240.15,134.58,239.86,133.43z"/>
		<path class="st0" d="M261.5,152.63c2.4-0.48,4.85-1.01,7.25-1.54l0.1,0.53c-3.65,2.35-8.93,5.47-16.75,9.12
			c-0.24,0.62-0.77,1.15-1.34,1.3l-2.83-7.06c0.53-0.05,1.15-0.14,1.87-0.24v-15.55l5.71,0.53c-0.05,0.38-0.24,0.67-0.96,0.82v13.39
			l1.39-0.24v-19.97h-0.29v0.67c0,0.38-1.68,1.58-4.51,1.58h-1.01v-17.71l6.19,2.64h4.22l2.5-2.64l5.18,3.89
			c-0.24,0.29-0.82,0.67-1.63,0.82v10.94c-0.05,0.34-2.83,1.34-4.66,1.34h-0.43v7.49l2.35-3.98c0,0,2.64,2.78,4.03,4.56
			c-0.14,0.53-0.62,0.77-1.25,0.77h-5.14V152.63z M255.65,132.27h5.33v-10.03h-5.33V132.27z M282.48,126.51
			c2.69,3.26,7.58,5.47,12.29,6.34l-0.05,0.53c-2.26,0.62-3.84,2.64-4.46,5.81c-4.61-2.64-7.25-6.72-8.88-12.67h-2.98
			c-1.92,3.6-4.18,6.53-6.82,8.93h6.34l2.74-3.6c0,0,3.02,2.45,4.85,4.18c-0.1,0.53-0.62,0.77-1.3,0.77h-12.72l-0.29-1.01
			c-1.63,1.44-3.41,2.69-5.33,3.79l-0.53-0.38c2.5-3.31,4.8-7.68,6.48-12.67h-4.13l-0.38-1.34h4.95c0.77-2.54,1.34-5.18,1.73-7.92
			l8.83,2.5c-0.19,0.62-0.82,1.06-1.92,1.01c-0.58,1.58-1.2,3.02-1.82,4.42h5.18l3.46-4.51c0,0,3.89,3.02,6.24,5.09
			c-0.14,0.53-0.67,0.77-1.39,0.77H282.48z M285.99,145.14l5.33,4.37c-0.34,0.38-0.91,0.67-1.87,0.82
			c-0.62,6.14-1.68,9.6-4.03,11.04c-1.49,0.91-3.36,1.39-6.19,1.39c0-1.63-0.19-3.07-1.01-3.89c-0.86-0.91-2.54-1.58-4.61-2.02
			v-0.58c2.06,0.19,5.38,0.34,6.34,0.34c0.72,0,1.1-0.05,1.44-0.29c0.82-0.62,1.49-3.12,1.87-7.01h-7.63l-2.3,2.64l-6-3.5
			c0.48-0.43,1.2-0.91,1.97-1.25c0.67-1.39,1.39-3.22,1.82-4.42h-2.98l-0.38-1.34h14.5l2.98-3.65c0,0,3.36,2.45,5.47,4.22
			c-0.14,0.53-0.67,0.77-1.34,0.77h-11.14c-0.62,1.44-1.54,3.55-2.3,5.18h7.01L285.99,145.14z"/>
		<path class="st0" d="M299.95,133.43c-1.1,0.91-2.26,1.73-3.41,2.45l-0.38-0.29c3.41-4.99,6.1-13.39,6.86-18.48l8.59,2.64
			c-0.19,0.67-0.67,1.06-2.02,1.15c-0.14,0.29-0.29,0.62-0.43,0.91c12.62,2.69,8.93,12.34,3.6,9.17c-0.82-2.5-2.69-5.28-4.46-7.54
			c-1.87,3.26-4.51,6.62-7.68,9.41h6.86l2.54-3.5c0,0,2.88,2.4,4.61,4.08c-0.14,0.53-0.62,0.77-1.3,0.77h-13.2L299.95,133.43z
			 M317.52,143.03c-0.38,0.43-0.91,0.58-1.92,0.67c-1.49,2.69-3.98,5.9-6.77,8.3c7.01,4.9,3.02,12.15-2.02,8.74
			c-1.01-4.08-3.84-8.59-6.58-11.62l0.38-0.29c2.83,0.58,5.09,1.39,6.86,2.35c0.77-2.93,1.39-6.19,1.68-8.83h-10.66l-0.43-1.34
			h10.61l3.22-3.26L317.52,143.03z M333.41,152.63c12.1,2.35,8.4,12.29,2.54,9.17c-1.25-3.31-4.08-6.96-6.48-9.31l0.38-0.29
			c1.01,0.05,1.92,0.14,2.78,0.29v-1.68h-7.83v0.58c0,0.24-0.34,0.58-0.86,0.86l5.71,3.12c-0.24,0.38-0.72,0.48-1.54,0.34
			c-2.93,2.83-9.02,5.76-14.35,6.91l-0.34-0.58c3.22-2.11,6.48-5.76,8.4-8.88c-0.72,0.19-1.54,0.34-2.35,0.34h-0.96v-28.27
			l5.86,2.35c0.05-1.39,0.05-3.31,0.05-4.94h-7.68l-0.38-1.34h15.84l3.31-4.37c0,0,3.79,2.93,6.1,4.94
			c-0.14,0.53-0.67,0.77-1.39,0.77h-8.93c-1.73,1.87-3.84,3.89-5.66,5.18h6.58l2.83-3.02l5.62,4.32c-0.24,0.34-0.77,0.67-1.58,0.86
			V151c-0.05,0.38-3.17,1.63-5.33,1.63H333.41z M324.82,129.15v5.81h7.83v-5.81H324.82z M332.64,136.31h-7.83v5.9h7.83V136.31z
			 M332.64,149.46v-5.9h-7.83v5.9H332.64z"/>
		<path class="st0" d="M390.34,146.63l-1.2,9.5c1.25,2.5,1.63,5.14,0.58,5.95c-2.45,1.87-5.76-0.14-7.68-2.54
			c-1.49-1.68-2.78-3.65-3.79-5.81c-4.18,4.13-9.41,6.82-16.13,8.88l-0.29-0.72c6.14-3.17,10.94-7.01,14.59-12.67
			c-1.44-4.42-2.3-9.41-2.78-14.59c-0.14,0.05-0.34,0.14-0.53,0.19v9.7c-0.05,0.38-2.64,1.34-4.27,1.34h-0.91v-2.5h-2.83v2.78
			c0,0.34-1.54,1.44-4.08,1.44h-0.86v-0.86c-2.45,2.4-6.19,5.76-11.67,9.98c-0.19,0.67-0.67,1.25-1.25,1.44l-3.89-7.39
			c1.2-0.29,3.12-0.82,5.42-1.49v-16.61h-4.32l-0.38-1.34h4.7v-12.96l8.5,0.72c-0.1,0.67-0.43,1.2-1.78,1.39v9.94l2.02-3.41
			c0,0,2.93,2.98,4.46,4.9v0.05l3.17,1.2h2.45l2.21-2.21l3.79,2.83c-0.19-1.92-0.29-3.84-0.38-5.76h-13.44l-0.38-1.34h13.78
			c-0.1-2.88-0.14-5.76-0.14-8.64l7.82,0.82c-0.05,0.62-0.48,1.15-1.58,1.39c-0.05,2.11-0.1,4.27-0.05,6.43h2.98l1.3-1.82
			c-0.19-0.1-0.34-0.19-0.53-0.34c0.05-1.92-0.91-4.08-2.11-5.23l0.38-0.29c7.97,0.05,8.16,4.22,5.95,5.81
			c0.91,0.77,1.92,1.68,2.69,2.45c-0.14,0.53-0.62,0.77-1.3,0.77h-9.36c0.1,4.51,0.38,9.07,1.2,13.1c1.01-2.83,1.92-6,2.64-9.6
			l7.49,2.35c-0.24,0.62-0.67,0.91-2.02,0.91c-1.63,5.47-3.6,9.94-5.95,13.58c0.82,1.78,1.87,3.36,3.12,4.66
			c0.53,0.58,0.96,0.62,1.44-0.14c0.77-1.3,2.02-4.27,2.74-6.29L390.34,146.63z M355.49,147.3c1.54-0.48,3.07-0.96,4.66-1.44v-13.2
			h-4.66V147.3z M375.65,148.21c-3.07,2.11-7.83,5.04-14.88,8.88c-0.19,0.62-0.67,1.1-1.2,1.25l-3.46-6.48
			c3.31-0.58,11.38-2.3,19.44-4.18L375.65,148.21z M367.92,142.02v-7.54h-2.83v7.54H367.92z"/>
		<path class="st0" d="M429.03,155.6c1.87,0.72,2.35,1.44,2.35,2.59c0,2.74-2.64,3.26-11.62,3.26h-5.42c-5.86,0-7.15-1.01-7.15-5.09
			v-8.06c-0.77,0.19-1.63,0.38-2.5,0.38h-1.06v-12.53c-0.58,0.38-1.1,0.72-1.68,1.01c-0.05,8.35-0.77,18.91-9.7,25.92l-0.48-0.29
			c3.79-7.82,3.89-17.81,3.89-26.64v-15.65l7.25,2.5h12c-0.19-0.1-0.38-0.19-0.58-0.29c-0.34-2.02-1.63-4.13-2.78-5.28l0.29-0.24
			c9.55-1.1,9.41,4.32,6.38,5.81h10.18l3.22-4.42c0,0,3.6,2.98,5.76,4.99c-0.14,0.53-0.67,0.77-1.39,0.77H415.3l5.91,1.63
			c-0.19,0.62-0.77,1.06-1.87,1.06c-0.53,0.91-1.15,1.73-1.73,2.54h5.52c-0.14-0.1-0.34-0.19-0.48-0.29
			c-0.14-1.68-1.06-3.55-1.97-4.56l0.38-0.24c7.44-0.14,7.34,3.79,5.14,5.09h2.98l2.45-3.02c0,0,2.74,2.11,4.46,3.6
			c-0.14,0.53-0.62,0.77-1.25,0.77h-7.54v3.46h1.82l2.21-2.74c0,0,2.45,1.92,3.98,3.31c-0.14,0.53-0.58,0.77-1.25,0.77h-6.77v3.65
			h2.06l2.16-2.78c0,0,2.4,1.97,3.89,3.36c-0.1,0.53-0.58,0.77-1.2,0.77h-6.91v3.84h2.98l2.35-2.93c0,0,2.69,2.02,4.32,3.5
			c-0.1,0.53-0.58,0.77-1.25,0.77h-18.77v0.14c0,0.48-1.78,2.06-4.71,2.06h-1.01v-12.58c-0.43,0.29-0.82,0.53-1.25,0.77l-0.58-0.38
			c1.25-2.21,2.54-5.33,3.5-8.69c-0.19,0.05-0.38,0.05-0.62,0.05c-0.96,1.49-2.02,2.83-3.12,4.08l1.63,0.62
			c-0.14,0.43-0.62,0.77-1.49,0.91v14.31c-0.05,0.19-0.67,0.58-1.54,0.91l7.87,0.53c-0.05,0.67-0.53,1.1-1.49,1.25v5.52
			c0,0.58,0.19,0.77,1.58,0.77h4.94c1.34,0,2.88,0,3.6-0.05c0.77-0.05,1.06-0.19,1.44-0.62c0.67-0.77,1.54-2.4,2.69-5.09h0.48
			L429.03,155.6z M404.3,148.74c2.64,5.52,1.34,9.55-1.06,10.8c-1.68,0.86-3.94,0.19-4.56-1.82c-0.48-1.92,0.72-3.31,2.35-4.03
			c1.44-0.77,2.93-2.78,2.64-4.9L404.3,148.74z M401.95,124.35v11.52c1.92-2.98,3.89-7.25,5.09-11.52H401.95z M413.23,125.99
			c0.14-0.53,0.24-1.1,0.38-1.63h-5.18L413.23,125.99z M416.78,146.92c12.43,1.87,6.48,11.14,1.63,6.96
			c0.05-2.4-0.91-5.04-2.02-6.72L416.78,146.92z M421.83,130.93h-4.9v3.46h4.9V130.93z M421.83,135.73h-4.9v3.65h4.9V135.73z
			 M421.83,140.72h-4.9v3.84h4.9V140.72z M428.16,147.83c14.83,2.11,9.26,13.68,3.5,9.22c-0.19-3.22-1.87-6.72-3.89-8.93
			L428.16,147.83z"/>
		<path class="st0" d="M483.51,122.63c-0.38,0.43-1.01,0.91-2.11,1.15v30.87c0,4.46-1.01,6.86-8.3,7.49
			c-0.14-2.16-0.38-3.74-1.06-4.7c-0.72-1.01-1.58-1.73-3.98-2.16v-0.62c0,0,4.46,0.29,5.42,0.29c0.77,0,0.96-0.38,0.96-0.96v-8.59
			h-8.21v14.93c0,0.43-2.02,1.82-5.57,1.82h-1.25v-16.75h-7.73c-1.01,6.24-3.7,12.39-11.14,16.9l-0.43-0.34
			c4.99-7.34,5.33-16.75,5.33-25.78v-17.62l7.83,2.64h20.64l3.17-3.65L483.51,122.63z M459.41,144.04v-10.32h-7.15v2.4
			c0,2.54-0.05,5.23-0.38,7.92H459.41z M452.25,122.53v9.84h7.15v-9.84H452.25z M466.22,122.53v9.84h8.21v-9.84H466.22z
			 M474.43,144.04v-10.32h-8.21v10.32H474.43z"/>
		<path class="st0" d="M218.93,215.59c-0.82,7.3-2.59,13.92-6.34,19.49c2.69,2.98,6,5.38,9.98,7.2l-0.14,0.48
			c-3.26,0.72-5.09,2.59-5.91,5.71c-3.22-2.35-5.62-5.42-7.44-9.07c-4.03,3.98-9.5,7.2-16.99,9.31l-0.29-0.43
			c7.25-3.84,12-8.78,15.03-14.45c-1.06-3.36-1.82-7.06-2.35-11.09c-1.68,2.45-3.65,4.61-5.86,6.48l-0.58-0.34
			c0.43-0.96,0.86-2.02,1.3-3.12c-0.34,0.14-0.77,0.24-1.39,0.29c-1.58,0.91-3.46,1.87-5.38,2.74l1.78,0.14
			c-0.1,0.72-0.58,1.06-1.58,1.2v1.58c2.88-0.34,5.86-0.72,8.88-1.15l0.1,0.62c-2.35,1.06-5.28,2.26-8.98,3.65v6.72
			c0,4.37-0.96,6.67-8.02,7.3c-0.14-2.06-0.38-3.5-1.15-4.46c-0.77-0.96-1.68-1.63-4.13-2.06v-0.62c0,0,4.99,0.29,5.95,0.29
			c0.67,0,0.86-0.19,0.86-0.72v-4.03c-1.82,0.62-3.74,1.3-5.81,2.02c-0.29,0.62-0.82,1.06-1.39,1.2l-2.69-6.86
			c2.06-0.14,5.62-0.53,9.89-1.06v-4.27l3.12,0.24c0.67-1.06,1.34-2.26,1.87-3.26h-4.18c-3.26,2.69-7.01,5.14-11.19,7.06l-0.43-0.48
			c2.64-1.92,5.09-4.18,7.34-6.58h-4.22l-0.43-1.34h5.86c1.39-1.58,2.69-3.26,3.94-4.95H176.3l-0.38-1.34h7.15v-6.29h-4.99
			l-0.38-1.34h5.38v-6.62l8.26,0.62c-0.1,0.72-0.43,1.15-1.78,1.39v4.22l2.16-2.98c0,0,1.1,0.91,2.35,2.02
			c0.82-1.68,1.49-3.31,2.06-4.85l7.25,3.55c-0.29,0.53-0.77,0.82-1.97,0.62c-1.73,3.12-3.94,6.43-6.62,9.65h1.44l2.4-3.26
			c0,0,1.82,1.49,3.36,2.93c1.06-4.42,1.87-9.17,2.21-13.83l9.07,2.21c-0.14,0.62-0.72,1.06-1.87,1.1c-0.72,2.69-1.49,5.18-2.4,7.49
			h3.98l3.36-4.46c0,0,3.79,3.02,6,5.04c-0.14,0.53-0.67,0.77-1.34,0.77H218.93z M199.54,225.19c0.72-1.92,1.39-4.03,1.97-6.24
			h-7.87c-1.49,1.68-3.17,3.36-4.94,4.95h2.74l3.02-3.07L199.54,225.19z M189.55,211.31v5.28c1.15-1.73,2.21-3.5,3.17-5.28H189.55z
			 M208.42,215.59c-0.86,2.02-1.82,3.89-2.93,5.62c0.82,3.07,1.87,5.86,3.26,8.35c1.58-4.32,2.4-9.03,2.69-13.97H208.42z"/>
		<path class="st0" d="M231.5,223.12c0.53,2.93-0.29,5.28-2.74,6.24c-4.18,1.63-6.86-3.98-2.21-6.34c1.44-0.62,2.59-2.35,2.45-4.9
			l0.53-0.05c0.72,1.25,1.3,2.5,1.63,3.7h0.1l-0.38-16.18l4.85,0.82c1.39-1.15,2.74-2.45,3.46-3.22l4.13,3.07
			c1.25-0.05,2.35,0.05,3.26,0.24c0.67-1.06,1.25-2.06,1.63-2.98l4.99,2.54c-0.24,0.43-0.72,0.53-1.58,0.34
			c-0.43,0.53-0.91,1.06-1.54,1.58c2.26,1.87,0.96,4.51-1.54,3.79c-0.38-0.48-0.86-1.06-1.44-1.58c-1.49,0.91-3.07,1.73-4.61,2.35
			c-0.14,0.43-0.53,0.62-1.15,0.62h-4.27l0.05,3.74h0.14l1.92-2.54c0,0,2.16,1.78,3.46,3.12c-0.1,0.53-0.58,0.77-1.2,0.77h-4.27
			l0.1,3.5h18.77l0.1-3.5h-3.12l-0.43-1.34h3.65l0.14-3.74h-3.12l-0.43-1.34h3.6l0.14-3.79h-3.84l-0.43-1.34h3.84l2.4-2.88
			l5.86,4.32c-0.38,0.43-0.77,0.62-1.73,0.77l-0.43,11.47l1.97-1.92l5.71,5.47c-0.38,0.38-0.82,0.53-1.82,0.58
			c-2.11,1.01-5.62,2.59-7.87,3.41l-0.34-0.29c0.34-1.2,0.77-3.02,1.15-4.51H231.5z M262.32,230.95c0,0,3.79,3.12,6,5.18
			c-0.14,0.53-0.67,0.77-1.39,0.77h-16.51v4.22c0,4.56-1.01,7.01-8.45,7.68c-0.19-2.21-0.43-3.7-1.25-4.8
			c-0.86-1.01-1.87-1.73-4.51-2.21v-0.62c0,0,5.52,0.34,6.58,0.34c0.62,0,0.86-0.19,0.86-0.72v-3.89h-17.86l-0.38-1.34h18.24v-3.98
			l4.75,0.38c0.96-1.06,1.92-2.21,2.74-3.17h-16.08l-0.43-1.34h17.04l3.6-3.41l5.95,5.23c-0.43,0.43-0.86,0.58-1.92,0.62
			c-2.02,0.72-4.66,1.63-7.3,2.4c-0.14,0.67-0.62,1.01-1.58,1.15v2.11h8.54L262.32,230.95z M239.09,209.44c0,0,1.58,1.25,2.83,2.4
			c1.1-0.96,2.21-2.11,3.22-3.31c-0.67-0.48-1.3-0.96-1.92-1.34c-0.19,0-0.43-0.05-0.67-0.14c-1.3,0.34-3.41,0.82-5.62,1.1l0.1,3.7
			h0.19L239.09,209.44z M253.87,214.48c-0.24,0.48-0.77,0.58-1.58,0.38c-0.48,0.62-1.06,1.25-1.73,1.87
			c2.3,2.16,0.77,5.04-1.92,4.03c-0.34-0.58-0.77-1.15-1.3-1.78c-1.87,1.06-3.94,1.97-6,2.5l-0.38-0.67c1.58-0.96,3.12-2.3,4.46-3.7
			c-0.91-0.86-1.92-1.58-2.78-2.16l0.43-0.43c1.58,0,2.93,0.19,4.03,0.48c0.72-0.96,1.3-1.97,1.73-2.93L253.87,214.48z"/>
		<path class="st0" d="M289.49,208.39v38.74c-0.05,0.38-1.73,1.58-4.61,1.58h-1.01v-12c-2.11,1.54-4.75,3.36-7.97,5.42
			c-0.24,0.62-0.77,1.15-1.39,1.3l-2.64-7.34c0.67-0.1,1.63-0.19,2.78-0.38v-27.31h-2.3l-0.38-1.34h13.11l3.02-3.79
			c0,0,3.46,2.54,5.52,4.37c-0.14,0.53-0.67,0.77-1.34,0.77H289.49z M283.87,208.39h-3.79v8.06h3.79V208.39z M283.87,217.79h-3.79
			v7.97h3.79V217.79z M283.87,234.21v-7.1h-3.79v7.73L283.87,234.21z M318.05,211.7c-0.24,0.38-0.86,0.67-1.78,0.43
			c-0.96,1.25-2.35,2.69-3.89,4.13c8.74,4.42,4.18,11.09,0.82,7.73c0.05-0.77-0.05-1.58-0.14-2.4c-1.92,0.96-4.42,2.21-6.96,3.36
			c-0.1,0.1-0.19,0.14-0.29,0.24l5.62,0.53c-0.1,0.62-0.48,1.15-1.78,1.34v8.35h1.82v-9.02l6.19,0.58c-0.1,0.53-0.38,0.91-1.39,1.06
			v10.32c0,0.38-2.16,1.15-3.94,1.15h-0.86v-2.74h-1.82v10.61c0,0.43-2.3,1.39-4.32,1.39h-0.96v-22.42
			c-0.24,0.24-0.62,0.38-1.25,0.48v7.39c-0.1,5.9-2.26,11.67-12.53,14.79l-0.43-0.53c5.57-3.07,7.34-7.3,7.78-11.71h-1.44
			l-1.58,2.59l-5.09-3.12c0.34-0.43,0.91-0.96,1.49-1.34v-8.78l6.62,0.48c-0.1,0.58-0.48,1.01-1.82,1.25v7.58h1.92
			c0.05-0.43,0.05-0.82,0.05-1.25v-9.22l6.29,0.62v-0.53l0.53,0.05l-0.72-2.4c-0.34,1.92-2.4,2.83-4.13,1.11
			c0.05-0.62,0-1.34-0.1-2.02c-1.92,0.96-4.42,2.16-6.96,3.27c-0.24,0.19-0.53,0.34-0.82,0.43l-1.54-5.23c0,0,1.01-0.19,1.44-0.48
			c1.15-0.86,2.45-2.3,3.7-3.98l-2.06,0.86c-0.29,0.43-0.62,0.72-1.01,0.86l-2.26-5.18c0,0,0.82-0.19,1.2-0.43
			c1.68-1.49,3.79-6.29,4.37-8.74l6.43,2.98c-0.19,0.43-0.67,0.77-1.58,0.67c-1.78,1.92-4.42,4.27-6.82,5.81c1.15,0.05,2.5,0,3.84,0
			c1.06-1.73,1.92-3.41,2.45-4.66l4.56,3.31c1.44-2.11,2.93-6.05,3.31-8.21l6.48,2.93c-0.19,0.43-0.67,0.82-1.58,0.72
			c-1.58,1.87-3.94,4.18-6.14,5.81c1.06,0.05,2.21,0.05,3.46,0c0.96-1.73,1.78-3.41,2.21-4.66L318.05,211.7z M299.67,220.1
			c-0.24-1.01-0.53-2.02-0.86-2.93c-1.44,1.2-2.93,2.35-4.37,3.31C295.92,220.39,297.74,220.29,299.67,220.1z M303.22,213.04
			c-1.01,1.1-2.26,2.26-3.6,3.46c2.3,1.15,3.55,2.5,4.18,3.74c0.34-0.1,0.82-0.24,1.1-0.38c1.1-0.86,2.35-2.4,3.5-4.08l-1.97,0.82
			c-0.34,0.62-0.77,1.01-1.2,1.2L303.22,213.04z M311.76,216.83c-1.44,1.3-2.93,2.5-4.37,3.55c1.54-0.1,3.41-0.24,5.33-0.38
			C312.48,218.9,312.1,217.79,311.76,216.83z"/>
		<path class="st0" d="M361.54,242.04c0,0,2.69,2.69,4.08,4.42c-0.14,0.53-0.58,0.77-1.25,0.77h-43.73l-0.38-1.34h6.05v-16.47
			l6.86,2.59h19.15l1.78-2.26h-0.05c-0.1-1.78-0.24-3.12-0.91-3.89c-0.58-0.67-1.3-1.39-3.55-1.73v-0.58c0,0,3.79,0.19,4.7,0.19
			c0.72,0,0.86-0.34,0.86-0.86v-4.18h-5.86c-0.67,4.42-3.02,9.07-10.99,12.05l-0.34-0.38c4.56-4.32,4.99-9.99,4.99-15.36v-11.04
			l7.58,2.59h4.13l2.98-3.31l6.24,4.71c-0.29,0.38-0.82,0.77-1.78,0.96v14.45c0,3.41-0.77,5.33-5.62,6.1l5.18,3.5
			c-0.34,0.48-0.86,0.77-2.16,1.01v11.43L361.54,242.04z M329.57,226.96c0,0.43-1.87,1.78-5.04,1.78h-1.15v-24.19l6.82,2.54h2.93
			l2.78-3.12l5.86,4.46c-0.29,0.38-0.91,0.82-1.92,1.01v15.79c-0.05,0.34-3.12,1.44-5.18,1.44h-1.06v-2.74h-4.03V226.96z
			 M329.57,208.43v6.34h4.03v-6.34H329.57z M333.6,222.59v-6.48h-4.03v6.48H333.6z M332.74,245.88h2.54v-12.53h-2.54V245.88z
			 M341.52,233.35v12.53h2.5v-12.53H341.52z M355.15,217.36v-4.03h-5.62v1.68c0,0.77,0,1.54-0.1,2.35H355.15z M349.54,207.9v4.08
			h5.62v-4.08H349.54z M350.26,233.35v12.53h2.5v-12.53H350.26z"/>
	</g>
</g>
</svg>
